{
.appVersion = "3087";
.formatVersion = 3;
DisplayStrings = (
"AÁĂǍÂÄÀĀĄÅÃÆBCĆČÇĈĊDÐĎĐEÉĚÊËĖÈĒĘẼFGĞĜĢĠHĦĤIĲÍǏÎÏİÌĪĮĨJ/Jacute ĴKĶLĹĽĻŁMNŃŇŅÑOÓǑÔÖÒŐŌØÕŒPÞQRŔŘŖSŚꞋŠŞŜȘẞƏTŤŢȚUÚŬǓÛÜǗǙǛǕ"
);
classes = (
{
automatic = 1;
code = "A Aacute Abreve Acaron Acircumflex Adieresis Agrave Amacron Aogonek Aring Atilde AE B C Cacute Ccaron Ccedilla Ccircumflex Cdotaccent D Eth Dcaron Dcroat E Eacute Ecaron Ecircumflex Edieresis Edotaccent Egrave Emacron Eogonek Etilde F G Gbreve Gcircumflex Gcommaaccent Gdotaccent H Hbar Hcircumflex I IJ Iacute Icaron Icircumflex Idieresis Idotaccent Igrave Imacron Iogonek Itilde J Jacute Jcircumflex K Kcommaaccent L Lacute Lcaron Lcommaaccent Lslash M N Nacute Ncaron Ncommaaccent Ntilde O Oacute Ocaron Ocircumflex Odieresis Ograve Ohungarumlaut Omacron Oslash Otilde OE P Thorn Q R Racute Rcaron Rcommaaccent S Sacute Saltillo Scaron Scedilla Scircumflex Scommaaccent Germandbls Schwa T Tcaron Tcedilla Tcommaaccent U Uacute Ubreve Ucaron Ucircumflex Udieresis Udieresisacute Udieresiscaron Udieresisgrave Udieresismacron Ugrave Uhungarumlaut Umacron Uogonek Uring Utilde V W Wacute Wcircumflex Wdieresis Wgrave X Y Yacute Ycircumflex Ydieresis Ygrave Ytilde Z Zacute Zcaron Zdotaccent IJ.ijslab IJ.islab IJ.jslab I.slab J.slab A-cy Be-cy Ve-cy Ge-cy De-cy Ie-cy Io-cy Zhe-cy Ze-cy Ii-cy Iishort-cy Ka-cy El-cy Em-cy En-cy O-cy Pe-cy Er-cy Es-cy Te-cy U-cy Ef-cy Ha-cy Che-cy Tse-cy Sha-cy Shcha-cy Softsign-cy Yeru-cy Hardsign-cy Ereversed-cy Yu-cy Ya-cy";
name = Uppercase;
}
);
customParameters = (
{
name = "Build Name";
value = "Big Bang";
}
);
date = "2021-12-18 02:09:22 +0000";
familyName = "26F Sans";
featurePrefixes = (
{
automatic = 1;
code = "languagesystem DFLT dflt;

languagesystem latn dflt;
languagesystem latn AZE;
languagesystem latn CRT;
languagesystem latn KAZ;
languagesystem latn TAT;
languagesystem latn TRK;
languagesystem latn ROM;
languagesystem latn MOL;
languagesystem latn NLD;
";
name = Languagesystems;
}
);
features = (
{
automatic = 1;

glyphs = (
{
glyphname = A;
lastChange = "2022-01-20 20:42:22 +0000";
layers = (
{
anchors = (
{
name = bottom;
pos = (326,0);
},
{
name = ogonek;
pos = (602,32);
},
{
name = top;
pos = (325,680);
}
);
layerId = m01;
shapes = (
{
closed = 1;
nodes = (
(622,0,l),
(378,680,l),
(299,680,l),
(529,0,l)
);
},
{
closed = 1;
nodes = (
(122,0,l),
(352,680,l),
(273,680,l),
(29,0,l)
);
},
{
closed = 1;
nodes = (
(491,187,l),
(491,259,l),
(163,259,l),
(163,187,l)
);
}
);
width = 651;
}
);
metricLeft = X;
metricRight = X;
unicode = 65;
userData = {
KernOnName = A;
};
},
{
glyphname = AE;
lastChange = "2022-01-20 22:46:37 +0000";
layers = (
{
layerId = m01;
shapes = (
{
closed = 1;
nodes = (
(122,0,l),
(455,680,l),
(373,680,l),
(29,0,l)
);
},
{
closed = 1;
nodes = (
(522,187,l),
(522,259,l),
(163,259,l),
(163,187,l)
);
},
{
closed = 1;
nodes = (
(462,0,l),
(547,0,l),
(547,680,l),
(462,680,l)
);
},
{
closed = 1;
nodes = (
(915,0,l),
(915,72,l),
(503,72,l),
(503,0,l)
);
},
{
closed = 1;
nodes = (
(915,608,l),
(915,680,l),
(402,680,l),
(402,608,l)
);
},
{
closed = 1;
nodes = (
(855,304,l),
(855,376,l),
(503,376,l),
(503,304,l)
);
}
);
width = 953;
}
);
metricLeft = A;
metricRight = E;
unicode = 198;
userData = {
KernOnName = AE;
};
},
{
glyphname = B;
lastChange = "2022-01-20 22:46:37 +0000";
layers = (
{
anchors = (
{
name = bottom;
pos = (273,0);
},
{
name = center;
pos = (288,340);
},
{
name = top;
pos = (273,680);
}
);
layerId = m01;
shapes = (
{
closed = 1;
nodes = (
(322,0,ls),
(470,0,o),
(552,70,o),
(552,185,cs),
(552,303,o),
(465,350,o),
(404,355,c),
(449,359,o),
(516,405,o),
(516,509,cs),
(516,630,o),
(426,680,o),
(296,680,cs),
(55,680,l),
(55,0,l)
);
},
{
closed = 1;
nodes = (
(140,313,l),
(322,313,ls),
(394,313,o),
(462,269,o),
(462,191,cs),
(462,120,o),
(406,75,o),
(322,75,cs),
(140,75,l)
);
},
{
closed = 1;
nodes = (
(140,605,l),
(296,605,ls),
(368,605,o),
(425,570,o),
(425,501,cs),
(425,431,o),
(366,385,o),
(296,385,cs),
(140,385,l)
);
}
);
width = 576;
}
);
metricLeft = N;
unicode = 66;
userData = {
KernOnName = B;
};
},
{
glyphname = C;
lastChange = "2022-01-20 20:42:22 +0000";
layers = (
{
anchors = (
{
name = bottom;
pos = (340,0);
},
{
name = top;
pos = (340,695);
}
);
layerId = m01;
shapes = (
{
closed = 1;
nodes = (
(538,207,l),
(524,117,o),
(447,58,o),
(340,58,cs),
(199,58,o),
(126,160,o),
(126,340,cs),
(126,519,o),
(198,622,o),
(340,622,cs),
(447,622,o),
(523,564,o),
(541,472,c),
(630,472,l),
(611,609,o),
(500,695,o),
(340,695,cs),
(144,695,o),
(36,565,o),
(36,340,cs),
(36,115,o),
(144,-15,o),
(340,-15,cs),
(500,-15,o),
(612,71,o),
(630,207,c)
);
}
);
width = 660;
}
);
metricLeft = O;
unicode = 67;
userData = {
KernOnName = C;
};
},
{
glyphname = D;
lastChange = "2022-01-20 22:46:34 +0000";
layers = (
{
anchors = (
{
name = bottom;
pos = (330,0);
},
{
name = center;
pos = (320,340);
},
{
name = top;
pos = (314,680);
}
);
layerId = m01;
shapes = (
{
closed = 1;
nodes = (
(55,0,l),
(140,0,l),
(140,680,l),
(55,680,l)
);
},
{
closed = 1;
nodes = (
(129,608,l),
(290,608,l),
(290,680,l),
(129,680,l)
);
},
{
closed = 1;
nodes = (
(129,0,l),
(290,0,l),
(290,72,l),
(129,72,l)
);
},
{
closed = 1;
nodes = (
(288,607,l),
(434,607,o),
(533,520,o),
(533,340,cs),
(533,160,o),
(434,73,o),
(288,73,c),
(288,0,l),
(488,0,o),
(623,115,o),
(623,340,cs),
(623,565,o),
(488,680,o),
(288,680,c)
);
}
);
width = 659;
}
);
metricLeft = N;
metricRight = O;
unicode = 68;
userData = {
KernOnName = D;
};
},
{
glyphname = Eth;
lastChange = "2022-01-20 22:46:34 +0000";
layers = (
{
layerId = m01;
shapes = (
{
pos = (45,0);
ref = D;
},
{
closed = 1;
nodes = (
(265,304,l),
(265,376,l),
(20,376,l),
(20,304,l)
);
}
);
width = 704;
}
);
metricRight = D;
unicode = 208;
userData = {
KernOnName = Eth;
};
},
{
glyphname = E;
lastChange = "2022-01-20 20:42:22 +0000";
layers = (
{
anchors = (
{
name = bottom;
pos = (279,0);
},
{
name = ogonek;
pos = (488,32);
},
{
name = top;
pos = (284,680);
},
{
name = topleft;
pos = (20,680);
}
);
layerId = m01;
shapes = (
{
closed = 1;
nodes = (
(55,0,l),
(140,0,l),
(140,680,l),
(55,680,l)
);
},
{
closed = 1;
nodes = (
(508,0,l),
(508,72,l),
(96,72,l),
(96,0,l)
);
},
{
closed = 1;
nodes = (
(508,608,l),
(508,680,l),
(96,680,l),
(96,608,l)
);
},
{
closed = 1;
nodes = (
(448,304,l),
(448,376,l),
(96,376,l),
(96,304,l)
);
}
);
width = 546;
}
);
metricLeft = L;
unicode = 69;
userData = {
KernOnName = E;
};
},
{
glyphname = F;
lastChange = "2022-01-20 22:46:28 +0000";
layers = (
{
anchors = (
{
name = bottom;
pos = (269,0);
},
{
name = top;
pos = (282,680);
}
);
layerId = m01;
shapes = (
{
closed = 1;
nodes = (
(448,294,l),
(448,366,l),
(96,366,l),
(96,294,l)
);
},
{
closed = 1;
nodes = (
(55,0,l),
(140,0,l),
(140,680,l),
(55,680,l)
);
},
{
closed = 1;
nodes = (
(508,608,l),
(508,680,l),
(96,680,l),
(96,608,l)
);
}
);
width = 538;
}
);
metricLeft = E;
unicode = 70;
userData = {
KernOnName = F;
};
},
{
glyphname = G;
lastChange = "2022-01-20 22:46:27 +0000";
layers = (
{
anchors = (
{
name = bottom;
pos = (335,0);
},
{
name = top;
pos = (338,695);
}
);
layerId = m01;
shapes = (
{
closed = 1;
nodes = (
(626,304,l),
(541,304,l),
(541,284,ls),
(541,151,o),
(471,58,o),
(337,58,cs),
(193,58,o),
(121,160,o),
(121,340,cs),
(121,520,o),
(193,622,o),
(337,622,cs),
(432,622,o),
(503,580,o),
(527,495,c),
(621,495,l),
(589,626,o),
(484,695,o),
(338,695,cs),
(138,695,o),
(31,565,o),
(31,340,cs),
(31,115,o),
(138,-15,o),
(335,-15,cs),
(526,-15,o),
(626,106,o),
(626,284,cs)
);
},
{
closed = 1;
nodes = (
(626,284,l),
(626,356,l),
(344,356,l),
(344,284,l)
);
}
);
width = 659;
}
);
metricLeft = o;
unicode = 71;
userData = {
KernOnName = G;
};
},
{
glyphname = H;
lastChange = "2022-01-20 20:42:22 +0000";
layers = (
{
anchors = (
{
name = bottom;
pos = (336,0);
},
{
name = center;
pos = (336,340);
},
{
name = top;
pos = (336,680);
},
{
name = topleft;
pos = (50,680);
}
);
layerId = m01;
shapes = (
{
closed = 1;
nodes = (
(55,0,l),
(140,0,l),
(140,680,l),
(55,680,l)
);
},
{
closed = 1;
nodes = (
(531,0,l),
(616,0,l),
(616,680,l),
(531,680,l)
);
},
{
closed = 1;
nodes = (
(583,304,l),
(583,376,l),
(96,376,l),
(96,304,l)
);
}
);
width = 671;
}
);
metricLeft = N;
metricRight = N;
unicode = 72;
userData = {
KernOnName = H;
};
},
{
glyphname = Hbar;
lastChange = "2022-01-20 22:46:25 +0000";
layers = (
{
layerId = m01;
shapes = (
{
pos = (19,0);
ref = H;
},
{
closed = 1;
nodes = (
(689,544,l),
(689,606,l),
(20,606,l),
(20,544,l)
);
}
);
width = 709;
}
);
unicode = 294;
userData = {
KernOnName = Hbar;
};
},
{
glyphname = I;
lastChange = "2022-01-20 22:46:24 +0000";
layers = (
{
anchors = (
{
name = bottom;
pos = (98,0);
},
{
name = ogonek;
pos = (120,32);
},
{
name = top;
pos = (98,680);
},
{
name = topleft;
pos = (20,680);
}
);
layerId = m01;
shapes = (
{
closed = 1;
nodes = (
(55,0,l),
(140,0,l),
(140,680,l),
(55,680,l)
);
}
);
width = 195;
}
);
metricLeft = N;
metricRight = N;
unicode = 73;
userData = {
KernOnName = I;
};
},
{
glyphname = IJ;
lastChange = "2022-01-20 22:46:24 +0000";
layers = (
{
layerId = m01;
shapes = (
{
closed = 1;
nodes = (
(55,275,l),
(140,275,l),
(140,680,l),
(55,680,l)
);
},
{
closed = 1;
nodes = (
(389,-15,o),
(480,59,o),
(480,229,cs),
(480,680,l),
(395,680,l),
(395,229,ls),
(398,110,o),
(340,61,o),
(265,61,cs),
(196,61,o),
(139,102,o),
(139,179,c),
(56,179,l),
(56,54,o),
(146,-15,o),
(265,-15,cs)
);
}
);
width = 535;
}
);
metricLeft = U;
metricRight = U;
unicode = 306;
userData = {
KernOnName = IJ;
};
},
{
glyphname = J;
lastChange = "2022-01-20 22:46:19 +0000";
layers = (
{
anchors = (
{
name = bottom;
pos = (237,-15);
},
{
name = top;
pos = (407,680);
}
);
layerId = m01;
shapes = (
{
closed = 1;
nodes = (
(361,-15,o),
(452,59,o),
(452,229,cs),
(452,680,l),
(367,680,l),
(367,229,ls),
(370,110,o),
(312,61,o),
(237,61,cs),
(168,61,o),
(111,102,o),
(111,179,c),
(28,179,l),
(28,54,o),
(118,-15,o),
(237,-15,cs)
);
}
);
width = 502;
}
);
metricRight = n;
unicode = 74;
userData = {
KernOnName = J;
};
},
{
glyphname = K;
lastChange = "2022-01-20 22:46:18 +0000";
layers = (
{
anchors = (
{
name = bottom;
pos = (273,0);
},
{
name = top;
pos = (290,680);
}
);
layerId = m01;
shapes = (
{
closed = 1;
nodes = (
(50,0,l),
(135,0,l),
(135,680,l),
(50,680,l)
);
},
{
closed = 1;
nodes = (
(105,291,l),
(105,184,l),
(553,680,l),
(451,680,l)
);
},
{
closed = 1;
nodes = (
(470,0,l),
(568,0,l),
(247,431,l),
(190,364,l)
);
},
{
closed = 1;
nodes = (
(50,0,l),
(132,0,l),
(132,680,l),
(50,680,l)
);
}
);
width = 579;
}
);
metricLeft = n;
unicode = 75;
userData = {
KernOnName = K;
};
},
{
glyphname = L;
lastChange = "2022-01-20 20:42:22 +0000";
layers = (
{
anchors = (
{
name = bottom;
pos = (263,-1);
},
{
name = center;
pos = (260,340);
},
{
name = top;
pos = (96,680);
},
{
name = topright;
pos = (140,680);
}
);
layerId = m01;
shapes = (
{
closed = 1;
nodes = (
(55,0,l),
(140,0,l),
(140,680,l),
(55,680,l)
);
},
{
closed = 1;
nodes = (
(488,0,l),
(488,72,l),
(96,72,l),
(96,0,l)
);
}
);
width = 518;
}
);
metricLeft = H;
unicode = 76;
userData = {
KernOnName = L;
};
},
{
glyphname = Lslash;
lastChange = "2022-01-20 22:46:15 +0000";
layers = (
{
layerId = m01;
shapes = (
{
pos = (60,0);
ref = L;
},
{
closed = 1;
nodes = (
(356,380,l),
(356,447,l),
(20,351,l),
(20,284,l)
);
}
);
width = 578;
}
);
metricRight = L;
unicode = 321;
userData = {
KernOnName = Lslash;
};
},
{
glyphname = M;
lastChange = "2022-01-20 20:42:22 +0000";
layers = (
{
anchors = (
{
name = bottom;
pos = (389,0);
},
{
name = top;
pos = (389,680);
}
);
layerId = m01;
shapes = (
{
closed = 1;
nodes = (
(431,0,l),
(658,611,l),
(642,614,l),
(642,0,l),
(727,0,l),
(727,680,l),
(599,680,l),
(373,75,l),
(405,75,l),
(178,680,l),
(50,680,l),
(50,0,l),
(135,0,l),
(135,614,l),
(119,611,l),
(346,0,l)
);
}
);
width = 777;
}
);
metricLeft = n;
metricRight = n;
unicode = 77;
userData = {
KernOnName = M;
};
},
{
glyphname = N;
lastChange = "2022-01-20 20:42:22 +0000";
layers = (
{
anchors = (
{
name = bottom;
pos = (326,0);
},
{
name = top;
pos = (326,680);
}
);
layerId = m01;
shapes = (
{
closed = 1;
nodes = (
(140,0,l),
(140,587,l),
(115,579,l),
(505,0,l),
(596,0,l),
(596,680,l),
(511,680,l),
(511,93,l),
(536,101,l),
(146,680,l),
(55,680,l),
(55,0,l)
);
}
);
width = 651;
}
);
metricLeft = "=n+5";
metricRight = "=n+5";
unicode = 78;
userData = {
KernOnName = N;
};
},
{
glyphname = O;
lastChange = "2022-01-20 20:42:22 +0000";
layers = (
{
anchors = (
{
name = bottom;
pos = (343,2);
},
{
name = center;
pos = (348,340);
},
{
name = ogonek;
pos = (358,20);
},
{
name = top;
pos = (348,695);
},
{
name = topleft;
pos = (20,680);
},
{
name = topright;
pos = (676,680);
}
);
layerId = m01;
shapes = (
{
closed = 1;
nodes = (
(203,61,o),
(126,160,o),
(126,340,cs),
(126,520,o),
(203,619,o),
(347,619,cs),
(493,619,o),
(570,520,o),
(570,340,cs),
(570,160,o),
(493,61,o),
(347,61,cs)
);
},
{
closed = 1;
nodes = (
(548,-15,o),
(660,115,o),
(660,340,cs),
(660,565,o),
(548,695,o),
(348,695,cs),
(148,695,o),
(36,565,o),
(36,340,cs),
(36,115,o),
(148,-15,o),
(348,-15,cs)
);
}
);
width = 696;
}
);
metricLeft = "=o+5";
metricRight = "=o+5";
unicode = 79;
userData = {
KernOnName = O;
};
},
{
glyphname = Oslash;
lastChange = "2022-01-20 22:46:07 +0000";
layers = (
{
layerId = m01;
shapes = (
{
ref = O;
},
{
closed = 1;
nodes = (
(27,-7,l),
(83,-52,l),
(669,687,l),
(613,732,l)
);
}
);
width = 696;
}
);
unicode = 216;
userData = {
KernOnName = Oslash;
};
},
{
glyphname = OE;
lastChange = "2022-01-20 22:46:06 +0000";
layers = (
{
layerId = m01;
shapes = (
{
closed = 1;
nodes = (
(203,61,o),
(126,160,o),
(126,340,cs),
(126,520,o),
(203,619,o),
(347,619,cs),
(493,619,o),
(570,520,o),
(570,340,cs),
(570,160,o),
(493,61,o),
(347,61,cs)
);
},
{
closed = 1;
nodes = (
(548,-15,o),
(630,115,o),
(630,340,cs),
(630,565,o),
(548,695,o),
(348,695,cs),
(148,695,o),
(36,565,o),
(36,340,cs),
(36,115,o),
(148,-15,o),
(348,-15,cs)
);
},
{
closed = 1;
nodes = (
(577,0,l),
(662,0,l),
(662,680,l),
(577,680,l)
);
},
{
closed = 1;
nodes = (
(1030,0,l),
(1030,72,l),
(618,72,l),
(618,0,l)
);
},
{
closed = 1;
nodes = (
(1030,608,l),
(1030,680,l),
(618,680,l),
(618,608,l)
);
},
{
closed = 1;
nodes = (
(970,304,l),
(970,376,l),
(618,376,l),
(618,304,l)
);
}
);
width = 1068;
}
);
metricLeft = O;
metricRight = E;
unicode = 338;
userData = {
KernOnName = OE;
};
},
{
glyphname = P;
lastChange = "2022-01-20 20:42:22 +0000";
layers = (
{
anchors = (
{
name = bottom;
pos = (297,0);
},
{
name = top;
pos = (288,680);
}
);
layerId = m01;
shapes = (
{
closed = 1;
nodes = (
(322,605,ls),
(406,605,o),
(462,542,o),
(462,466,cs),
(462,390,o),
(406,330,o),
(322,330,cs),
(140,330,l),
(140,605,l)
);
},
{
closed = 1;
nodes = (
(322,255,ls),
(465,255,o),
(552,347,o),
(552,466,cs),
(552,585,o),
(465,680,o),
(322,680,cs),
(55,680,l),
(55,0,l),
(140,0,l),
(140,255,l)
);
}
);
width = 592;
}
);
metricLeft = B;
unicode = 80;
userData = {
KernOnName = P;
};
},
{
glyphname = Thorn;
lastChange = "2022-01-20 22:46:05 +0000";
layers = (
{
layerId = m01;
shapes = (
{
closed = 1;
nodes = (
(322,478,ls),
(406,478,o),
(462,415,o),
(462,339,cs),
(462,263,o),
(406,203,o),
(322,203,cs),
(140,203,l),
(140,478,l)
);
},
{
closed = 1;
nodes = (
(322,128,ls),
(465,128,o),
(552,220,o),
(552,339,cs),
(552,458,o),
(465,553,o),
(322,553,cs),
(55,553,l),
(55,128,l)
);
},
{
closed = 1;
nodes = (
(55,0,l),
(140,0,l),
(140,680,l),
(55,680,l)
);
}
);
width = 592;
}
);
metricLeft = P;
metricRight = P;
unicode = 222;
userData = {
KernOnName = Thorn;
};
},
{
glyphname = Q;
lastChange = "2022-01-20 22:46:05 +0000";
layers = (
{
anchors = (
{
name = bottom;
pos = (343,-15);
},
{
name = top;
pos = (343,695);
}
);
layerId = m01;
shapes = (
{
closed = 1;
nodes = (
(512,-105,l),
(613,-105,l),
(426,168,l),
(325,168,l)
);
},
{
pos = (-5,0);
ref = O;
}
);
width = 686;
}
);
metricLeft = o;
metricRight = o;
unicode = 81;
userData = {
KernOnName = Q;
};
},
{
glyphname = R;
lastChange = "2022-01-20 20:42:22 +0000";
layers = (
{
anchors = (
{
name = bottom;
pos = (292,0);
},
{
name = top;
pos = (288,680);
}
);
layerId = m01;
shapes = (
{
closed = 1;
nodes = (
(463,0,l),
(560,0,l),
(389,295,l),
(292,295,l)
);
},
{
closed = 1;
nodes = (
(317,605,ls),
(401,605,o),
(457,542,o),
(457,466,cs),
(457,390,o),
(401,330,o),
(317,330,cs),
(135,330,l),
(135,605,l)
);
},
{
closed = 1;
nodes = (
(317,255,ls),
(460,255,o),
(547,347,o),
(547,466,cs),
(547,585,o),
(460,680,o),
(317,680,cs),
(50,680,l),
(50,0,l),
(135,0,l),
(135,255,l)
);
}
);
width = 589;
}
);
metricLeft = n;
metricRight = X;
unicode = 82;
userData = {
KernOnName = R;
};
},
{
glyphname = S;
lastChange = "2022-01-20 20:42:22 +0000";
layers = (
{
anchors = (
{
name = bottom;
pos = (291,0);
},
{
name = top;
pos = (282,695);
}
);
layerId = m01;
shapes = (
{
closed = 1;
nodes = (
(30,83,o),
(121,-15,o),
(291,-15,cs),
(419,-15,o),
(535,41,o),
(535,174,cs),
(535,422,o),
(135,335,o),
(135,508,cs),
(135,585,o),
(209,621,o),
(281,621,cs),
(364,621,o),
(433,570,o),
(433,503,c),
(525,503,l),
(525,619,o),
(428,695,o),
(282,695,cs),
(152,695,o),
(45,636,o),
(45,505,cs),
(45,253,o),
(445,346,o),
(445,171,cs),
(445,88,o),
(360,61,o),
(286,61,cs),
(174,61,o),
(124,123,o),
(124,187,c),
(30,187,l)
);
}
);
width = 565;
}
);
metricLeft = "=s+5";
metricRight = "=s+5";
unicode = 83;
userData = {
KernOnName = S;
};
},
{
glyphname = Germandbls;
lastChange = "2022-01-20 22:46:00 +0000";
layers = (
{
layerId = m01;
shapes = (
{
closed = 1;
nodes = (
(274,340,l),
(286,343,o),
(300,345,o),
(325,345,cs),
(450,345,o),
(513,300,o),
(513,209,cs),
(513,106,o),
(432,65,o),
(345,65,cs),
(313,65,o),
(268,71,o),
(239,80,c),
(239,7,l),
(275,-7,o),
(301,-11,o),
(338,-11,cs),
(503,-11,o),
(603,68,o),
(603,200,cs),
(603,348,o),
(487,415,o),
(373,415,c),
(566,621,l),
(566,678,l),
(55,678,l),
(55,0,l),
(140,0,l),
(140,606,l),
(445,606,l),
(274,420,l)
);
}
);
width = 627;
}
);
metricLeft = I;
metricRight = B;
unicode = 7838;
userData = {
KernOnName = Germandbls;
};
},
{
glyphname = Schwa;
lastChange = "2022-01-20 22:45:59 +0000";
layers = (
{
layerId = m01;
shapes = (
{
closed = 1;
nodes = (
(607,304,l),
(607,376,l),
(70,376,l),
(70,304,l)
);
},
{
closed = 1;
nodes = (
(47,376,l),
(46,364,o),
(46,352,o),
(46,340,cs),
(46,115,o),
(148,-15,o),
(343,-15,cs),
(548,-15,o),
(660,115,o),
(660,340,cs),
(660,565,o),
(548,695,o),
(343,695,cs),
(199,695,o),
(109,623,o),
(67,493,c),
(161,493,l),
(195,575,o),
(251,619,o),
(342,619,cs),
(493,619,o),
(570,520,o),
(570,340,cs),
(570,160,o),
(493,61,o),
(342,61,cs),
(203,61,o),
(136,160,o),
(136,340,cs),
(136,352,o),
(136,364,o),
(137,376,c)
);
}
);
width = 696;
}
);
unicode = 399;
userData = {
KernOnName = Schwa;
};
},
{
glyphname = T;
kernRight = T;
lastChange = "2022-01-21 01:57:53 +0000";
layers = (
{
anchors = (
{
name = bottom;
pos = (302,5);
},
{
name = center;
pos = (304,340);
},
{
name = top;
pos = (304,680);
}
);
layerId = m01;
shapes = (
{
closed = 1;
nodes = (
(577,608,l),
(577,680,l),
(30,680,l),
(30,608,l)
);
},
{
closed = 1;
nodes = (
(261,0,l),
(346,0,l),
(346,680,l),
(261,680,l)
);
}
);
width = 607;
}
);
unicode = 84;
userData = {
KernOnName = T;
};
},
{
glyphname = U;
lastChange = "2022-01-20 22:45:57 +0000";
layers = (
{
anchors = (
{
name = bottom;
pos = (324,0);
},
{
name = ogonek;
pos = (338,18);
},
{
name = top;
pos = (323,680);
},
{
name = topright;
pos = (593,680);
}
);
layerId = m01;
shapes = (
{
closed = 1;
nodes = (
(480,-15,o),
(593,60,o),
(593,264,cs),
(593,680,l),
(508,680,l),
(508,264,ls),
(508,104,o),
(401,61,o),
(324,61,cs),
(247,61,o),
(144,104,o),
(144,264,cs),
(144,680,l),
(55,680,l),
(55,264,ls),
(55,56,o),
(174,-15,o),
(324,-15,cs)
);
}
);
width = 648;
}
);
metricLeft = N;
metricRight = N;
unicode = 85;
userData = {
KernOnName = U;
};
},
{
glyphname = V;
lastChange = "2022-01-20 20:42:22 +0000";
layers = (
{
anchors = (
{
name = bottom;
pos = (330,0);
},
{
name = top;
pos = (330,680);
}
);
layerId = m01;
shapes = (
{
closed = 1;
nodes = (
(303,0,l),
(386,0,l),
(630,680,l),
(536,680,l)
);
},
{
closed = 1;
nodes = (
(273,0,l),
(359,0,l),
(122,680,l),
(29,680,l)
);
}
);
width = 659;
}
);
metricLeft = X;
metricRight = X;
unicode = 86;
userData = {
KernOnName = V;
};
},
{
glyphname = W;
lastChange = "2022-01-20 20:42:22 +0000";
layers = (
{
anchors = (
{
name = bottom;
pos = (452,0);
},
{
name = top;
pos = (453,680);
}
);
layerId = m01;
shapes = (
{
closed = 1;
nodes = (
(710,0,l),
(875,680,l),
(786,680,l),
(644,49,l),
(665,49,l),
(504,680,l),
(404,680,l),
(243,49,l),
(264,49,l),
(122,680,l),
(29,680,l),
(194,0,l),
(308,0,l),
(463,619,l),
(441,619,l),
(596,0,l)
);
}
);
width = 904;
}
);
metricLeft = X;
metricRight = X;
unicode = 87;
userData = {
KernOnName = W;
};
},
{
glyphname = X;
lastChange = "2022-01-20 22:45:48 +0000";
layers = (
{
anchors = (
{
name = bottom;
pos = (320,0);
},
{
name = top;
pos = (320,680);
}
);
layerId = m01;
shapes = (
{
closed = 1;
nodes = (
(610,0,l),
(134,680,l),
(34,680,l),
(510,0,l)
);
},
{
closed = 1;
nodes = (
(350,306,l),
(605,680,l),
(507,680,l),
(302,376,l)
);
},
{
closed = 1;
nodes = (
(292,386,l),
(29,0,l),
(127,0,l),
(340,316,l)
);
}
);
width = 639;
}
);
metricLeft = "=x+5";
metricRight = "=x+5";
unicode = 88;
userData = {
KernOnName = X;
};
},
{
glyphname = Y;
lastChange = "2022-01-20 22:45:48 +0000";
layers = (
{
anchors = (
{
name = bottom;
pos = (312,0);
},
{
name = top;
pos = (311,680);
},
{
name = topleft;
pos = (14,680);
}
);
layerId = m01;
shapes = (
{
closed = 1;
nodes = (
(269,274,l),
(269,0,l),
(354,0,l),
(354,274,l),
(595,680,l),
(502,680,l),
(292,314,l),
(334,314,l),
(125,680,l),
(29,680,l)
);
}
);
width = 624;
}
);
metricLeft = X;
metricRight = X;
unicode = 89;
userData = {
KernOnName = Y;
};
},
{
glyphname = Z;
lastChange = "2022-01-20 22:45:46 +0000";
layers = (
{
anchors = (
{
name = bottom;
pos = (294,0);
},
{
name = center;
pos = (294,340);
},
{
name = top;
pos = (297,680);
}
);
layerId = m01;
shapes = (
{
closed = 1;
nodes = (
(537,680,l),
(60,680,l),
(60,608,l),
(476,608,l),
(459,644,l),
(40,57,l),
(40,0,l),
(547,0,l),
(547,72,l),
(100,72,l),
(116,36,l),
(537,623,l)
);
}
);
width = 587;
}
);
metricLeft = "=z+5";
metricRight = "=z+5";
unicode = 90;
userData = {
KernOnName = Z;
};
},
{
glyphname = IJ.ijslab;
lastChange = "2022-01-20 22:45:43 +0000";
layers = (
{
layerId = m01;
shapes = (
{
closed = 1;
nodes = (
(284,608,l),
(284,680,l),
(55,680,l),
(55,608,l)
);
},
{
closed = 1;
nodes = (
(127,255,l),
(212,255,l),
(212,680,l),
(127,680,l)
);
},
{
closed = 1;
nodes = (
(284,255,l),
(284,327,l),
(55,327,l),
(55,255,l)
);
},
{
closed = 1;
nodes = (
(461,-15,o),
(552,59,o),
(552,229,cs),
(552,680,l),
(467,680,l),
(467,229,ls),
(470,110,o),
(412,61,o),
(337,61,cs),
(268,61,o),
(211,102,o),
(211,179,c),
(128,179,l),
(128,54,o),
(218,-15,o),
(337,-15,cs)
);
},
{
closed = 1;
nodes = (
(510,608,l),
(510,680,l),
(367,680,l),
(367,608,l)
);
}
);
width = 607;
}
);
metricLeft = I;
metricRight = U;
userData = {
KernOnName = IJ.ijslab;
};
},
{
glyphname = IJ.islab;
lastChange = "2022-01-20 22:45:43 +0000";
layers = (
{
layerId = m01;
shapes = (
{
closed = 1;
nodes = (
(461,-15,o),
(552,59,o),
(552,229,cs),
(552,680,l),
(467,680,l),
(467,229,ls),
(470,110,o),
(412,61,o),
(337,61,cs),
(268,61,o),
(211,102,o),
(211,179,c),
(128,179,l),
(128,54,o),
(218,-15,o),
(337,-15,cs)
);
},
{
closed = 1;
nodes = (
(284,608,l),
(284,680,l),
(55,680,l),
(55,608,l)
);
},
{
closed = 1;
nodes = (
(127,255,l),
(212,255,l),
(212,680,l),
(127,680,l)
);
},
{
closed = 1;
nodes = (
(284,255,l),
(284,327,l),
(55,327,l),
(55,255,l)
);
}
);
width = 607;
}
);
metricLeft = I;
metricRight = U;
userData = {
KernOnName = IJ.islab;
};
},
{
glyphname = IJ.jslab;
lastChange = "2022-01-20 22:45:42 +0000";
layers = (
{
layerId = m01;
shapes = (
{
closed = 1;
nodes = (
(55,275,l),
(140,275,l),
(140,680,l),
(55,680,l)
);
},
{
closed = 1;
nodes = (
(389,-15,o),
(480,59,o),
(480,229,cs),
(480,680,l),
(395,680,l),
(395,229,ls),
(398,110,o),
(340,61,o),
(265,61,cs),
(196,61,o),
(139,102,o),
(139,179,c),
(56,179,l),
(56,54,o),
(146,-15,o),
(265,-15,cs)
);
},
{
closed = 1;
nodes = (
(438,608,l),
(438,680,l),
(255,680,l),
(255,608,l)
);
}
);
width = 535;
}
);
metricLeft = U;
metricRight = U;
userData = {
KernOnName = IJ.jslab;
};
},
{
glyphname = I.slab;
lastChange = "2022-01-20 22:45:42 +0000";
layers = (
{
layerId = m01;
shapes = (
{
closed = 1;
nodes = (
(269,608,l),
(269,680,l),
(40,680,l),
(40,608,l)
);
},
{
closed = 1;
nodes = (
(112,0,l),
(197,0,l),
(197,680,l),
(112,680,l)
);
},
{
closed = 1;
nodes = (
(269,0,l),
(269,72,l),
(40,72,l),
(40,0,l)
);
}
);
width = 309;
}
);
userData = {
KernOnName = I.slab;
};
},
{
glyphname = J.slab;
lastChange = "2022-01-20 22:45:41 +0000";
layers = (
{
layerId = m01;
shapes = (
{
closed = 1;
nodes = (
(367,-15,o),
(458,59,o),
(458,229,cs),
(458,680,l),
(373,680,l),
(373,229,ls),
(376,110,o),
(318,61,o),
(243,61,cs),
(174,61,o),
(117,102,o),
(117,179,c),
(34,179,l),
(34,54,o),
(124,-15,o),
(243,-15,cs)
);
},
{
closed = 1;
nodes = (
(416,608,l),
(416,680,l),
(183,680,l),
(183,608,l)
);
}
);
width = 508;
}
);
metricRight = n;
userData = {
KernOnName = J.slab;
};
},
{
glyphname = a;
lastChange = "2022-01-20 20:42:22 +0000";
layers = (
{
anchors = (
{
name = bottom;
pos = (228,1);
},
{
name = ogonek;
pos = (433,32);
},
{
name = top;
pos = (253,508);
}
);
layerId = m01;
shapes = (
{
closed = 1;
nodes = (
(137,348,l),
(137,393,o),
(178,438,o),
(248,438,cs),
(317,438,o),
(370,395,o),
(370,329,cs),
(370,0,l),
(453,0,l),
(453,339,ls),
(453,441,o),
(362,508,o),
(253,508,cs),
(160,508,o),
(57,460,o),
(56,348,c)
);
},
{
closed = 1;
nodes = (
(207,289,ls),
(112,290,o),
(38,232,o),
(38,144,cs),
(38,49,o),
(118,-10,o),
(210,-10,cs),
(303,-10,o),
(357,49,o),
(389,105,c),
(370,173,l),
(370,102,o),
(292,60,o),
(224,60,cs),
(163,60,o),
(127,94,o),
(127,145,cs),
(127,197,o),
(164,222,o),
(231,222,cs),
(379,222,l),
(379,288,l)
);
}
);
width = 503;
}
);
metricRight = n;
unicode = 97;
userData = {
KernOnName = a;
};
},
{
glyphname = ae;
lastChange = "2022-01-20 22:45:36 +0000";
layers = (
{
layerId = m01;
shapes = (
{
closed = 1;
nodes = (
(709,-10,o),
(786,41,o),
(815,138,c),
(728,138,l),
(706,88,o),
(656,60,o),
(598,60,cs),
(516,60,o),
(465,118,o),
(458,224,c),
(821,224,l),
(821,262,ls),
(821,444,o),
(720,510,o),
(603,510,cs),
(498,510,o),
(453,457,o),
(422,404,c),
(396,460,o),
(346,508,o),
(253,508,cs),
(160,508,o),
(57,460,o),
(56,348,c),
(137,348,l),
(137,393,o),
(178,438,o),
(248,438,cs),
(317,438,o),
(370,395,o),
(370,329,cs),
(370,288,l),
(207,289,ls),
(112,290,o),
(38,232,o),
(38,144,cs),
(38,49,o),
(118,-10,o),
(210,-10,cs),
(298,-10,o),
(374,43,o),
(403,100,c),
(438,29,o),
(504,-10,o),
(600,-10,cs)
);
},
{
closed = 1;
nodes = (
(127,197,o),
(164,222,o),
(231,222,cs),
(370,222,l),
(370,173,ls),
(370,102,o),
(292,60,o),
(224,60,cs),
(163,60,o),
(127,94,o),
(127,145,cs)
);
},
{
closed = 1;
nodes = (
(470,384,o),
(518,440,o),
(598,440,cs),
(677,440,o),
(734,386,o),
(734,292,c),
(459,292,l)
);
}
);
width = 846;
}
);
metricLeft = a;
metricRight = e;
unicode = 230;
userData = {
KernOnName = ae;
};
},
{
glyphname = b;
lastChange = "2022-01-20 22:45:36 +0000";
layers = (
{
anchors = (
{
name = bottom;
pos = (298,0);
},
{
name = center;
pos = (272,250);
},
{
name = top;
pos = (281,700);
}
);
layerId = m01;
shapes = (
{
closed = 1;
nodes = (
(50,700,l),
(132,700,l),
(132,180,l),
(128,175,l),
(128,0,l),
(50,0,l)
);
},
{
closed = 1;
nodes = (
(192,440,o),
(135,372,o),
(135,250,cs),
(135,134,o),
(189,60,o),
(281,60,cs),
(371,60,o),
(426,128,o),
(426,250,cs),
(426,366,o),
(374,440,o),
(281,440,cs)
);
},
{
closed = 1;
nodes = (
(420,510,o),
(512,420,o),
(512,252,cs),
(512,88,o),
(424,-10,o),
(299,-10,cs),
(122,-10,o),
(82,184,o),
(82,251,cs),
(82,318,o),
(121,510,o),
(298,510,cs)
);
}
);
width = 543;
}
);
metricLeft = p;
metricRight = p;
unicode = 98;
userData = {
KernOnName = b;
};
},
{
glyphname = c;
lastChange = "2022-01-20 20:42:22 +0000";
layers = (
{
anchors = (
{
name = bottom;
pos = (256,0);
},
{
name = top;
pos = (256,510);
}
);
layerId = m01;
shapes = (
{
closed = 1;
nodes = (
(380,152,l),
(366,99,o),
(318,60,o),
(255,60,cs),
(162,60,o),
(117,135,o),
(117,250,cs),
(117,365,o),
(162,440,o),
(255,440,cs),
(319,440,o),
(366,401,o),
(380,348,c),
(468,348,l),
(448,456,o),
(368,510,o),
(256,510,cs),
(109,510,o),
(31,415,o),
(31,250,cs),
(31,85,o),
(109,-10,o),
(256,-10,cs),
(368,-10,o),
(447,44,o),
(467,152,c)
);
}
);
width = 493;
}
);
metricLeft = o;
unicode = 99;
userData = {
KernOnName = c;
};
},
{
glyphname = d;
lastChange = "2022-01-20 22:45:32 +0000";
layers = (
{
anchors = (
{
name = bottom;
pos = (272,0);
},
{
name = center;
pos = (272,250);
},
{
name = top;
pos = (272,700);
},
{
name = topright;
pos = (324,700);
}
);
layerId = m01;
shapes = (
{
closed = 1;
nodes = (
(415,0,l),
(415,175,l),
(411,180,l),
(411,700,l),
(493,700,l),
(493,0,l)
);
},
{
closed = 1;
nodes = (
(169,440,o),
(117,366,o),
(117,250,cs),
(117,128,o),
(172,60,o),
(262,60,cs),
(354,60,o),
(408,134,o),
(408,250,cs),
(408,372,o),
(351,440,o),
(262,440,cs)
);
},
{
closed = 1;
nodes = (
(422,510,o),
(461,318,o),
(461,251,cs),
(461,184,o),
(421,-10,o),
(244,-10,cs),
(119,-10,o),
(31,88,o),
(31,252,cs),
(31,420,o),
(123,510,o),
(245,510,cs)
);
}
);
width = 543;
}
);
metricLeft = q;
metricRight = q;
unicode = 100;
userData = {
KernOnName = d;
};
},
{
glyphname = eth;
lastChange = "2022-01-20 22:45:32 +0000";
layers = (
{
layerId = m01;
shapes = (
{
closed = 1;
nodes = (
(353,368,o),
(404,320,o),
(404,221,cs),
(404,123,o),
(353,62,o),
(263,62,cs),
(172,62,o),
(118,125,o),
(118,221,cs),
(118,318,o),
(172,368,o),
(263,368,cs)
);
},
{
closed = 1;
nodes = (
(31,87,o),
(114,-11,o),
(258,-11,cs),
(412,-11,o),
(506,101,o),
(506,291,cs),
(506,510,o),
(371,633,o),
(238,700,c),
(116,700,l),
(244,645,o),
(402,524,o),
(412,353,c),
(387,408,o),
(345,441,o),
(259,441,cs),
(111,441,o),
(31,345,o),
(31,217,cs)
);
},
{
closed = 1;
nodes = (
(167,511,l),
(472,607,l),
(472,675,l),
(167,578,l)
);
}
);
width = 542;
}
);
metricLeft = d;
metricRight = O;
unicode = 240;
userData = {
KernOnName = eth;
};
},
{
glyphname = dcroat;
lastChange = "2022-01-20 22:45:31 +0000";
layers = (
{
layerId = m01;
shapes = (
{
ref = d;
},
{
closed = 1;
nodes = (
(319,613,l),
(584,613,l),
(584,549,l),
(319,549,l)
);
}
);
width = 604;
}
);
metricLeft = d;
unicode = 273;
userData = {
KernOnName = dcroat;
};
},
{
glyphname = e;
lastChange = "2022-01-20 20:42:22 +0000";
layers = (
{
anchors = (
{
name = bottom;
pos = (259,0);
},
{
name = ogonek;
pos = (387,67);
},
{
name = top;
pos = (257,510);
}
);
layerId = m01;
shapes = (
{
closed = 1;
nodes = (
(81,224,l),
(480,224,l),
(480,262,l),
(446,292,l),
(81,292,l)
);
},
{
closed = 1;
nodes = (
(480,262,l),
(480,444,o),
(380,510,o),
(257,510,cs),
(112,510,o),
(31,420,o),
(31,252,cs),
(31,88,o),
(108,-10,o),
(259,-10,cs),
(368,-10,o),
(445,41,o),
(474,138,c),
(387,138,l),
(365,88,o),
(315,60,o),
(257,60,cs),
(168,60,o),
(116,128,o),
(116,250,cs),
(116,366,o),
(165,440,o),
(257,440,cs),
(336,440,o),
(393,386,o),
(393,292,c)
);
}
);
width = 505;
}
);
metricLeft = o;
unicode = 101;
userData = {
KernOnName = e;
};
},
{
glyphname = schwa;
lastChange = "2022-01-20 22:45:26 +0000";
layers = (
{
layerId = m01;
shapes = (
{
closed = 1;
nodes = (
(424,276,l),
(25,276,l),
(25,238,l),
(59,208,l),
(424,208,l)
);
},
{
closed = 1;
nodes = (
(25,238,l),
(25,56,o),
(125,-10,o),
(248,-10,cs),
(393,-10,o),
(474,80,o),
(474,248,cs),
(474,412,o),
(397,510,o),
(246,510,cs),
(137,510,o),
(60,459,o),
(31,362,c),
(118,362,l),
(140,412,o),
(190,440,o),
(248,440,cs),
(337,440,o),
(389,372,o),
(389,250,cs),
(389,134,o),
(340,60,o),
(248,60,cs),
(169,60,o),
(112,114,o),
(112,208,c)
);
}
);
width = 505;
}
);
metricLeft = "=|e";
metricRight = "=|e";
unicode = 601;
userData = {
KernOnName = schwa;
};
},
{
glyphname = f;
lastChange = "2022-01-20 20:42:22 +0000";
layers = (
{
anchors = (
{
name = bottom;
pos = (172,0);
},
{
name = top;
pos = (236,712);
}
);
layerId = m01;
shapes = (
{
closed = 1;
nodes = (
(30,432,l),
(288,432,l),
(288,500,l),
(30,500,l)
);
},
{
closed = 1;
nodes = (
(246,723,o),
(96,722,o),
(96,571,cs),
(96,0,l),
(178,0,l),
(178,561,ls),
(178,644,o),
(239,653,o),
(296,634,c),
(296,698,l)
);
}
);
width = 309;
}
);
unicode = 102;
userData = {
KernOnName = f;
};
},
{
glyphname = g;
lastChange = "2022-01-20 22:45:25 +0000";
layers = (
{
anchors = (
{
name = bottom;
pos = (266,-190);
},
{
name = top;
pos = (272,504);
}
);
layerId = m01;
shapes = (
{
closed = 1;
nodes = (
(136,-53,l),
(148,-100,o),
(203,-130,o),
(267,-130,cs),
(354,-130,o),
(411,-74,o),
(411,9,cs),
(411,379,l),
(415,386,l),
(415,500,l),
(494,500,l),
(494,-1,ls),
(494,-120,o),
(392,-200,o),
(266,-200,cs),
(169,-200,o),
(68,-153,o),
(54,-53,c)
);
},
{
closed = 1;
nodes = (
(351,60,o),
(408,128,o),
(408,250,cs),
(408,366,o),
(354,440,o),
(262,440,cs),
(172,440,o),
(117,372,o),
(117,250,cs),
(117,134,o),
(169,60,o),
(262,60,cs)
);
},
{
closed = 1;
nodes = (
(123,-10,o),
(31,80,o),
(31,248,cs),
(31,412,o),
(119,510,o),
(244,510,cs),
(421,510,o),
(461,316,o),
(461,249,cs),
(461,182,o),
(422,-10,o),
(245,-10,cs)
);
}
);
width = 544;
}
);
metricLeft = o;
metricRight = n;
unicode = 103;
userData = {
KernOnName = g;
};
},
{
glyphname = h;
lastChange = "2022-01-20 20:42:22 +0000";
layers = (
{
anchors = (
{
name = bottom;
pos = (256,0);
},
{
name = center;
pos = (256,350);
},
{
name = top;
pos = (256,700);
}
);
layerId = m01;
shapes = (
{
closed = 1;
nodes = (
(50,0,l),
(132,0,l),
(132,700,l),
(50,700,l)
);
},
{
closed = 1;
nodes = (
(132,386,o),
(195,439,o),
(268,439,cs),
(342,439,o),
(379,385,o),
(379,311,cs),
(379,0,l),
(462,0,l),
(462,337,ls),
(462,453,o),
(374,510,o),
(281,510,cs),
(192,510,o),
(144,458,o),
(118,398,c),
(132,304,l)
);
}
);
width = 512;
}
);
metricLeft = n;
metricRight = n;
unicode = 104;
userData = {
KernOnName = h;
};
},
{
glyphname = hbar;
lastChange = "2022-01-20 22:45:22 +0000";
layers = (
{
layerId = m01;
shapes = (
{
pos = (31,0);
ref = h;
},
{
closed = 1;
nodes = (
(285,559,l),
(285,623,l),
(20,623,l),
(20,559,l)
);
}
);
width = 543;
}
);
metricRight = h;
unicode = 295;
userData = {
KernOnName = hbar;
};
},
{
glyphname = i;
lastChange = "2022-01-20 21:18:08 +0000";
layers = (
{
anchors = (
{
name = bottom;
pos = (99,0);
}
);
layerId = m01;
shapes = (
{
ref = idotless;
},
{
closed = 1;
nodes = (
(124,573,o),
(140,588,o),
(140,622,cs),
(140,655,o),
(125,671,o),
(91,671,cs),
(58,671,o),
(42,656,o),
(42,622,cs),
(42,589,o),
(57,573,o),
(91,573,cs)
);
}
);
width = 182;
}
);
unicode = 105;
userData = {
KernOnName = i;
};
},
{
glyphname = idotless;
lastChange = "2022-01-20 21:15:16 +0000";
layers = (
{
anchors = (
{
name = bottom;
pos = (91,0);
},
{
name = ogonek;
pos = (112,32);
},
{
name = top;
pos = (91,500);
}
);
layerId = m01;
shapes = (
{
closed = 1;
nodes = (
(50,0,l),
(132,0,l),
(132,500,l),
(50,500,l)
);
}
);
width = 182;
}
);
metricLeft = n;
metricRight = n;
unicode = 305;
userData = {
KernOnName = idotless;
};
},
{
glyphname = j;
lastChange = "2022-01-20 22:45:16 +0000";
layers = (
{
layerId = m01;
shapes = (
{
closed = 1;
nodes = (
(41,593,o),
(56,577,o),
(90,577,cs),
(123,577,o),
(139,592,o),
(139,626,cs),
(139,659,o),
(124,675,o),
(90,675,cs),
(57,675,o),
(41,660,o),
(41,626,cs)
);
},
{
ref = jdotless;
}
);
width = 181;
}
);
unicode = 106;
userData = {
KernOnName = j;
};
},
{
glyphname = jdotless;
lastChange = "2022-01-20 22:45:15 +0000";
layers = (
{
anchors = (
{
name = bottom;
pos = (87,-200);
},
{
name = top;
pos = (90,500);
}
);
layerId = m01;
shapes = (
{
closed = 1;
nodes = (
(-31,-122,l),
(-31,-192,l),
(-25,-192,ls),
(98,-192,o),
(131,-142,o),
(131,-31,cs),
(131,500,l),
(49,500,l),
(49,-21,ls),
(49,-93,o),
(31,-122,o),
(-25,-122,cs)
);
}
);
width = 173;
}
);
metricLeft = j;
metricRight = j;
unicode = 567;
userData = {
KernOnName = jdotless;
};
},
{
glyphname = k;
lastChange = "2022-01-20 20:42:22 +0000";
layers = (
{
anchors = (
{
name = bottom;
pos = (255,0);
},
{
name = top;
pos = (258,700);
}
);
layerId = m01;
shapes = (
{
closed = 1;
nodes = (
(50,0,l),
(132,0,l),
(132,700,l),
(50,700,l)
);
},
{
closed = 1;
nodes = (
(115,242,l),
(115,135,l),
(466,500,l),
(368,500,l)
);
},
{
closed = 1;
nodes = (
(388,0,l),
(486,0,l),
(259,327,l),
(191,274,l)
);
}
);
width = 510;
}
);
metricLeft = n;
metricRight = x;
unicode = 107;
userData = {
KernOnName = k;
};
},
{
glyphname = l;
lastChange = "2022-01-20 20:42:22 +0000";
layers = (
{
anchors = (
{
name = bottom;
pos = (91,0);
},
{
name = center;
pos = (91,350);
},
{
name = top;
pos = (91,700);
},
{
name = topright;
pos = (-27,700);
}
);
layerId = m01;
shapes = (
{
closed = 1;
nodes = (
(50,0,l),
(132,0,l),
(132,700,l),
(50,700,l)
);
}
);
width = 182;
}
);
metricLeft = n;
metricRight = n;
unicode = 108;
userData = {
KernOnName = l;
};
},
{
glyphname = lslash;
lastChange = "2022-01-20 22:45:11 +0000";
layers = (
{
layerId = m01;
shapes = (
{
pos = (57,0);
ref = l;
},
{
closed = 1;
nodes = (
(276,395,l),
(276,462,l),
(20,366,l),
(20,299,l)
);
}
);
width = 296;
}
);
unicode = 322;
userData = {
KernOnName = lslash;
};
},
{
glyphname = m;
lastChange = "2022-01-20 22:45:11 +0000";
layers = (
{
anchors = (
{
name = bottom;
pos = (401,6);
},
{
name = top;
pos = (404,500);
}
);
layerId = m01;
shapes = (
{
closed = 1;
nodes = (
(50,0,l),
(132,0,l),
(132,500,l),
(50,500,l)
);
},
{
closed = 1;
nodes = (
(132,386,o),
(175,439,o),
(248,439,cs),
(322,439,o),
(359,385,o),
(359,311,cs),
(359,0,l),
(442,0,l),
(442,337,ls),
(442,453,o),
(352,510,o),
(267,510,cs),
(187,510,o),
(141,457,o),
(118,398,c),
(132,304,l)
);
},
{
closed = 1;
nodes = (
(442,386,o),
(485,439,o),
(558,439,cs),
(632,439,o),
(669,385,o),
(669,311,cs),
(669,0,l),
(752,0,l),
(752,337,ls),
(752,453,o),
(662,510,o),
(577,510,cs),
(497,510,o),
(452,457,o),
(428,398,c),
(442,304,l)
);
}
);
width = 802;
}
);
metricLeft = n;
metricRight = n;
unicode = 109;
userData = {
KernOnName = m;
};
},
{
glyphname = n;
lastChange = "2022-01-20 20:42:22 +0000";
layers = (
{
anchors = (
{
name = bottom;
pos = (256,0);
},
{
name = top;
pos = (256,505);
}
);
layerId = m01;
shapes = (
{
closed = 1;
nodes = (
(50,0,l),
(132,0,l),
(132,500,l),
(50,500,l)
);
},
{
closed = 1;
nodes = (
(132,386,o),
(195,439,o),
(268,439,cs),
(342,439,o),
(379,385,o),
(379,311,cs),
(379,0,l),
(462,0,l),
(462,337,ls),
(462,453,o),
(374,510,o),
(281,510,cs),
(192,510,o),
(144,458,o),
(118,398,c),
(132,304,l)
);
}
);
width = 512;
}
);
unicode = 110;
userData = {
KernOnName = n;
};
},
{
glyphname = o;
kernLeft = o;
lastChange = "2022-01-21 01:48:12 +0000";
layers = (
{
anchors = (
{
name = bottom;
pos = (263,0);
},
{
name = center;
pos = (263,250);
},
{
name = ogonek;
pos = (395,70);
},
{
name = top;
pos = (263,510);
},
{
name = topright;
pos = (506,500);
}
);
layerId = m01;
shapes = (
{
closed = 1;
nodes = (
(173,60,o),
(116,128,o),
(116,250,cs),
(116,366,o),
(170,440,o),
(262,440,cs),
(352,440,o),
(409,372,o),
(409,250,cs),
(409,134,o),
(355,60,o),
(262,60,cs)
);
},
{
closed = 1;
nodes = (
(409,-10,o),
(495,80,o),
(495,248,cs),
(495,412,o),
(413,510,o),
(262,510,cs),
(117,510,o),
(31,420,o),
(31,252,cs),
(31,88,o),
(113,-10,o),
(264,-10,cs)
);
}
);
width = 526;
}
);
unicode = 111;
userData = {
KernOnName = o;
};
},
{
glyphname = oslash;
lastChange = "2022-01-20 22:45:01 +0000";
layers = (
{
layerId = m01;
shapes = (
{
ref = o;
},
{
closed = 1;
nodes = (
(16,-3,l),
(72,-48,l),
(510,503,l),
(454,548,l)
);
}
);
width = 526;
}
);
unicode = 248;
userData = {
KernOnName = oslash;
};
},
{
glyphname = oe;
lastChange = "2022-01-20 22:45:00 +0000";
layers = (
{
layerId = m01;
shapes = (
{
closed = 1;
nodes = (
(173,60,o),
(116,128,o),
(116,250,cs),
(116,366,o),
(170,440,o),
(262,440,cs),
(352,440,o),
(409,372,o),
(409,250,cs),
(409,134,o),
(355,60,o),
(262,60,cs)
);
},
{
closed = 1;
nodes = (
(409,-10,o),
(495,80,o),
(495,248,cs),
(495,412,o),
(413,510,o),
(262,510,cs),
(117,510,o),
(31,420,o),
(31,252,cs),
(31,88,o),
(113,-10,o),
(264,-10,cs)
);
},
{
closed = 1;
nodes = (
(460,224,l),
(859,224,l),
(859,262,l),
(825,292,l),
(460,292,l)
);
},
{
closed = 1;
nodes = (
(859,262,l),
(859,444,o),
(759,510,o),
(636,510,cs),
(491,510,o),
(410,420,o),
(410,252,cs),
(410,88,o),
(487,-10,o),
(638,-10,cs),
(747,-10,o),
(824,41,o),
(853,138,c),
(766,138,l),
(744,88,o),
(694,60,o),
(636,60,cs),
(547,60,o),
(495,128,o),
(495,250,cs),
(495,366,o),
(544,440,o),
(636,440,cs),
(715,440,o),
(772,386,o),
(772,292,c)
);
}
);
width = 884;
}
);
metricLeft = o;
metricRight = e;
unicode = 339;
userData = {
KernOnName = oe;
};
},
{
glyphname = p;
lastChange = "2022-01-20 22:45:00 +0000";
layers = (
{
anchors = (
{
name = bottom;
pos = (280,0);
},
{
name = top;
pos = (281,500);
}
);
layerId = m01;
shapes = (
{
closed = 1;
nodes = (
(128,500,l),
(128,325,l),
(132,320,l),
(132,-200,l),
(50,-200,l),
(50,500,l)
);
},
{
closed = 1;
nodes = (
(374,60,o),
(426,134,o),
(426,250,cs),
(426,372,o),
(371,440,o),
(281,440,cs),
(189,440,o),
(135,366,o),
(135,250,cs),
(135,128,o),
(192,60,o),
(281,60,cs)
);
},
{
closed = 1;
nodes = (
(121,-10,o),
(82,182,o),
(82,249,cs),
(82,316,o),
(122,510,o),
(299,510,cs),
(424,510,o),
(512,412,o),
(512,248,cs),
(512,80,o),
(420,-10,o),
(298,-10,cs)
);
}
);
width = 543;
}
);
metricLeft = n;
metricRight = o;
unicode = 112;
userData = {
KernOnName = p;
};
},
{
glyphname = thorn;
lastChange = "2022-01-20 22:44:59 +0000";
layers = (
{
layerId = m01;
shapes = (
{
closed = 1;
nodes = (
(132,700,l),
(132,-200,l),
(50,-200,l),
(50,700,l)
);
},
{
closed = 1;
nodes = (
(374,60,o),
(426,134,o),
(426,250,cs),
(426,372,o),
(371,440,o),
(281,440,cs),
(189,440,o),
(135,366,o),
(135,250,cs),
(135,128,o),
(192,60,o),
(281,60,cs)
);
},
{
closed = 1;
nodes = (
(121,-10,o),
(82,182,o),
(82,249,cs),
(82,316,o),
(122,510,o),
(299,510,cs),
(424,510,o),
(512,412,o),
(512,248,cs),
(512,80,o),
(420,-10,o),
(298,-10,cs)
);
}
);
width = 543;
}
);
metricLeft = b;
metricRight = b;
unicode = 254;
userData = {
KernOnName = thorn;
};
},
{
glyphname = q;
lastChange = "2022-01-20 22:44:58 +0000";
layers = (
{
anchors = (
{
name = bottom;
pos = (262,0);
},
{
name = top;
pos = (262,500);
}
);
layerId = m01;
shapes = (
{
closed = 1;
nodes = (
(493,-200,l),
(411,-200,l),
(411,320,l),
(415,325,l),
(415,500,l),
(493,500,l)
);
},
{
closed = 1;
nodes = (
(351,60,o),
(408,128,o),
(408,250,cs),
(408,366,o),
(354,440,o),
(262,440,cs),
(172,440,o),
(117,372,o),
(117,250,cs),
(117,134,o),
(169,60,o),
(262,60,cs)
);
},
{
closed = 1;
nodes = (
(123,-10,o),
(31,80,o),
(31,248,cs),
(31,412,o),
(119,510,o),
(244,510,cs),
(421,510,o),
(461,316,o),
(461,249,cs),
(461,182,o),
(422,-10,o),
(245,-10,cs)
);
}
);
width = 543;
}
);
metricLeft = o;
metricRight = n;
unicode = 113;
userData = {
KernOnName = q;
};
},
{
glyphname = r;
lastChange = "2022-01-20 20:46:10 +0000";
layers = (
{
anchors = (
{
name = bottom;
pos = (84,0);
},
{
name = top;
pos = (169,500);
}
);
layerId = m01;
shapes = (
{
closed = 1;
nodes = (
(50,0,l),
(132,0,l),
(132,500,l),
(50,500,l)
);
},
{
closed = 1;
nodes = (
(292,509,l),
(216,520,o),
(155,484,o),
(118,398,c),
(132,299,l),
(132,381,o),
(185,449,o),
(292,430,c)
);
}
);
width = 317;
}
);
metricLeft = n;
unicode = 114;
userData = {
KernOnName = r;
};
},
{
glyphname = s;
lastChange = "2022-01-20 20:42:22 +0000";
layers = (
{
anchors = (
{
name = bottom;
pos = (224,0);
},
{
name = top;
pos = (221,510);
}
);
layerId = m01;
shapes = (
{
closed = 1;
nodes = (
(25,55,o),
(98,-9,o),
(227,-9,cs),
(336,-9,o),
(423,36,o),
(423,134,cs),
(423,315,o),
(126,244,o),
(126,378,cs),
(126,420,o),
(164,440,o),
(223,440,cs),
(284,440,o),
(328,417,o),
(328,364,c),
(414,364,l),
(414,461,o),
(335,510,o),
(221,510,cs),
(108,510,o),
(40,462,o),
(40,372,cs),
(40,184,o),
(337,258,o),
(337,129,cs),
(337,81,o),
(295,61,o),
(229,61,cs),
(143,61,o),
(111,97,o),
(111,151,c),
(25,151,l)
);
}
);
width = 448;
}
);
unicode = 115;
userData = {
KernOnName = s;
};
},
{
glyphname = germandbls;
lastChange = "2022-01-21 00:36:49 +0000";
layers = (
{
layerId = m01;
shapes = (
{
closed = 1;
nodes = (
(264,0,ls),
(421,0,o),
(495,106,o),
(495,198,cs),
(495,287,o),
(425,357,o),
(349,372,c),
(419,385,o),
(455,448,o),
(455,519,cs),
(455,611,o),
(394,710,o),
(250,710,cs),
(103,710,o),
(50,606,o),
(50,525,cs),
(50,2,l),
(132,2,l),
(132,525,ls),
(132,582,o),
(165,640,o),
(248,640,cs),
(340,640,o),
(369,569,o),
(369,514,cs),
(369,452,o),
(331,410,o),
(243,410,c),
(243,340,l),
(346,340,o),
(409,272,o),
(409,196,cs),
(409,139,o),
(374,70,o),
(264,70,cs),
(203,70,l),
(203,0,l)
);
}
);
width = 515;
}
);
metricLeft = n;
unicode = 223;
userData = {
KernOnName = germandbls;
};
},
{
glyphname = longs;
lastChange = "2022-01-20 22:44:43 +0000";
layers = (
{
layerId = m01;
shapes = (
{
closed = 1;
nodes = (
(234,709,o),
(212,712,o),
(190,712,cs),
(90,712,o),
(50,652,o),
(50,571,cs),
(50,0,l),
(132,0,l),
(132,561,ls),
(132,609,o),
(151,642,o),
(204,642,cs),
(220,642,o),
(235,639,o),
(250,634,c),
(250,701,l)
);
}
);
width = 263;
}
);
metricLeft = l;
metricRight = f;
unicode = 383;
userData = {
KernOnName = longs;
};
},
{
glyphname = t;
lastChange = "2022-01-20 20:42:22 +0000";
layers = (
{
anchors = (
{
name = bottom;
pos = (177,0);
},
{
name = center;
pos = (177,250);
},
{
name = top;
pos = (177,500);
},
{
name = topright;
pos = (113,700);
}
);
layerId = m01;
shapes = (
{
closed = 1;
nodes = (
(296,64,l),
(244,54,o),
(178,51,o),
(178,141,cs),
(178,612,l),
(96,612,l),
(96,131,ls),
(96,-22,o),
(251,-20,o),
(296,-3,c)
);
},
{
closed = 1;
nodes = (
(288,432,l),
(288,500,l),
(30,500,l),
(30,432,l)
);
}
);
width = 319;
}
);
metricLeft = f;
metricRight = "=f+10";
unicode = 116;
userData = {
KernOnName = t;
};
},
{
glyphname = u;
lastChange = "2022-01-20 20:42:22 +0000";
layers = (
{
anchors = (
{
name = bottom;
pos = (256,0);
},
{
name = ogonek;
pos = (442,32);
},
{
name = top;
pos = (256,500);
},
{
name = topright;
pos = (467,500);
}
);
layerId = m01;
shapes = (
{
closed = 1;
nodes = (
(462,500,l),
(380,500,l),
(380,0,l),
(462,0,l)
);
},
{
closed = 1;
nodes = (
(380,114,o),
(317,61,o),
(244,61,cs),
(170,61,o),
(133,115,o),
(133,189,cs),
(133,500,l),
(50,500,l),
(50,163,ls),
(50,47,o),
(138,-10,o),
(231,-10,cs),
(320,-10,o),
(368,42,o),
(394,102,c),
(380,196,l)
);
}
);
width = 512;
}
);
metricLeft = n;
metricRight = n;
unicode = 117;
userData = {
KernOnName = u;
};
},
{
glyphname = v;
lastChange = "2022-01-20 20:42:22 +0000";
layers = (
{
anchors = (
{
name = bottom;
pos = (261,0);
},
{
name = top;
pos = (261,500);
}
);
layerId = m01;
shapes = (
{
closed = 1;
nodes = (
(208,0,l),
(290,0,l),
(113,500,l),
(24,500,l)
);
},
{
closed = 1;
nodes = (
(413,500,l),
(236,0,l),
(313,0,l),
(497,500,l)
);
}
);
width = 521;
}
);
metricLeft = x;
metricRight = x;
unicode = 118;
userData = {
KernOnName = v;
};
},
{
glyphname = w;
lastChange = "2022-01-20 22:44:29 +0000";
layers = (
{
anchors = (
{
name = bottom;
pos = (380,0);
},
{
name = top;
pos = (382,500);
}
);
background = {
shapes = (
{
closed = 1;
nodes = (
(582,0,l),
(423,500,l),
(348,500,l),
(505,0,l)
);
},
{
closed = 1;
nodes = (
(259,0,l),
(115,500,l),
(26,500,l),
(181,0,l)
);
},
{
closed = 1;
nodes = (
(266,0,l),
(423,500,l),
(348,500,l),
(189,0,l)
);
},
{
closed = 1;
nodes = (
(590,0,l),
(745,500,l),
(656,500,l),
(512,0,l)
);
},
{
closed = 1;
nodes = (
(582,0,l),
(423,500,l),
(348,500,l),
(505,0,l)
);
},
{
closed = 1;
nodes = (
(259,0,l),
(115,500,l),
(26,500,l),
(181,0,l)
);
},
{
closed = 1;
nodes = (
(266,0,l),
(423,500,l),
(348,500,l),
(189,0,l)
);
},
{
closed = 1;
nodes = (
(590,0,l),
(745,500,l),
(656,500,l),
(512,0,l)
);
}
);
};
layerId = m01;
shapes = (
{
closed = 1;
nodes = (
(275,0,l),
(381,423,l),
(493,0,l),
(597,0,l),
(736,500,l),
(656,500,l),
(544,83,l),
(435,500,l),
(334,500,l),
(222,83,l),
(113,500,l),
(24,500,l),
(171,0,l)
);
}
);
width = 760;
}
);
metricLeft = v;
metricRight = v;
unicode = 119;
userData = {
KernOnName = w;
};
},
{
glyphname = x;
lastChange = "2022-01-20 20:42:22 +0000";
layers = (
{
anchors = (
{
name = bottom;
pos = (249,0);
},
{
name = top;
pos = (249,500);
}
);
layerId = m01;
shapes = (
{
closed = 1;
nodes = (
(384,0,l),
(473,0,l),
(113,500,l),
(24,500,l)
);
},
{
closed = 1;
nodes = (
(279,222,l),
(473,500,l),
(390,500,l),
(240,287,l)
);
},
{
closed = 1;
nodes = (
(219,279,l),
(24,0,l),
(107,0,l),
(258,214,l)
);
}
);
width = 497;
}
);
unicode = 120;
userData = {
KernOnName = x;
};
},
{
glyphname = y;
lastChange = "2022-01-20 22:44:27 +0000";
layers = (
{
anchors = (
{
name = bottom;
pos = (251,0);
},
{
name = top;
pos = (257,500);
}
);
layerId = m01;
shapes = (
{
closed = 1;
nodes = (
(211,0,l),
(285,0,l),
(113,500,l),
(24,500,l)
);
},
{
closed = 1;
nodes = (
(393,500,l),
(216,0,l),
(293,0,l),
(477,500,l)
);
},
{
closed = 1;
nodes = (
(223,35,l),
(200,-30,ls),
(171,-113,o),
(115,-140,o),
(55,-124,c),
(55,-192,l),
(63,-195,o),
(92,-200,o),
(107,-200,cs),
(209,-200,o),
(248,-125,o),
(282,-30,cs),
(305,35,l)
);
}
);
width = 501;
}
);
metricLeft = v;
metricRight = v;
unicode = 121;
userData = {
KernOnName = y;
};
},
{
glyphname = z;
lastChange = "2022-01-20 20:42:22 +0000";
layers = (
{
anchors = (
{
name = bottom;
pos = (243,0);
},
{
name = center;
pos = (244,250);
},
{
name = top;
pos = (245,500);
}
);
layerId = m01;
shapes = (
{
closed = 1;
nodes = (
(355,440,l),
(35,59,l),
(124,59,l),
(445,440,l)
);
},
{
closed = 1;
nodes = (
(42,431,l),
(397,431,l),
(445,440,l),
(445,499,l),
(42,499,l)
);
},
{
closed = 1;
nodes = (
(35,0,l),
(452,0,l),
(452,68,l),
(73,68,l),
(35,59,l)
);
}
);
width = 487;
}
);
unicode = 122;
userData = {
KernOnName = z;
};
},
{
glyphname = g.double;
lastChange = "2022-01-21 01:47:03 +0000";
layers = (
{
anchors = (
{
name = bottom;
pos = (261,-192);
},
{
name = top;
pos = (261,506);
}
);
layerId = m01;
shapes = (
{
closed = 1;
nodes = (
(135,507,o),
(61,443,o),
(61,343,cs),
(61,243,o),
(135,179,o),
(250,179,cs),
(367,179,o),
(443,243,o),
(443,343,cs),
(443,443,o),
(367,507,o),
(250,507,cs)
);
},
{
closed = 1;
nodes = (
(322,440,o),
(363,405,o),
(363,343,cs),
(363,281,o),
(322,246,o),
(250,246,cs),
(181,246,o),
(141,281,o),
(141,343,cs),
(141,405,o),
(181,440,o),
(250,440,cs)
);
},
{
closed = 1;
nodes = (
(145,72,o),
(20,56,o),
(20,-50,cs),
(20,-146,o),
(122,-192,o),
(238,-192,cs),
(280,-192,ls),
(439,-192,o),
(511,-121,o),
(511,-40,cs),
(511,55,o),
(412,104,o),
(296,104,cs),
(215,104,ls),
(148,104,o),
(125,124,o),
(125,146,cs),
(125,171,o),
(155,195,o),
(192,195,c),
(202,224,l),
(133,224,o),
(57,201,o),
(57,128,cs),
(57,65,o),
(114,37,o),
(215,37,cs),
(296,37,ls),
(391,37,o),
(430,-3,o),
(430,-37,cs),
(430,-65,o),
(402,-124,o),
(280,-124,cs),
(238,-124,ls),
(136,-124,o),
(98,-87,o),
(98,-42,cs),
(98,2,o),
(135,55,o),
(226,55,c),
(226,72,l)
);
},
{
closed = 1;
nodes = (
(325,497,l),
(325,435,l),
(498,435,l),
(498,497,l)
);
}
);
width = 521;
}
);
userData = {
KernOnName = g.double;
};
},
{
glyphname = a.single;
kernLeft = o;
lastChange = "2022-01-21 01:53:28 +0000";
layers = (
{
layerId = m01;
shapes = (
{
closed = 1;
nodes = (
(411,0,l),
(411,500,l),
(493,500,l),
(493,0,l)
);
},
{
closed = 1;
nodes = (
(169,440,o),
(117,366,o),
(117,250,cs),
(117,128,o),
(172,60,o),
(262,60,cs),
(354,60,o),
(408,134,o),
(408,250,cs),
(408,372,o),
(351,440,o),
(262,440,cs)
);
},
{
closed = 1;
nodes = (
(422,510,o),
(461,318,o),
(461,251,cs),
(461,184,o),
(421,-10,o),
(244,-10,cs),
(119,-10,o),
(31,88,o),
(31,252,cs),
(31,420,o),
(123,510,o),
(245,510,cs)
);
}
);
width = 543;
}
);
metricLeft = d;
metricRight = d;
userData = {
KernOnName = a.single;
};
},
{
glyphname = "Be-cy";
lastChange = "2022-01-20 22:44:19 +0000";
layers = (
{
layerId = m01;
shapes = (
{
closed = 1;
nodes = (
(140,350,l),
(322,350,ls),
(406,350,o),
(462,290,o),
(462,214,cs),
(462,138,o),
(406,75,o),
(322,75,cs),
(140,75,l)
);
},
{
closed = 1;
nodes = (
(140,680,l),
(55,680,l),
(55,0,l),
(322,0,ls),
(465,0,o),
(552,95,o),
(552,214,cs),
(552,333,o),
(465,425,o),
(322,425,cs),
(140,425,l)
);
},
{
closed = 1;
nodes = (
(503,608,l),
(503,680,l),
(70,680,l),
(70,608,l)
);
}
);
width = 576;
}
);
metricLeft = N;
metricRight = B;
unicode = 1041;
userData = {
KernOnName = "Be-cy";
};
},
{
glyphname = "Ge-cy";
lastChange = "2022-01-20 22:44:19 +0000";
layers = (
{
layerId = m01;
shapes = (
{
closed = 1;
nodes = (
(484,608,l),
(484,680,l),
(63,680,l),
(63,608,l)
);
},
{
closed = 1;
nodes = (
(30,0,l),
(115,0,l),
(115,680,l),
(30,680,l)
);
}
);
width = 514;
}
);
metricLeft = T;
metricRight = T;
unicode = 1043;
userData = {
KernOnName = "Ge-cy";
};
},
{
glyphname = "De-cy";
lastChange = "2022-01-20 22:44:18 +0000";
layers = (
{
layerId = m01;
shapes = (
{
closed = 1;
nodes = (
(483,0,l),
(568,0,l),
(568,680,l),
(483,680,l)
);
},
{
closed = 1;
nodes = (
(535,608,l),
(535,680,l),
(206,680,l),
(206,608,l)
);
},
{
closed = 1;
nodes = (
(168,68,l),
(193,127,o),
(194,203,o),
(198,252,cs),
(237,680,l),
(155,680,l),
(118,252,ls),
(113,194,o),
(109,96,o),
(77,68,c)
);
},
{
closed = 1;
nodes = (
(623,0,l),
(623,72,l),
(19,72,l),
(19,0,l)
);
},
{
closed = 1;
nodes = (
(623,-115,l),
(623,62,l),
(547,62,l),
(547,-115,l)
);
},
{
closed = 1;
nodes = (
(95,-115,l),
(95,62,l),
(19,62,l),
(19,-115,l)
);
}
);
width = 653;
}
);
metricLeft = "El-cy";
unicode = 1044;
userData = {
KernOnName = "De-cy";
};
},
{
glyphname = "Zhe-cy";
lastChange = "2022-01-20 22:44:17 +0000";
layers = (
{
layerId = m01;
shapes = (
{
closed = 1;
nodes = (
(419,0,l),
(504,0,l),
(504,680,l),
(419,680,l)
);
},
{
closed = 1;
nodes = (
(527,349,l),
(622,349,l),
(899,678,l),
(797,678,l)
);
},
{
closed = 1;
nodes = (
(899,0,l),
(622,349,l),
(527,349,l),
(797,0,l)
);
},
{
closed = 1;
nodes = (
(593,313,l),
(593,385,l),
(330,385,l),
(330,313,l)
);
},
{
closed = 1;
nodes = (
(24,678,l),
(301,349,l),
(396,349,l),
(126,678,l)
);
},
{
closed = 1;
nodes = (
(396,349,l),
(301,349,l),
(24,0,l),
(126,0,l)
);
}
);
width = 910;
}
);
metricLeft = "=|k";
metricRight = K;
unicode = 1046;
userData = {
KernOnName = "Zhe-cy";
};
},
{
glyphname = "Ze-cy";
lastChange = "2022-01-20 22:44:17 +0000";
layers = (
{
layerId = m01;
shapes = (
{
closed = 1;
nodes = (
(206,320,l),
(279,320,ls),
(380,320,o),
(436,261,o),
(436,184,cs),
(436,105,o),
(377,63,o),
(281,63,cs),
(183,63,o),
(132,105,o),
(132,196,c),
(42,196,l),
(42,53,o),
(150,-10,o),
(281,-10,cs),
(408,-10,o),
(526,52,o),
(526,179,cs),
(526,270,o),
(468,334,o),
(377,361,c),
(453,385,o),
(500,436,o),
(500,513,cs),
(500,617,o),
(409,690,o),
(280,690,cs),
(145,690,o),
(54,618,o),
(54,516,c),
(144,516,l),
(144,580,o),
(197,617,o),
(280,617,cs),
(355,617,o),
(410,582,o),
(410,503,cs),
(410,392,o),
(302,392,o),
(279,392,cs),
(206,392,l)
);
}
);
width = 562;
}
);
metricRight = O;
unicode = 1047;
userData = {
KernOnName = "Ze-cy";
};
},
{
glyphname = "Ii-cy";
lastChange = "2022-01-20 22:44:16 +0000";
layers = (
{
anchors = (
{
name = bottomright;
pos = (631,0);
},
{
name = top;
pos = (326,680);
}
);
layerId = m01;
shapes = (
{
closed = 1;
nodes = (
(596,680,l),
(505,680,l),
(115,101,l),
(140,93,l),
(140,680,l),
(55,680,l),
(55,0,l),
(146,0,l),
(536,579,l),
(511,587,l),
(511,0,l),
(596,0,l)
);
}
);
width = 651;
}
);
metricLeft = N;
metricRight = N;
unicode = 1048;
userData = {
KernOnName = "Ii-cy";
};
},
{
glyphname = "Ka-cy";
lastChange = "2022-01-20 22:44:15 +0000";
layers = (
{
layerId = m01;
shapes = (
{
closed = 1;
nodes = (
(182,349,l),
(277,349,l),
(554,678,l),
(452,678,l)
);
},
{
closed = 1;
nodes = (
(50,0,l),
(135,0,l),
(135,680,l),
(50,680,l)
);
},
{
closed = 1;
nodes = (
(554,0,l),
(277,349,l),
(182,349,l),
(452,0,l)
);
},
{
closed = 1;
nodes = (
(248,313,l),
(248,385,l),
(70,385,l),
(70,313,l)
);
}
);
width = 565;
}
);
metricLeft = K;
metricRight = K;
unicode = 1050;
userData = {
KernOnName = "Ka-cy";
};
},
{
glyphname = "El-cy";
lastChange = "2022-01-20 22:44:14 +0000";
layers = (
{
layerId = m01;
shapes = (
{
closed = 1;
nodes = (
(492,0,l),
(577,0,l),
(577,680,l),
(492,680,l)
);
},
{
closed = 1;
nodes = (
(544,608,l),
(544,680,l),
(204,680,l),
(204,608,l)
);
},
{
closed = 1;
nodes = (
(19,-6,l),
(173,-51,o),
(206,89,o),
(217,252,cs),
(245,680,l),
(163,680,l),
(137,252,ls),
(131,147,o),
(118,33,o),
(19,66,c)
);
}
);
width = 632;
}
);
metricRight = I;
unicode = 1051;
userData = {
KernOnName = "El-cy";
};
},
{
glyphname = "Pe-cy";
lastChange = "2022-01-20 22:44:12 +0000";
layers = (
{
layerId = m01;
shapes = (
{
closed = 1;
nodes = (
(55,0,l),
(140,0,l),
(140,680,l),
(55,680,l)
);
},
{
closed = 1;
nodes = (
(512,0,l),
(597,0,l),
(597,680,l),
(512,680,l)
);
},
{
closed = 1;
nodes = (
(564,608,l),
(564,680,l),
(96,680,l),
(96,608,l)
);
}
);
width = 652;
}
);
metricLeft = H;
metricRight = H;
unicode = 1055;
userData = {
KernOnName = "Pe-cy";
};
},
{
glyphname = "U-cy";
lastChange = "2022-01-20 22:44:10 +0000";
layers = (
{
layerId = m01;
shapes = (
{
closed = 1;
nodes = (
(269,178,l),
(354,178,l),
(595,680,l),
(505,680,l),
(312,261,l),
(122,680,l),
(29,680,l)
);
},
{
closed = 1;
nodes = (
(289,220,l),
(251,141,ls),
(216,67,o),
(205,56,o),
(144,56,cs),
(136,56,o),
(121,58,o),
(110,61,c),
(110,-9,l),
(118,-12,o),
(148,-15,o),
(164,-15,cs),
(263,-15,o),
(298,61,o),
(336,141,cs),
(374,220,l)
);
}
);
width = 624;
}
);
metricLeft = Y;
metricRight = Y;
unicode = 1059;
userData = {
KernOnName = "U-cy";
};
},
{
glyphname = "Ef-cy";
lastChange = "2022-01-20 22:44:10 +0000";
layers = (
{
layerId = m01;
shapes = (
{
closed = 1;
nodes = (
(204,144,o),
(126,214,o),
(126,340,cs),
(126,466,o),
(204,536,o),
(362,536,cs),
(522,536,o),
(601,466,o),
(601,340,cs),
(601,214,o),
(522,144,o),
(362,144,cs)
);
},
{
closed = 1;
nodes = (
(574,68,o),
(691,165,o),
(691,340,cs),
(691,515,o),
(574,612,o),
(363,612,cs),
(153,612,o),
(36,515,o),
(36,340,cs),
(36,165,o),
(153,68,o),
(363,68,cs)
);
},
{
closed = 1;
nodes = (
(317,0,l),
(402,0,l),
(402,680,l),
(317,680,l)
);
}
);
width = 727;
}
);
metricLeft = O;
metricRight = O;
unicode = 1060;
userData = {
KernOnName = "Ef-cy";
};
},
{
glyphname = "Che-cy";
lastChange = "2022-01-20 22:44:09 +0000";
layers = (
{
layerId = m01;
shapes = (
{
closed = 1;
nodes = (
(600,680,l),
(515,680,l),
(515,0,l),
(600,0,l)
);
},
{
closed = 1;
nodes = (
(515,366,o),
(417,278,o),
(314,278,cs),
(210,278,o),
(141,367,o),
(141,441,cs),
(141,680,l),
(55,680,l),
(55,415,ls),
(55,299,o),
(165,202,o),
(301,202,cs),
(439,202,o),
(523,299,o),
(549,359,c),
(535,458,l)
);
}
);
width = 655;
}
);
metricLeft = I;
metricRight = I;
unicode = 1063;
userData = {
KernOnName = "Che-cy";
};
},
{
glyphname = "Tse-cy";
lastChange = "2022-01-20 22:44:08 +0000";
layers = (
{
layerId = m01;
shapes = (
{
closed = 1;
nodes = (
(140,0,l),
(140,680,l),
(55,680,l),
(55,0,l)
);
},
{
closed = 1;
nodes = (
(597,0,l),
(597,680,l),
(512,680,l),
(512,0,l)
);
},
{
closed = 1;
nodes = (
(96,0,l),
(710,0,l),
(710,72,l),
(96,72,l)
);
},
{
closed = 1;
nodes = (
(710,-115,l),
(710,62,l),
(634,62,l),
(634,-115,l)
);
}
);
width = 730;
}
);
metricLeft = H;
unicode = 1062;
userData = {
KernOnName = "Tse-cy";
};
},
{
glyphname = "Sha-cy";
lastChange = "2022-01-20 22:44:07 +0000";
layers = (
{
layerId = m01;
shapes = (
{
closed = 1;
nodes = (
(140,0,l),
(140,680,l),
(55,680,l),
(55,0,l)
);
},
{
closed = 1;
nodes = (
(96,0,l),
(770,0,l),
(770,72,l),
(96,72,l)
);
},
{
closed = 1;
nodes = (
(486,0,l),
(486,680,l),
(401,680,l),
(401,0,l)
);
},
{
closed = 1;
nodes = (
(833,0,l),
(833,680,l),
(748,680,l),
(748,0,l)
);
}
);
width = 888;
}
);
metricLeft = H;
metricRight = H;
unicode = 1064;
userData = {
KernOnName = "Sha-cy";
};
},
{
glyphname = "Shcha-cy";
lastChange = "2022-01-20 22:44:07 +0000";
layers = (
{
layerId = m01;
shapes = (
{
closed = 1;
nodes = (
(140,0,l),
(140,680,l),
(55,680,l),
(55,0,l)
);
},
{
closed = 1;
nodes = (
(96,0,l),
(946,0,l),
(946,72,l),
(96,72,l)
);
},
{
closed = 1;
nodes = (
(486,0,l),
(486,680,l),
(401,680,l),
(401,0,l)
);
},
{
closed = 1;
nodes = (
(833,0,l),
(833,680,l),
(748,680,l),
(748,0,l)
);
},
{
closed = 1;
nodes = (
(946,-160,l),
(946,62,l),
(870,62,l),
(870,-160,l)
);
}
);
width = 966;
}
);
metricLeft = "Tse-cy";
metricRight = "Tse-cy";
unicode = 1065;
userData = {
KernOnName = "Shcha-cy";
};
},
{
glyphname = "Softsign-cy";
lastChange = "2022-01-20 22:44:06 +0000";
layers = (
{
layerId = m01;
shapes = (
{
closed = 1;
nodes = (
(140,350,l),
(322,350,ls),
(406,350,o),
(462,290,o),
(462,214,cs),
(462,138,o),
(406,75,o),
(322,75,cs),
(140,75,l)
);
},
{
closed = 1;
nodes = (
(140,680,l),
(55,680,l),
(55,0,l),
(322,0,ls),
(465,0,o),
(552,95,o),
(552,214,cs),
(552,333,o),
(465,425,o),
(322,425,cs),
(140,425,l)
);
}
);
width = 576;
}
);
metricLeft = B;
metricRight = B;
unicode = 1068;
userData = {
KernOnName = "Softsign-cy";
};
},
{
glyphname = "Yeru-cy";
lastChange = "2022-01-20 22:44:06 +0000";
layers = (
{
layerId = m01;
shapes = (
{
closed = 1;
nodes = (
(140,350,l),
(322,350,ls),
(406,350,o),
(462,290,o),
(462,214,cs),
(462,138,o),
(406,75,o),
(322,75,cs),
(140,75,l)
);
},
{
closed = 1;
nodes = (
(140,680,l),
(55,680,l),
(55,0,l),
(322,0,ls),
(465,0,o),
(552,95,o),
(552,214,cs),
(552,333,o),
(465,425,o),
(322,425,cs),
(140,425,l)
);
},
{
pos = (580,0);
ref = I;
}
);
width = 775;
}
);
metricLeft = I;
metricRight = I;
unicode = 1067;
userData = {
KernOnName = "Yeru-cy";
};
},
{
glyphname = "Hardsign-cy";
lastChange = "2022-01-20 22:44:05 +0000";
layers = (
{
layerId = m01;
shapes = (
{
closed = 1;
nodes = (
(259,350,l),
(441,350,ls),
(525,350,o),
(581,290,o),
(581,214,cs),
(581,138,o),
(525,75,o),
(441,75,cs),
(259,75,l)
);
},
{
closed = 1;
nodes = (
(259,680,l),
(174,680,l),
(174,0,l),
(441,0,ls),
(584,0,o),
(671,95,o),
(671,214,cs),
(671,333,o),
(584,425,o),
(441,425,cs),
(259,425,l)
);
},
{
closed = 1;
nodes = (
(227,608,l),
(227,680,l),
(15,680,l),
(15,608,l)
);
}
);
width = 695;
}
);
metricRight = B;
unicode = 1066;
userData = {
KernOnName = "Hardsign-cy";
};
},
{
glyphname = "Ereversed-cy";
lastChange = "2022-01-20 22:44:05 +0000";
layers = (
{
layerId = m01;
shapes = (
{
alignment = -1;
pos = (666,0);
ref = C;
scale = (-1,1);
},
{
closed = 1;
nodes = (
(587,306,l),
(587,378,l),
(229,378,l),
(229,306,l)
);
}
);
width = 660;
}
);
unicode = 1069;
userData = {
KernOnName = "Ereversed-cy";
};
},
{
glyphname = "Yu-cy";
lastChange = "2022-01-20 22:44:04 +0000";
layers = (
{
layerId = m01;
shapes = (
{
closed = 1;
nodes = (
(55,0,l),
(140,0,l),
(140,680,l),
(55,680,l)
);
},
{
closed = 1;
nodes = (
(388,61,o),
(321,160,o),
(321,340,cs),
(321,520,o),
(388,619,o),
(532,619,cs),
(678,619,o),
(745,520,o),
(745,340,cs),
(745,160,o),
(678,61,o),
(532,61,cs)
);
},
{
closed = 1;
nodes = (
(733,-15,o),
(835,115,o),
(835,340,cs),
(835,565,o),
(733,695,o),
(533,695,cs),
(333,695,o),
(231,565,o),
(231,340,cs),
(231,115,o),
(333,-15,o),
(533,-15,cs)
);
},
{
closed = 1;
nodes = (
(294,304,l),
(294,376,l),
(90,376,l),
(90,304,l)
);
}
);
width = 871;
}
);
metricLeft = I;
metricRight = O;
unicode = 1070;
userData = {
KernOnName = "Yu-cy";
};
},
{
glyphname = "be-cy";
lastChange = "2022-01-20 22:44:03 +0000";
layers = (
{
layerId = m01;
shapes = (
{
closed = 1;
nodes = (
(362,421,o),
(410,349,o),
(410,251,cs),
(410,146,o),
(355,59,o),
(267,59,cs),
(174,59,o),
(122,154,o),
(122,249,cs),
(122,351,o),
(181,421,o),
(271,421,cs)
);
},
{
closed = 1;
nodes = (
(31,124,o),
(98,-11,o),
(261,-11,cs),
(415,-11,o),
(496,109,o),
(496,247,cs),
(496,377,o),
(424,491,o),
(271,491,cs),
(189,491,o),
(139,458,o),
(114,403,c),
(122,505,o),
(166,600,o),
(279,600,cs),
(359,600,o),
(393,611,o),
(457,630,c),
(457,700,l),
(393,681,o),
(354,670,o),
(279,670,cs),
(103,670,o),
(31,545,o),
(31,329,cs)
);
}
);
width = 527;
}
);
metricLeft = o;
metricRight = o;
unicode = 1073;
userData = {
KernOnName = "be-cy";
};
},
{
glyphname = "ve-cy";
lastChange = "2022-01-20 22:44:03 +0000";
layers = (
{
layerId = m01;
shapes = (
{
closed = 1;
nodes = (
(260,0,ls),
(369,0,o),
(429,58,o),
(429,136,cs),
(429,217,o),
(365,257,o),
(322,261,c),
(353,264,o),
(403,303,o),
(403,374,cs),
(403,457,o),
(337,500,o),
(241,500,cs),
(42,500,l),
(42,0,l)
);
},
{
closed = 1;
nodes = (
(124,225,l),
(260,225,ls),
(313,225,o),
(343,188,o),
(343,140,cs),
(343,101,o),
(322,68,o),
(260,68,cs),
(124,68,l)
);
},
{
closed = 1;
nodes = (
(124,432,l),
(241,432,ls),
(294,432,o),
(317,409,o),
(317,368,cs),
(317,325,o),
(292,288,o),
(241,288,cs),
(124,288,l)
);
}
);
width = 449;
}
);
metricLeft = i;
unicode = 1074;
userData = {
KernOnName = "ve-cy";
};
},
{
glyphname = "ge-cy";
lastChange = "2022-01-20 22:44:02 +0000";
layers = (
{
layerId = m01;
shapes = (
{
closed = 1;
nodes = (
(402,432,l),
(402,500,l),
(66,500,l),
(66,432,l)
);
},
{
closed = 1;
nodes = (
(42,0,l),
(124,0,l),
(124,500,l),
(42,500,l)
);
}
);
width = 427;
}
);
metricLeft = i;
unicode = 1075;
userData = {
KernOnName = "ge-cy";
};
},
{
glyphname = "de-cy";
lastChange = "2022-01-20 22:44:02 +0000";
layers = (
{
layerId = m01;
shapes = (
{
closed = 1;
nodes = (
(380,-1,l),
(462,-1,l),
(462,500,l),
(380,500,l)
);
},
{
closed = 1;
nodes = (
(438,432,l),
(438,500,l),
(161,500,l),
(161,432,l)
);
},
{
closed = 1;
nodes = (
(158,50,l),
(174,93,o),
(184,149,o),
(187,185,cs),
(210,500,l),
(130,500,l),
(108,185,ls),
(105,142,o),
(92,70,o),
(68,50,c)
);
},
{
closed = 1;
nodes = (
(503,0,l),
(503,67,l),
(42,67,l),
(42,0,l)
);
},
{
closed = 1;
nodes = (
(503,-115,l),
(503,45,l),
(421,45,l),
(421,-115,l)
);
},
{
closed = 1;
nodes = (
(124,-115,l),
(124,45,l),
(42,45,l),
(42,-115,l)
);
}
);
width = 545;
}
);
metricLeft = i;
metricRight = i;
unicode = 1076;
userData = {
KernOnName = "de-cy";
};
},
{
glyphname = "zhe-cy";
lastChange = "2022-01-20 22:44:00 +0000";
layers = (
{
layerId = m01;
shapes = (
{
closed = 1;
nodes = (
(338,0,l),
(419,0,l),
(419,500,l),
(338,500,l)
);
},
{
closed = 1;
nodes = (
(485,223,l),
(485,290,l),
(272,290,l),
(272,223,l)
);
},
{
closed = 1;
nodes = (
(24,499,l),
(217,257,l),
(310,257,l),
(122,499,l)
);
},
{
closed = 1;
nodes = (
(310,257,l),
(217,257,l),
(24,0,l),
(122,0,l)
);
},
{
closed = 1;
nodes = (
(447,257,l),
(540,257,l),
(733,499,l),
(635,499,l)
);
},
{
closed = 1;
nodes = (
(733,0,l),
(540,257,l),
(447,257,l),
(635,0,l)
);
}
);
width = 757;
}
);
metricLeft = x;
metricRight = x;
unicode = 1078;
userData = {
KernOnName = "zhe-cy";
};
},
{
glyphname = "ze-cy";
lastChange = "2022-01-20 22:44:00 +0000";
layers = (
{
layerId = m01;
shapes = (
{
closed = 1;
nodes = (
(173,226,l),
(217,226,ls),
(294,226,o),
(325,177,o),
(325,135,cs),
(325,89,o),
(289,60,o),
(222,60,cs),
(158,60,o),
(117,86,o),
(117,141,c),
(38,141,l),
(38,37,o),
(121,-10,o),
(219,-10,cs),
(313,-10,o),
(411,36,o),
(411,131,cs),
(411,198,o),
(358,240,o),
(298,259,c),
(346,278,o),
(392,321,o),
(392,378,cs),
(392,456,o),
(314,510,o),
(218,510,cs),
(122,510,o),
(46,457,o),
(46,368,c),
(123,368,l),
(123,409,o),
(157,440,o),
(218,440,cs),
(282,440,o),
(304,406,o),
(306,371,cs),
(310,309,o),
(244,286,o),
(217,286,cs),
(173,286,l)
);
}
);
width = 442;
}
);
metricRight = o;
unicode = 1079;
userData = {
KernOnName = "ze-cy";
};
},
{
glyphname = "ii-cy";
lastChange = "2022-01-20 22:43:59 +0000";
layers = (
{
anchors = (
{
name = top;
pos = (253,500);
}
);
layerId = m01;
shapes = (
{
closed = 1;
nodes = (
(469,500,l),
(382,500,l),
(91,74,l),
(124,68,l),
(124,500,l),
(42,500,l),
(42,0,l),
(129,0,l),
(420,426,l),
(387,432,l),
(387,0,l),
(469,0,l)
);
}
);
width = 511;
}
);
metricLeft = i;
metricRight = i;
unicode = 1080;
userData = {
KernOnName = "ii-cy";
};
},
{
glyphname = "ka-cy";
lastChange = "2022-01-20 22:43:58 +0000";
layers = (
{
layerId = m01;
shapes = (
{
closed = 1;
nodes = (
(50,0,l),
(131,0,l),
(131,500,l),
(50,500,l)
);
},
{
closed = 1;
nodes = (
(197,223,l),
(197,290,l),
(84,290,l),
(84,223,l)
);
},
{
closed = 1;
nodes = (
(159,257,l),
(252,257,l),
(445,499,l),
(347,499,l)
);
},
{
closed = 1;
nodes = (
(445,0,l),
(252,257,l),
(159,257,l),
(347,0,l)
);
}
);
width = 469;
}
);
metricLeft = k;
metricRight = k;
unicode = 1082;
userData = {
KernOnName = "ka-cy";
};
},
{
glyphname = "el-cy";
lastChange = "2022-01-20 22:43:58 +0000";
layers = (
{
layerId = m01;
shapes = (
{
closed = 1;
nodes = (
(358,0,l),
(440,0,l),
(440,494,l),
(358,494,l)
);
},
{
closed = 1;
nodes = (
(396,427,l),
(396,494,l),
(149,494,l),
(149,427,l)
);
},
{
closed = 1;
nodes = (
(15,-3,l),
(129,-41,o),
(168,37,o),
(177,184,cs),
(197,494,l),
(119,494,l),
(100,184,ls),
(96,119,o),
(90,28,o),
(15,57,c)
);
}
);
width = 482;
}
);
metricRight = i;
unicode = 1083;
userData = {
KernOnName = "el-cy";
};
},
{
glyphname = "em-cy";
lastChange = "2022-01-20 22:43:57 +0000";
layers = (
{
layerId = m01;
shapes = (
{
closed = 1;
nodes = (
(350,0,l),
(519,449,l),
(497,451,l),
(497,0,l),
(579,0,l),
(579,500,l),
(461,500,l),
(299,66,l),
(323,66,l),
(160,500,l),
(42,500,l),
(42,0,l),
(124,0,l),
(124,451,l),
(102,449,l),
(271,0,l)
);
}
);
width = 621;
}
);
metricLeft = i;
metricRight = i;
unicode = 1084;
userData = {
KernOnName = "em-cy";
};
},
{
glyphname = "en-cy";
lastChange = "2022-01-20 22:43:56 +0000";
layers = (
{
layerId = m01;
shapes = (
{
closed = 1;
nodes = (
(42,0,l),
(124,0,l),
(124,500,l),
(42,500,l)
);
},
{
closed = 1;
nodes = (
(392,0,l),
(474,0,l),
(474,500,l),
(392,500,l)
);
},
{
closed = 1;
nodes = (
(430,215,l),
(430,285,l),
(72,285,l),
(72,215,l)
);
}
);
width = 516;
}
);
metricLeft = i;
metricRight = i;
unicode = 1085;
userData = {
KernOnName = "en-cy";
};
},
{
glyphname = "pe-cy";
lastChange = "2022-01-20 22:43:55 +0000";
layers = (
{
layerId = m01;
shapes = (
{
closed = 1;
nodes = (
(42,0,l),
(124,0,l),
(124,500,l),
(42,500,l)
);
},
{
closed = 1;
nodes = (
(382,0,l),
(464,0,l),
(464,500,l),
(382,500,l)
);
},
{
closed = 1;
nodes = (
(420,430,l),
(420,500,l),
(72,500,l),
(72,430,l)
);
}
);
width = 506;
}
);
metricLeft = i;
metricRight = i;
unicode = 1087;
userData = {
KernOnName = "pe-cy";
};
},
{
glyphname = "te-cy";
lastChange = "2022-01-20 22:43:54 +0000";
layers = (
{
layerId = m01;
shapes = (
{
closed = 1;
nodes = (
(448,432,l),
(448,500,l),
(25,500,l),
(25,432,l)
);
},
{
closed = 1;
nodes = (
(196,0,l),
(277,0,l),
(277,500,l),
(196,500,l)
);
}
);
width = 473;
}
);
unicode = 1090;
userData = {
KernOnName = "te-cy";
};
},
{
glyphname = "ef-cy";
lastChange = "2022-01-20 22:43:53 +0000";
layers = (
{
layerId = m01;
shapes = (
{
closed = 1;
nodes = (
(186,60,o),
(116,128,o),
(116,250,cs),
(116,372,o),
(186,440,o),
(312,440,cs),
(439,440,o),
(509,372,o),
(509,250,cs),
(509,128,o),
(439,60,o),
(312,60,cs)
);
},
{
closed = 1;
nodes = (
(485,-10,o),
(595,91,o),
(595,248,cs),
(595,407,o),
(484,510,o),
(312,510,cs),
(141,510,o),
(31,409,o),
(31,252,cs),
(31,93,o),
(142,-10,o),
(314,-10,cs)
);
},
{
closed = 1;
nodes = (
(270,-150,l),
(352,-150,l),
(352,650,l),
(270,650,l)
);
}
);
width = 626;
}
);
metricLeft = o;
metricRight = o;
unicode = 1092;
userData = {
KernOnName = "ef-cy";
};
},
{
glyphname = "che-cy";
lastChange = "2022-01-20 22:43:52 +0000";
layers = (
{
layerId = m01;
shapes = (
{
closed = 1;
nodes = (
(461,500,l),
(378,500,l),
(378,0,l),
(461,0,l)
);
},
{
closed = 1;
nodes = (
(398,299,o),
(331,234,o),
(246,234,cs),
(169,234,o),
(133,285,o),
(133,339,cs),
(133,500,l),
(50,500,l),
(50,320,ls),
(50,235,o),
(125,163,o),
(236,163,cs),
(347,163,o),
(404,235,o),
(423,279,c),
(413,366,l)
);
}
);
width = 511;
}
);
metricLeft = n;
metricRight = n;
unicode = 1095;
userData = {
KernOnName = "che-cy";
};
},
{
glyphname = "tse-cy";
lastChange = "2022-01-20 20:42:22 +0000";
layers = (
{
layerId = m01;
shapes = (
{
closed = 1;
nodes = (
(124,0,l),
(124,500,l),
(42,500,l),
(42,0,l)
);
},
{
closed = 1;
nodes = (
(461,0,l),
(461,500,l),
(379,500,l),
(379,0,l)
);
},
{
closed = 1;
nodes = (
(74,0,l),
(567,0,l),
(567,68,l),
(74,68,l)
);
},
{
closed = 1;
nodes = (
(567,-89,l),
(567,48,l),
(498,48,l),
(498,-89,l)
);
}
);
width = 577;
}
);
metricLeft = i;
unicode = 1094;
userData = {
KernOnName = "tse-cy";
};
},
{
glyphname = "sha-cy";
lastChange = "2022-01-20 22:43:50 +0000";
layers = (
{
layerId = m01;
shapes = (
{
closed = 1;
nodes = (
(124,0,l),
(124,500,l),
(42,500,l),
(42,0,l)
);
},
{
closed = 1;
nodes = (
(379,0,l),
(379,500,l),
(297,500,l),
(297,0,l)
);
},
{
closed = 1;
nodes = (
(634,0,l),
(634,500,l),
(552,500,l),
(552,0,l)
);
},
{
closed = 1;
nodes = (
(74,0,l),
(567,0,l),
(567,68,l),
(74,68,l)
);
}
);
width = 676;
}
);
metricLeft = i;
metricRight = i;
unicode = 1096;
userData = {
KernOnName = "sha-cy";
};
},
{
glyphname = "shcha-cy";
lastChange = "2022-01-20 22:43:49 +0000";
layers = (
{
layerId = m01;
shapes = (
{
closed = 1;
nodes = (
(132,0,l),
(132,500,l),
(50,500,l),
(50,0,l)
);
},
{
closed = 1;
nodes = (
(387,0,l),
(387,500,l),
(305,500,l),
(305,0,l)
);
},
{
closed = 1;
nodes = (
(642,0,l),
(642,500,l),
(560,500,l),
(560,0,l)
);
},
{
closed = 1;
nodes = (
(82,0,l),
(748,0,l),
(748,68,l),
(82,68,l)
);
},
{
closed = 1;
nodes = (
(748,-89,l),
(748,48,l),
(679,48,l),
(679,-89,l)
);
}
);
width = 758;
}
);
unicode = 1097;
userData = {
KernOnName = "shcha-cy";
};
},
{
glyphname = "softsign-cy";
lastChange = "2022-01-20 22:52:44 +0000";
layers = (
{
layerId = m01;
shapes = (
{
closed = 1;
nodes = (
(124,251,l),
(258,251,ls),
(315,251,o),
(341,203,o),
(341,157,cs),
(341,111,o),
(315,68,o),
(258,68,cs),
(124,68,l)
);
},
{
closed = 1;
nodes = (
(124,500,l),
(42,500,l),
(42,0,l),
(258,0,ls),
(363,0,o),
(427,68,o),
(427,157,cs),
(427,246,o),
(363,318,o),
(258,318,cs),
(124,318,l)
);
}
);
width = 458;
}
);
metricLeft = i;
metricRight = b;
unicode = 1100;
userData = {
KernOnName = "softsign-cy";
};
},
{
glyphname = "yeru-cy";
lastChange = "2022-01-20 22:52:48 +0000";
layers = (
{
layerId = m01;
shapes = (
{
closed = 1;
nodes = (
(124,251,l),
(258,251,ls),
(315,251,o),
(341,203,o),
(341,157,cs),
(341,111,o),
(315,68,o),
(258,68,cs),
(124,68,l)
);
},
{
closed = 1;
nodes = (
(124,500,l),
(42,500,l),
(42,0,l),
(258,0,ls),
(363,0,o),
(427,68,o),
(427,157,cs),
(427,246,o),
(363,318,o),
(258,318,cs),
(124,318,l)
);
},
{
closed = 1;
nodes = (
(517,0,l),
(599,0,l),
(599,500,l),
(517,500,l)
);
}
);
width = 641;
}
);
metricLeft = i;
metricRight = i;
unicode = 1099;
userData = {
KernOnName = "yeru-cy";
};
},
{
glyphname = "hardsign-cy";
lastChange = "2022-01-20 22:52:48 +0000";
layers = (
{
layerId = m01;
shapes = (
{
closed = 1;
nodes = (
(222,251,l),
(356,251,ls),
(413,251,o),
(439,203,o),
(439,157,cs),
(439,111,o),
(413,68,o),
(356,68,cs),
(222,68,l)
);
},
{
closed = 1;
nodes = (
(222,500,l),
(140,500,l),
(140,0,l),
(356,0,ls),
(461,0,o),
(525,68,o),
(525,157,cs),
(525,246,o),
(461,318,o),
(356,318,cs),
(222,318,l)
);
},
{
closed = 1;
nodes = (
(198,432,l),
(198,500,l),
(10,500,l),
(10,432,l)
);
}
);
width = 556;
}
);
metricRight = o;
unicode = 1098;
userData = {
KernOnName = "hardsign-cy";
};
},
{
glyphname = "ereversed-cy";
lastChange = "2022-01-20 22:52:48 +0000";
layers = (
{
layerId = m01;
shapes = (
{
closed = 1;
nodes = (
(46,44,o),
(125,-10,o),
(237,-10,cs),
(384,-10,o),
(462,85,o),
(462,250,cs),
(462,415,o),
(384,510,o),
(237,510,cs),
(125,510,o),
(45,456,o),
(25,348,c),
(113,348,l),
(127,401,o),
(174,440,o),
(238,440,cs),
(331,440,o),
(376,365,o),
(376,250,cs),
(376,135,o),
(331,60,o),
(238,60,cs),
(175,60,o),
(127,99,o),
(113,152,c),
(26,152,l)
);
},
{
closed = 1;
nodes = (
(384,216,l),
(384,284,l),
(156,284,l),
(156,216,l)
);
}
);
width = 493;
}
);
metricLeft = "=|c";
metricRight = "=|c";
unicode = 1101;
userData = {
KernOnName = "ereversed-cy";
};
},
{
glyphname = "yu-cy";
lastChange = "2022-01-20 22:52:49 +0000";
layers = (
{
layerId = m01;
shapes = (
{
closed = 1;
nodes = (
(42,0,l),
(124,0,l),
(124,500,l),
(42,500,l)
);
},
{
closed = 1;
nodes = (
(349,60,o),
(297,128,o),
(297,250,cs),
(297,366,o),
(346,440,o),
(438,440,cs),
(528,440,o),
(580,372,o),
(580,250,cs),
(580,134,o),
(531,60,o),
(438,60,cs)
);
},
{
closed = 1;
nodes = (
(585,-10,o),
(666,80,o),
(666,248,cs),
(666,412,o),
(589,510,o),
(438,510,cs),
(293,510,o),
(212,420,o),
(212,252,cs),
(212,88,o),
(289,-10,o),
(440,-10,cs)
);
},
{
closed = 1;
nodes = (
(291,216,l),
(291,284,l),
(72,284,l),
(72,216,l)
);
}
);
width = 697;
}
);
metricLeft = i;
metricRight = o;
unicode = 1102;
userData = {
KernOnName = "yu-cy";
};
},
{
glyphname = "ya-cy";
lastChange = "2022-01-20 22:52:50 +0000";
layers = (
{
layerId = m01;
shapes = (
{
closed = 1;
nodes = (
(150,217,l),
(24,0,l),
(112,0,l),
(237,217,l)
);
},
{
closed = 1;
nodes = (
(338,256,l),
(203,256,ls),
(151,256,o),
(120,297,o),
(120,343,cs),
(120,389,o),
(151,432,o),
(203,432,cs),
(338,432,l)
);
},
{
closed = 1;
nodes = (
(338,0,l),
(420,0,l),
(420,500,l),
(203,500,ls),
(98,500,o),
(34,430,o),
(34,343,cs),
(34,255,o),
(98,188,o),
(203,188,cs),
(338,188,l)
);
}
);
width = 462;
}
);
metricLeft = x;
metricRight = i;
unicode = 1103;
userData = {
KernOnName = "ya-cy";
};
},
{
glyphname = zero;
lastChange = "2021-12-21 07:14:56 +0000";
layers = (
{
layerId = m01;
shapes = (
{
closed = 1;
nodes = (
(174,63,o),
(128,145,o),
(128,340,cs),
(128,535,o),
(174,617,o),
(279,617,cs),
(386,617,o),
(432,535,o),
(432,340,cs),
(432,145,o),
(386,63,o),
(279,63,cs)
);
},
{
closed = 1;
nodes = (
(435,-10,o),
(522,115,o),
(522,340,cs),
(522,565,o),
(435,690,o),
(280,690,cs),
(125,690,o),
(38,565,o),
(38,340,cs),
(38,115,o),
(125,-10,o),
(280,-10,cs)
);
}
);
width = 560;
}
);
unicode = 48;
},
{
glyphname = one;
lastChange = "2022-01-17 22:11:30 +0000";
layers = (
{
layerId = m01;
shapes = (
{
closed = 1;
nodes = (
(270,680,l),
(107,562,l),
(107,474,l),
(270,592,l)
);
},
{
closed = 1;
nodes = (
(270,0,l),
(355,0,l),
(355,680,l),
(270,680,l)
);
}
);
width = 561;
}
);
unicode = 49;
},
{
glyphname = two;
lastChange = "2022-01-17 02:43:25 +0000";
layers = (
{
layerId = m01;
shapes = (
{
closed = 1;
nodes = (
(64,0,l),
(504,0,l),
(504,72,l),
(177,72,l),
(358,248,ls),
(426,314,o),
(496,382,o),
(496,479,cs),
(496,579,o),
(423,690,o),
(276,690,cs),
(145,690,o),
(48,598,o),
(51,481,c),
(136,481,l),
(136,549,o),
(181,613,o),
(274,613,cs),
(382,613,o),
(406,532,o),
(406,477,cs),
(406,407,o),
(365,361,o),
(317,315,cs),
(64,72,l)
);
}
);
width = 560;
}
);
unicode = 50;
},
{
glyphname = three;
lastChange = "2022-01-18 23:52:35 +0000";
layers = (
{
layerId = m01;
shapes = (
{
closed = 1;
nodes = (
(220,320,l),
(272,320,ls),
(370,320,o),
(421,261,o),
(421,184,cs),
(421,105,o),
(367,63,o),
(274,63,cs),
(179,63,o),
(132,105,o),
(132,186,c),
(42,186,l),
(42,53,o),
(147,-10,o),
(274,-10,cs),
(397,-10,o),
(511,52,o),
(511,179,cs),
(511,270,o),
(455,334,o),
(367,361,c),
(440,385,o),
(486,436,o),
(486,513,cs),
(486,617,o),
(398,690,o),
(273,690,cs),
(142,690,o),
(54,618,o),
(54,506,c),
(144,506,l),
(144,580,o),
(192,617,o),
(273,617,cs),
(345,617,o),
(396,582,o),
(396,503,cs),
(396,392,o),
(294,392,o),
(272,392,cs),
(220,392,l)
);
}
);
width = 547;
}
);
metricRight = O;
unicode = 51;
},
{
glyphname = four;
lastChange = "2021-12-23 00:26:53 +0000";
layers = (
{
layerId = m01;
shapes = (
{
closed = 1;
nodes = (
(437,680,l),
(331,680,l),
(27,224,l),
(27,148,l),
(524,148,l),
(524,220,l),
(60,220,l),
(88,177,l),
(396,650,l),
(351,650,l),
(351,-3,l),
(437,-3,l)
);
}
);
width = 561;
}
);
unicode = 52;
},
{
glyphname = five;
lastChange = "2022-01-17 02:51:27 +0000";
layers = (
{
layerId = m01;
shapes = (
{
closed = 1;
nodes = (
(157,340,o),
(183,377,o),
(263,377,cs),
(358,377,o),
(414,325,o),
(414,221,cs),
(414,115,o),
(355,63,o),
(266,63,cs),
(180,63,o),
(134,121,o),
(134,175,c),
(49,175,l),
(49,49,o),
(170,-10,o),
(269,-10,cs),
(401,-10,o),
(504,76,o),
(504,218,cs),
(504,351,o),
(414,450,o),
(274,450,cs),
(210,450,o),
(175,428,o),
(151,403,c),
(170,608,l),
(478,608,l),
(478,680,l),
(99,680,l),
(66,314,l),
(69,313,l),
(144,313,l)
);
}
);
width = 560;
}
);
unicode = 53;
},
{
glyphname = six;
lastChange = "2022-01-18 01:36:21 +0000";
layers = (
{
layerId = m01;
shapes = (
{
closed = 1;
nodes = (
(375,368,o),
(429,318,o),
(429,221,cs),
(429,125,o),
(375,62,o),
(284,62,cs),
(194,62,o),
(143,123,o),
(143,221,cs),
(143,320,o),
(194,368,o),
(284,368,cs)
);
},
{
closed = 1;
nodes = (
(516,345,o),
(436,441,o),
(288,441,cs),
(202,441,o),
(160,408,o),
(125,353,c),
(128,535,o),
(180,620,o),
(287,620,cs),
(380,620,o),
(423,556,o),
(423,511,c),
(505,511,l),
(505,580,o),
(449,693,o),
(289,693,cs),
(111,693,o),
(41,551,o),
(41,339,cs),
(41,94,o),
(135,-11,o),
(287,-11,cs),
(433,-11,o),
(516,87,o),
(516,217,cs)
);
}
);
width = 560;
}
);
unicode = 54;
},
{
glyphname = seven;
lastChange = "2022-01-16 03:45:39 +0000";
layers = (
{
layerId = m01;
shapes = (
{
closed = 1;
nodes = (
(500,598,l),
(500,680,l),
(53,680,l),
(53,608,l),
(478,608,l),
(437,646,l),
(126,0,l),
(213,0,l)
);
}
);
width = 560;
}
);
unicode = 55;
},
{
glyphname = eight;
lastChange = "2022-01-09 00:15:02 +0000";
layers = (
{
layerId = m01;
shapes = (
{
closed = 1;
nodes = (
(132,373,o),
(35,301,o),
(35,182,cs),
(35,51,o),
(151,-10,o),
(280,-10,cs),
(409,-10,o),
(525,51,o),
(525,181,cs),
(525,301,o),
(427,373,o),
(279,373,cs)
);
},
{
closed = 1;
nodes = (
(381,319,o),
(435,262,o),
(435,184,cs),
(435,103,o),
(376,63,o),
(280,63,cs),
(183,63,o),
(125,103,o),
(125,185,cs),
(125,263,o),
(178,319,o),
(279,319,cs)
);
},
{
closed = 1;
nodes = (
(411,348,o),
(499,396,o),
(499,507,cs),
(499,619,o),
(410,690,o),
(280,690,cs),
(149,690,o),
(61,618,o),
(61,507,cs),
(61,396,o),
(148,348,o),
(279,348,cs)
);
},
{
closed = 1;
nodes = (
(195,391,o),
(151,433,o),
(151,505,cs),
(151,580,o),
(199,617,o),
(280,617,cs),
(361,617,o),
(409,580,o),
(409,506,cs),
(409,434,o),
(364,391,o),
(279,391,cs)
);
}
);
width = 560;
}
);
unicode = 56;
},
{
glyphname = nine;
lastChange = "2022-01-15 22:18:13 +0000";
layers = (
{
layerId = m01;
shapes = (
{
closed = 1;
nodes = (
(185,312,o),
(131,362,o),
(131,459,cs),
(131,555,o),
(185,618,o),
(276,618,cs),
(366,618,o),
(417,557,o),
(417,459,cs),
(417,360,o),
(366,312,o),
(276,312,cs)
);
},
{
closed = 1;
nodes = (
(44,335,o),
(124,239,o),
(272,239,cs),
(358,239,o),
(400,272,o),
(435,327,c),
(432,145,o),
(380,60,o),
(273,60,cs),
(180,60,o),
(137,124,o),
(137,169,c),
(55,169,l),
(55,100,o),
(111,-13,o),
(271,-13,cs),
(449,-13,o),
(519,129,o),
(519,341,cs),
(519,586,o),
(425,691,o),
(273,691,cs),
(127,691,o),
(44,593,o),
(44,463,cs)
);
}
);
width = 560;
}
);
unicode = 57;
},
{
glyphname = one.base;
lastChange = "2022-01-17 22:10:15 +0000";
layers = (
{
layerId = m01;
shapes = (
{
closed = 1;
nodes = (
(258,681,l),
(91,562,l),
(91,482,l),
(258,601,l)
);
},
{
closed = 1;
nodes = (
(493,0,l),
(493,68,l),
(91,68,l),
(91,0,l)
);
},
{
closed = 1;
nodes = (
(257,0,l),
(339,0,l),
(339,680,l),
(257,680,l)
);
}
);
width = 561;
}
);
},
{
glyphname = zero.dotted;
lastChange = "2021-12-22 04:43:26 +0000";
layers = (
{
layerId = m01;
shapes = (
{
closed = 1;
nodes = (
(316,287,o),
(333,303,o),
(333,340,cs),
(333,376,o),
(317,393,o),
(280,393,cs),
(244,393,o),
(227,377,o),
(227,340,cs),
(227,304,o),
(243,287,o),
(280,287,cs)
);
},
{
closed = 1;
nodes = (
(174,63,o),
(128,145,o),
(128,340,cs),
(128,535,o),
(174,617,o),
(279,617,cs),
(386,617,o),
(432,535,o),
(432,340,cs),
(432,145,o),
(386,63,o),
(279,63,cs)
);
},
{
closed = 1;
nodes = (
(435,-10,o),
(522,115,o),
(522,340,cs),
(522,565,o),
(435,690,o),
(280,690,cs),
(125,690,o),
(38,565,o),
(38,340,cs),
(38,115,o),
(125,-10,o),
(280,-10,cs)
);
}
);
width = 560;
}
);
},
{
glyphname = four.open;
lastChange = "2022-01-17 22:08:01 +0000";
layers = (
{
layerId = m01;
shapes = (
{
closed = 1;
nodes = (
(351,680,l),
(261,680,l),
(27,224,l),
(27,148,l),
(524,148,l),
(524,220,l),
(60,220,l),
(92,177,l)
);
},
{
closed = 1;
nodes = (
(351,441,l),
(351,-3,l),
(437,-3,l),
(437,441,l)
);
}
);
width = 561;
}
);
},
{
glyphname = zero.osf;
lastChange = "2022-01-18 01:19:14 +0000";
layers = (
{
layerId = m01;
shapes = (
{
closed = 1;
nodes = (
(170,60,o),
(117,140,o),
(117,284,cs),
(117,428,o),
(170,508,o),
(282,508,cs),
(395,508,o),
(448,428,o),
(448,284,cs),
(448,140,o),
(395,60,o),
(282,60,cs)
);
},
{
closed = 1;
nodes = (
(452,-10,o),
(535,94,o),
(535,282,cs),
(535,472,o),
(451,578,o),
(282,578,cs),
(114,578,o),
(31,474,o),
(31,286,cs),
(31,96,o),
(115,-10,o),
(284,-10,cs)
);
}
);
width = 566;
}
);
metricLeft = o;
metricRight = o;
},
{
glyphname = one.osf;
lastChange = "2022-01-18 01:53:48 +0000";
layers = (
{
layerId = m01;
shapes = (
{
closed = 1;
nodes = (
(183,568,l),
(20,463,l),
(20,375,l),
(183,480,l)
);
},
{
closed = 1;
nodes = (
(183,0,l),
(268,0,l),
(268,568,l),
(183,568,l)
);
}
);
width = 351;
}
);
},
{
glyphname = two.osf;
lastChange = "2022-01-18 01:56:31 +0000";
layers = (
{
layerId = m01;
shapes = (
{
closed = 1;
nodes = (
(45,0,l),
(485,0,l),
(485,72,l),
(169,72,l),
(285,152,ls),
(362,205,o),
(467,275,o),
(467,391,cs),
(467,483,o),
(402,578,o),
(262,578,cs),
(126,578,o),
(40,489,o),
(42,369,c),
(125,369,l),
(125,437,o),
(160,508,o),
(260,508,cs),
(363,508,o),
(380,432,o),
(380,393,cs),
(380,298,o),
(278,240,o),
(209,190,cs),
(45,72,l)
);
}
);
width = 519;
}
);
},
{
glyphname = three.osf;
lastChange = "2022-01-18 01:59:02 +0000";
layers = (
{
layerId = m01;
shapes = (
{
closed = 1;
nodes = (
(214,210,l),
(266,210,ls),
(364,210,o),
(419,149,o),
(419,72,cs),
(419,-7,o),
(361,-52,o),
(268,-52,cs),
(173,-52,o),
(119,-9,o),
(119,72,c),
(36,72,l),
(36,-61,o),
(141,-122,o),
(268,-122,cs),
(391,-122,o),
(505,-60,o),
(505,67,cs),
(505,158,o),
(449,222,o),
(361,249,c),
(434,273,o),
(480,324,o),
(480,401,cs),
(480,505,o),
(392,578,o),
(267,578,cs),
(136,578,o),
(48,506,o),
(48,394,c),
(131,394,l),
(131,468,o),
(186,508,o),
(267,508,cs),
(339,508,o),
(394,470,o),
(394,391,cs),
(394,280,o),
(288,278,o),
(266,278,cs),
(214,278,l)
);
}
);
width = 543;
}
);
},
{
glyphname = four.osf;
lastChange = "2022-01-18 02:07:45 +0000";
layers = (
{
layerId = m01;
shapes = (
{
closed = 1;
nodes = (
(361,568,l),
(275,568,l),
(41,126,l),
(41,56,l),
(538,56,l),
(538,124,l),
(74,124,l),
(103,85,l)
);
},
{
closed = 1;
nodes = (
(359,339,l),
(359,-115,l),
(441,-115,l),
(441,339,l)
);
}
);
width = 571;
}
);
},
{
glyphname = five.osf;
lastChange = "2022-01-18 02:08:14 +0000";
layers = (
{
layerId = m01;
shapes = (
{
closed = 1;
nodes = (
(141,228,o),
(167,268,o),
(247,268,cs),
(342,268,o),
(402,213,o),
(402,109,cs),
(402,3,o),
(339,-52,o),
(250,-52,cs),
(164,-52,o),
(114,9,o),
(114,63,c),
(33,63,l),
(33,-63,o),
(154,-122,o),
(253,-122,cs),
(385,-122,o),
(488,-36,o),
(488,106,cs),
(488,239,o),
(398,338,o),
(258,338,cs),
(194,338,o),
(156,316,o),
(132,291,c),
(151,500,l),
(462,500,l),
(462,568,l),
(83,568,l),
(50,202,l),
(53,201,l),
(125,201,l)
);
}
);
width = 519;
}
);
},
{
glyphname = six.osf;
lastChange = "2022-01-18 02:09:25 +0000";
layers = (
{
layerId = m01;
shapes = (
{
closed = 1;
nodes = (
(369,368,o),
(424,318,o),
(424,221,cs),
(424,125,o),
(369,59,o),
(278,59,cs),
(188,59,o),
(134,123,o),
(134,221,cs),
(134,320,o),
(188,368,o),
(278,368,cs)
);
},
{
closed = 1;
nodes = (
(510,345,o),
(430,441,o),
(282,441,cs),
(196,441,o),
(154,408,o),
(119,353,c),
(122,535,o),
(174,623,o),
(281,623,cs),
(374,623,o),
(419,556,o),
(419,511,c),
(499,511,l),
(499,580,o),
(443,693,o),
(283,693,cs),
(105,693,o),
(35,551,o),
(35,339,cs),
(35,94,o),
(129,-11,o),
(281,-11,cs),
(427,-11,o),
(510,87,o),
(510,217,cs)
);
}
);
width = 543;
}
);
},
{
glyphname = seven.osf;
lastChange = "2022-01-18 02:11:43 +0000";
layers = (
{
layerId = m01;
shapes = (
{
closed = 1;
nodes = (
(474,486,l),
(474,568,l),
(27,568,l),
(27,500,l),
(452,500,l),
(414,534,l),
(103,-112,l),
(187,-112,l)
);
}
);
width = 502;
}
);
},
{
glyphname = eight.osf;
lastChange = "2022-01-18 02:11:55 +0000";
layers = (
{
layerId = m01;
shapes = (
{
closed = 1;
nodes = (
(128,373,o),
(31,301,o),
(31,182,cs),
(31,51,o),
(147,-10,o),
(276,-10,cs),
(405,-10,o),
(521,51,o),
(521,181,cs),
(521,301,o),
(423,373,o),
(275,373,cs)
);
},
{
closed = 1;
nodes = (
(377,320,o),
(435,262,o),
(435,184,cs),
(435,103,o),
(372,60,o),
(276,60,cs),
(179,60,o),
(117,103,o),
(117,185,cs),
(117,263,o),
(174,320,o),
(275,320,cs)
);
},
{
closed = 1;
nodes = (
(407,348,o),
(495,396,o),
(495,507,cs),
(495,619,o),
(406,690,o),
(276,690,cs),
(145,690,o),
(57,618,o),
(57,507,cs),
(57,396,o),
(144,348,o),
(275,348,cs)
);
},
{
closed = 1;
nodes = (
(191,390,o),
(143,433,o),
(143,505,cs),
(143,580,o),
(195,620,o),
(276,620,cs),
(357,620,o),
(409,580,o),
(409,506,cs),
(409,434,o),
(360,390,o),
(275,390,cs)
);
}
);
width = 552;
}
);
metricLeft = o;
metricRight = o;
},
{
glyphname = nine.osf;
lastChange = "2022-01-18 02:12:27 +0000";
layers = (
{
layerId = m01;
shapes = (
{
closed = 1;
nodes = (
(174,199,o),
(119,249,o),
(119,346,cs),
(119,442,o),
(174,508,o),
(265,508,cs),
(355,508,o),
(409,444,o),
(409,346,cs),
(409,247,o),
(355,199,o),
(265,199,cs)
);
},
{
closed = 1;
nodes = (
(33,222,o),
(113,126,o),
(261,126,cs),
(347,126,o),
(389,159,o),
(424,214,c),
(421,32,o),
(369,-56,o),
(262,-56,cs),
(169,-56,o),
(124,11,o),
(124,56,c),
(44,56,l),
(44,-13,o),
(100,-126,o),
(260,-126,cs),
(438,-126,o),
(508,16,o),
(508,228,cs),
(508,473,o),
(414,578,o),
(262,578,cs),
(116,578,o),
(33,480,o),
(33,350,cs)
);
}
);
width = 545;
}
);
},
{
glyphname = zero.slashed;
lastChange = "2021-12-22 04:43:30 +0000";
layers = (
{
layerId = m01;
shapes = (
{
closed = 1;
nodes = (
(55,210,l),
(97,155,l),
(503,461,l),
(461,516,l)
);
},
{
closed = 1;
nodes = (
(174,63,o),
(128,145,o),
(128,340,cs),
(128,535,o),
(174,617,o),
(279,617,cs),
(386,617,o),
(432,535,o),
(432,340,cs),
(432,145,o),
(386,63,o),
(279,63,cs)
);
},
{
closed = 1;
nodes = (
(435,-10,o),
(522,115,o),
(522,340,cs),
(522,565,o),
(435,690,o),
(280,690,cs),
(125,690,o),
(38,565,o),
(38,340,cs),
(38,115,o),
(125,-10,o),
(280,-10,cs)
);
}
);
width = 560;
}
);
},
{
glyphname = one.osf.base;
lastChange = "2022-01-21 02:20:28 +0000";
layers = (
{
layerId = m01;
shapes = (
{
ref = one.osf;
},
{
closed = 1;
nodes = (
(412,0,l),
(412,68,l),
(20,68,l),
(20,0,l)
);
}
);
width = 432;
}
);
},
{
glyphname = zero.osf.dotted;
lastChange = "2022-01-21 02:20:38 +0000";
layers = (
{
layerId = m01;
shapes = (
{
ref = zero.osf;
},
{
closed = 1;
nodes = (
(316,231,o),
(333,247,o),
(333,284,cs),
(333,320,o),
(317,337,o),
(280,337,cs),
(244,337,o),
(227,321,o),
(227,284,cs),
(227,248,o),
(243,231,o),
(280,231,cs)
);
}
);
width = 566;
}
);
metricLeft = o;
metricRight = o;
},
{
glyphname = zero.osf.slashed;
lastChange = "2022-01-21 02:20:22 +0000";
layers = (
{
layerId = m01;
shapes = (
{
closed = 1;
nodes = (
(55,159,l),
(97,104,l),
(503,410,l),
(461,465,l)
);
},
{
ref = zero.osf;
}
);
width = 566;
}
);
metricLeft = o;
metricRight = o;
},
{
glyphname = .notdef;
lastChange = "2022-01-18 17:21:54 +0000";
layers = (
{
layerId = m01;
shapes = (
{
closed = 1;
nodes = (
(389,533,o),
(372,540,o),
(353,533,cs),
(261,499,ls),
(240,491,o),
(233,474,o),
(240,455,cs),
(279,347,ls),
(283,337,o),
(279,329,o),
(269,324,c),
(159,285,ls),
(139,278,o),
(132,258,o),
(139,240,cs),
(230,-10,ls),
(237,-30,o),
(256,-37,o),
(275,-30,cs),
(367,4,ls),
(388,12,o),
(395,30,o),
(388,49,cs),
(348,156,ls),
(344,166,o),
(348,175,o),
(359,179,cs),
(467,218,ls),
(488,226,o),
(495,243,o),
(488,262,cs),
(397,512,ls)
);
},
{
closed = 1;
nodes = (
(104,586,o),
(124,606,o),
(154,606,cs),
(745,606,ls),
(775,606,o),
(795,587,o),
(795,557,cs),
(795,-35,ls),
(795,-65,o),
(775,-85,o),
(745,-85,cs),
(154,-85,ls),
(124,-85,o),
(104,-65,o),
(104,-35,cs),
(104,556,ls)
);
},
{
closed = 1;
nodes = (
(64,-35,ls),
(64,-94,o),
(96,-125,o),
(154,-125,cs),
(745,-125,ls),
(804,-125,o),
(835,-94,o),
(835,-35,cs),
(835,557,ls),
(835,615,o),
(804,646,o),
(745,646,cs),
(154,646,ls),
(96,646,o),
(64,615,o),
(64,556,cs)
);
},
{
closed = 1;
nodes = (
(673,417,o),
(683,428,o),
(683,453,cs),
(683,478,o),
(672,488,o),
(648,488,cs),
(623,488,o),
(613,477,o),
(613,453,cs),
(613,428,o),
(624,417,o),
(648,417,cs)
);
},
{
closed = 1;
nodes = (
(696,50,o),
(770,84,o),
(770,169,c),
(709,169,l),
(709,119,o),
(678,105,o),
(640,105,cs),
(592,105,o),
(571,127,o),
(571,158,cs),
(571,229,o),
(677,260,o),
(677,325,cs),
(677,359,l),
(618,359,l),
(618,334,ls),
(618,275,o),
(507,244,o),
(507,160,cs),
(507,100,o),
(563,50,o),
(636,50,cs)
);
}
);
width = 900;
}
);
},
{
glyphname = period;
lastChange = "2022-01-20 18:35:07 +0000";
layers = (
{
layerId = m01;
shapes = (
{
closed = 1;
nodes = (
(124,-10,o),
(141,6,o),
(141,43,cs),
(141,79,o),
(125,96,o),
(88,96,cs),
(52,96,o),
(35,80,o),
(35,43,cs),
(35,7,o),
(51,-10,o),
(88,-10,cs)
);
}
);
width = 176;
}
);
unicode = 46;
userData = {
KernOnSpecialSpacing = {
L = period;
R = period;
};
};
},
{
glyphname = comma;
lastChange = "2022-01-20 18:35:07 +0000";
layers = (
{
layerId = m01;
shapes = (
{
closed = 1;
nodes = (
(20,-103,l),
(85,-103,l),
(153,98,l),
(62,98,l)
);
}
);
width = 183;
}
);
unicode = 44;
userData = {
KernOnSpecialSpacing = {
L = period;
R = period;
};
};
},
{
glyphname = exclam;
lastChange = "2022-01-20 18:35:07 +0000";
layers = (
{
layerId = m01;
shapes = (
{
closed = 1;
nodes = (
(134,191,l),
(141,680,l),
(59,680,l),
(66,191,l)
);
},
{
closed = 1;
nodes = (
(65,88,o),
(50,72,o),
(50,39,cs),
(50,5,o),
(66,-10,o),
(99,-10,cs),
(133,-10,o),
(148,6,o),
(148,39,cs),
(148,73,o),
(132,88,o),
(99,88,cs)
);
}
);
width = 198;
}
);
unicode = 33;
userData = {
KernOnSpecialSpacing = {
L = "spaced-off";
};
};
},
{
glyphname = question;
lastChange = "2022-01-20 18:35:07 +0000";
layers = (
{
layerId = m01;
shapes = (
{
closed = 1;
nodes = (
(183,88,o),
(168,72,o),
(168,39,cs),
(168,5,o),
(184,-10,o),
(217,-10,cs),
(251,-10,o),
(266,6,o),
(266,39,cs),
(266,73,o),
(250,88,o),
(217,88,cs)
);
},
{
closed = 1;
nodes = (
(141,691,o),
(20,644,o),
(20,507,c),
(102,507,l),
(102,587,o),
(169,618,o),
(230,618,cs),
(308,618,o),
(358,567,o),
(358,511,cs),
(358,404,o),
(178,349,o),
(178,245,cs),
(178,191,l),
(257,191,l),
(257,232,ls),
(257,327,o),
(445,376,o),
(445,514,cs),
(445,610,o),
(355,691,o),
(234,691,cs)
);
}
);
width = 481;
}
);
metricRight = O;
unicode = 63;
userData = {
KernOnSpecialSpacing = {
L = "spaced-off";
};
};
},
{
glyphname = asterisk;
lastChange = "2022-01-20 18:35:07 +0000";
layers = (
{
layerId = m01;
shapes = (
{
closed = 1;
nodes = (
(159,560,l),
(159,482,l),
(153,363,l),
(210,363,l),
(204,482,l),
(204,560,l),
(210,680,l),
(153,680,l)
);
},
{
closed = 1;
nodes = (
(159,560,l),
(159,482,l),
(153,363,l),
(210,363,l),
(204,482,l),
(204,560,l),
(210,680,l),
(153,680,l)
);
},
{
closed = 1;
nodes = (
(159,560,l),
(159,482,l),
(153,363,l),
(210,363,l),
(204,482,l),
(204,560,l),
(210,680,l),
(153,680,l)
);
},
{
closed = 1;
nodes = (
(159,560,l),
(159,482,l),
(153,363,l),
(210,363,l),
(204,482,l),
(204,560,l),
(210,680,l),
(153,680,l)
);
},
{
closed = 1;
nodes = (
(204,560,l),
(137,522,l),
(30,466,l),
(59,417,l),
(159,482,l),
(226,521,l),
(333,577,l),
(304,625,l)
);
},
{
closed = 1;
nodes = (
(204,560,l),
(137,522,l),
(30,466,l),
(59,417,l),
(159,482,l),
(226,521,l),
(333,577,l),
(304,625,l)
);
},
{
closed = 1;
nodes = (
(204,560,l),
(137,522,l),
(30,466,l),
(59,417,l),
(159,482,l),
(226,521,l),
(333,577,l),
(304,625,l)
);
},
{
closed = 1;
nodes = (
(204,560,l),
(137,522,l),
(30,466,l),
(59,417,l),
(159,482,l),
(226,521,l),
(333,577,l),
(304,625,l)
);
},
{
closed = 1;
nodes = (
(226,522,l),
(159,560,l),
(59,625,l),
(30,577,l),
(137,521,l),
(204,482,l),
(304,417,l),
(333,466,l)
);
},
{
closed = 1;
nodes = (
(226,522,l),
(159,560,l),
(59,625,l),
(30,577,l),
(137,521,l),
(204,482,l),
(304,417,l),
(333,466,l)
);
},
{
closed = 1;
nodes = (
(226,522,l),
(159,560,l),
(59,625,l),
(30,577,l),
(137,521,l),
(204,482,l),
(304,417,l),
(333,466,l)
);
},
{
closed = 1;
nodes = (
(226,522,l),
(159,560,l),
(59,625,l),
(30,577,l),
(137,521,l),
(204,482,l),
(304,417,l),
(333,466,l)
);
}
);
width = 363;
}
);
unicode = 42;
userData = {
KernOnSpecialSpacing = {
L = quotes;
R = quotes;
};
};
},
{
glyphname = numbersign;
lastChange = "2021-12-21 18:13:17 +0000";
layers = (
{
layerId = m01;
shapes = (
{
closed = 1;
nodes = (
(270,680,l),
(202,680,l),
(93,1,l),
(161,1,l)
);
},
{
closed = 1;
nodes = (
(82,516,l),
(82,452,l),
(518,452,l),
(518,516,l)
);
},
{
closed = 1;
nodes = (
(467,680,l),
(399,679,l),
(290,0,l),
(358,0,l)
);
},
{
closed = 1;
nodes = (
(42,232,l),
(42,168,l),
(478,168,l),
(478,232,l)
);
}
);
width = 560;
}
);
unicode = 35;
},
{
glyphname = slash;
lastChange = "2022-01-20 18:35:07 +0000";
layers = (
{
layerId = m01;
shapes = (
{
closed = 1;
nodes = (
(240,680,l),
(5,-200,l),
(82,-200,l),
(317,680,l)
);
}
);
width = 322;
}
);
unicode = 47;
userData = {
KernOnSpecialSpacing = {
L = slash;
R = slash;
};
};
},
{
glyphname = backslash;
lastChange = "2022-01-20 18:35:07 +0000";
layers = (
{
layerId = m01;
shapes = (
{
closed = 1;
nodes = (
(240,-200,l),
(317,-200,l),
(82,680,l),
(5,680,l)
);
}
);
width = 322;
}
);
unicode = 92;
userData = {
KernOnSpecialSpacing = {
L = "spaced-off";
R = "spaced-off";
};
};
},
{
glyphname = hyphen;
lastChange = "2022-01-20 20:42:22 +0000";
layers = (
{
layerId = m01;
shapes = (
{
closed = 1;
nodes = (
(386,228,l),
(386,310,l),
(50,310,l),
(50,228,l)
);
}
);
width = 436;
}
);
metricLeft = n;
metricRight = n;
unicode = 45;
userData = {
KernOnName = hyphen;
KernOnSpecialSpacing = {
L = hyphen;
R = hyphen;
};
};
},
{
glyphname = endash;
lastChange = "2022-01-20 18:35:07 +0000";
layers = (
{
layerId = m01;
shapes = (
{
closed = 1;
nodes = (
(450,230,l),
(450,308,l),
(0,308,l),
(0,230,l)
);
}
);
width = 450;
}
);
unicode = 8211;
userData = {
KernOnSpecialSpacing = {
L = dashes;
R = dashes;
};
};
},
{
glyphname = emdash;
lastChange = "2022-01-20 18:35:07 +0000";
layers = (
{
layerId = m01;
shapes = (
{
closed = 1;
nodes = (
(900,230,l),
(900,308,l),
(0,308,l),
(0,230,l)
);
}
);
width = 900;
}
);
unicode = 8212;
userData = {
KernOnSpecialSpacing = {
L = dashes;
R = dashes;
};
};
},
{
glyphname = underscore;
lastChange = "2022-01-20 18:35:07 +0000";
layers = (
{
layerId = m01;
shapes = (
{
closed = 1;
nodes = (
(473,-120,l),
(473,-60,l),
(-23,-60,l),
(-23,-120,l)
);
}
);
width = 450;
}
);
unicode = 95;
userData = {
KernOnSpecialSpacing = {
L = underscore;
R = underscore;
};
};
},
{
glyphname = parenleft;
lastChange = "2022-01-20 18:35:07 +0000";
layers = (
{
layerId = m01;
shapes = (
{
closed = 1;
nodes = (
(-7,374,o),
(-7,106,o),
(163,-200,c),
(237,-200,l),
(75,94,o),
(75,386,o),
(237,680,c),
(163,680,l)
);
}
);
width = 247;
}
);
metricLeft = O;
unicode = 40;
userData = {
KernOnSpecialSpacing = {
R = parenthesis;
};
};
},
{
glyphname = parenright;
lastChange = "2022-01-20 20:42:22 +0000";
layers = (
{
layerId = m01;
shapes = (
{
closed = 1;
nodes = (
(10,680,l),
(172,386,o),
(172,94,o),
(10,-200,c),
(84,-200,l),
(254,106,o),
(254,374,o),
(84,680,c)
);
}
);
width = 247;
}
);
metricRight = O;
unicode = 41;
userData = {
KernOnName = parenright;
KernOnSpecialSpacing = {
L = parenthesis;
};
};
},
{
glyphname = braceleft;
lastChange = "2022-01-20 18:35:07 +0000";
layers = (
{
layerId = m01;
shapes = (
{
closed = 1;
nodes = (
(72,206,o),
(174,280,o),
(174,367,cs),
(174,533,ls),
(174,587,o),
(204,617,o),
(259,617,cs),
(289,617,l),
(289,678,l),
(259,678,ls),
(160,678,o),
(104,628,o),
(104,538,cs),
(104,367,ls),
(104,309,o),
(65,282,o),
(20,282,c),
(20,206,l)
);
},
{
closed = 1;
nodes = (
(92,206,o),
(174,280,o),
(174,367,cs),
(174,533,ls),
(174,587,o),
(204,617,o),
(259,617,cs),
(289,617,l),
(289,678,l),
(259,678,ls),
(160,678,o),
(104,628,o),
(104,538,cs),
(104,367,ls),
(104,309,o),
(65,282,o),
(20,282,c),
(20,206,l)
);
},
{
closed = 1;
nodes = (
(20,206,l),
(65,206,o),
(104,179,o),
(104,121,cs),
(104,-50,ls),
(104,-140,o),
(160,-190,o),
(259,-190,cs),
(289,-190,l),
(289,-129,l),
(259,-129,ls),
(204,-129,o),
(174,-99,o),
(174,-45,cs),
(174,121,ls),
(174,208,o),
(72,282,o),
(20,282,c)
);
},
{
closed = 1;
nodes = (
(20,206,l),
(65,206,o),
(104,179,o),
(104,121,cs),
(104,-50,ls),
(104,-140,o),
(160,-190,o),
(259,-190,cs),
(289,-190,l),
(289,-129,l),
(259,-129,ls),
(204,-129,o),
(174,-99,o),
(174,-45,cs),
(174,121,ls),
(174,208,o),
(92,282,o),
(20,282,c)
);
}
);
width = 319;
}
);
unicode = 123;
userData = {
KernOnSpecialSpacing = {
R = parenthesis;
};
};
},
{
glyphname = braceright;
lastChange = "2022-01-20 18:35:07 +0000";
layers = (
{
layerId = m01;
shapes = (
{
closed = 1;
nodes = (
(299,277,l),
(254,277,o),
(215,309,o),
(215,367,cs),
(215,538,ls),
(215,628,o),
(159,678,o),
(60,678,cs),
(30,678,l),
(30,622,l),
(60,622,ls),
(115,622,o),
(145,592,o),
(145,538,cs),
(145,367,ls),
(145,280,o),
(247,211,o),
(299,211,c)
);
},
{
closed = 1;
nodes = (
(299,277,l),
(254,277,o),
(215,309,o),
(215,367,cs),
(215,538,ls),
(215,628,o),
(159,678,o),
(60,678,cs),
(30,678,l),
(30,622,l),
(60,622,ls),
(115,622,o),
(145,592,o),
(145,538,cs),
(145,367,ls),
(145,280,o),
(237,211,o),
(299,211,c)
);
},
{
closed = 1;
nodes = (
(247,277,o),
(145,208,o),
(145,121,cs),
(145,-50,ls),
(145,-104,o),
(115,-134,o),
(60,-134,cs),
(30,-134,l),
(30,-190,l),
(60,-190,ls),
(159,-190,o),
(215,-140,o),
(215,-50,cs),
(215,121,ls),
(215,179,o),
(254,211,o),
(299,211,c),
(299,277,l)
);
},
{
closed = 1;
nodes = (
(237,277,o),
(145,208,o),
(145,121,cs),
(145,-50,ls),
(145,-104,o),
(115,-134,o),
(60,-134,cs),
(30,-134,l),
(30,-190,l),
(60,-190,ls),
(159,-190,o),
(215,-140,o),
(215,-50,cs),
(215,121,ls),
(215,179,o),
(254,211,o),
(299,211,c),
(299,277,l)
);
}
);
width = 319;
}
);
unicode = 125;
userData = {
KernOnSpecialSpacing = {
L = parenthesis;
};
};
},
{
glyphname = bracketleft;
lastChange = "2022-01-20 20:13:10 +0000";
layers = (
{
layerId = m01;
shapes = (
{
closed = 1;
nodes = (
(50,-200,l),
(124,-200,l),
(124,680,l),
(50,680,l)
);
},
{
closed = 1;
nodes = (
(113,615,l),
(258,615,l),
(258,680,l),
(113,680,l)
);
},
{
closed = 1;
nodes = (
(113,-200,l),
(258,-200,l),
(258,-135,l),
(113,-135,l)
);
}
);
width = 278;
}
);
metricLeft = n;
unicode = 91;
userData = {
KernOnSpecialSpacing = {
L = NoKerning;
R = parenthesis;
};
};
},
{
glyphname = bracketright;
lastChange = "2022-01-20 18:35:07 +0000";
layers = (
{
layerId = m01;
shapes = (
{
closed = 1;
nodes = (
(154,680,l),
(154,-200,l),
(228,-200,l),
(228,680,l)
);
},
{
closed = 1;
nodes = (
(20,680,l),
(20,615,l),
(165,615,l),
(165,680,l)
);
},
{
closed = 1;
nodes = (
(20,-135,l),
(20,-200,l),
(165,-200,l),
(165,-135,l)
);
}
);
width = 278;
}
);
metricRight = n;
unicode = 93;
userData = {
KernOnSpecialSpacing = {
L = parenthesis;
R = NoKerning;
};
};
},
{
glyphname = guillemetleft;
lastChange = "2022-01-20 18:35:07 +0000";
layers = (
{
layerId = m01;
shapes = (
{
closed = 1;
nodes = (
(386,55,l),
(471,55,l),
(300,250,l),
(471,445,l),
(386,445,l),
(214,250,l)
);
},
{
closed = 1;
nodes = (
(202,55,l),
(287,55,l),
(116,250,l),
(287,445,l),
(202,445,l),
(30,250,l)
);
}
);
width = 521;
}
);
metricRight = n;
unicode = 171;
userData = {
KernOnSpecialSpacing = {
L = quotes;
R = quotes;
};
};
},
{
glyphname = guillemetright;
lastChange = "2022-01-20 20:13:14 +0000";
layers = (
{
layerId = m01;
shapes = (
{
closed = 1;
nodes = (
(135,445,l),
(50,445,l),
(221,250,l),
(50,55,l),
(135,55,l),
(307,250,l)
);
},
{
closed = 1;
nodes = (
(319,445,l),
(234,445,l),
(405,250,l),
(234,55,l),
(319,55,l),
(491,250,l)
);
}
);
width = 521;
}
);
metricLeft = n;
unicode = 187;
userData = {
KernOnSpecialSpacing = {
L = quotes;
R = quotes;
};
};
},
{
glyphname = guilsinglleft;
lastChange = "2022-01-20 18:35:07 +0000";
layers = (
{
layerId = m01;
shapes = (
{
closed = 1;
nodes = (
(202,55,l),
(287,55,l),
(116,250,l),
(287,445,l),
(202,445,l),
(30,250,l)
);
}
);
width = 337;
}
);
unicode = 8249;
userData = {
KernOnSpecialSpacing = {
L = quotes;
R = quotes;
};
};
},
{
glyphname = guilsinglright;
lastChange = "2022-01-20 18:35:07 +0000";
layers = (
{
layerId = m01;
shapes = (
{
closed = 1;
nodes = (
(135,445,l),
(50,445,l),
(221,250,l),
(50,55,l),
(135,55,l),
(307,250,l)
);
}
);
width = 337;
}
);
unicode = 8250;
userData = {
KernOnSpecialSpacing = {
L = quotes;
R = quotes;
};
};
},
{
glyphname = quotesingle;
lastChange = "2022-01-20 20:42:22 +0000";
layers = (
{
layerId = m01;
shapes = (
{
closed = 1;
nodes = (
(60,479,l),
(132,479,l),
(137,680,l),
(55,680,l)
);
}
);
width = 192;
}
);
unicode = 39;
userData = {
KernOnName = quotesingle;
KernOnSpecialSpacing = {
L = quotes;
R = quotes;
};
};
},
{
glyphname = at;
lastChange = "2022-01-20 18:35:07 +0000";
layers = (
{
layerId = m01;
shapes = (
{
closed = 1;
nodes = (
(540,81,o),
(597,33,o),
(672,33,cs),
(804,33,o),
(834,184,o),
(834,297,cs),
(834,556,o),
(677,690,o),
(441,690,cs),
(193,690,o),
(31,542,o),
(31,280,cs),
(31,20,o),
(192,-145,o),
(413,-145,cs),
(594,-145,l),
(594,-80,l),
(435,-80,ls),
(251,-80,o),
(106,40,o),
(106,275,cs),
(106,505,o),
(245,626,o),
(443,626,cs),
(624,626,o),
(761,525,o),
(761,281,cs),
(761,215,o),
(751,96,o),
(666,96,cs),
(633,96,o),
(607,114,o),
(607,150,cs),
(607,479,l),
(540,479,l),
(540,420,l),
(510,456,o),
(466,484,o),
(405,484,cs),
(307,484,o),
(231,411,o),
(231,273,cs),
(231,141,o),
(301,62,o),
(404,62,cs),
(465,62,o),
(509,90,o),
(540,126,c),
(540,125,ls)
);
},
{
closed = 1;
nodes = (
(301,367,o),
(344,427,o),
(419,427,cs),
(491,427,o),
(540,372,o),
(540,273,cs),
(540,179,o),
(494,119,o),
(419,119,cs),
(346,119,o),
(301,174,o),
(301,273,cs)
);
}
);
width = 865;
}
);
metricLeft = o;
metricRight = o;
unicode = 64;
userData = {
KernOnSpecialSpacing = {
L = symbols;
R = symbols;
};
};
},
{
glyphname = ampersand;
lastChange = "2022-01-20 18:35:07 +0000";
layers = (
{
layerId = m01;
shapes = (
{
closed = 1;
nodes = (
(494,283,o),
(489,245,o),
(461,187,c),
(293,365,l),
(394,431,o),
(433,476,o),
(433,539,cs),
(433,625,o),
(358,690,o),
(268,690,cs),
(177,690,o),
(107,625,o),
(107,542,cs),
(107,506,o),
(121,450,o),
(186,378,c),
(76,306,o),
(36,240,o),
(36,174,cs),
(36,69,o),
(139,-10,o),
(264,-10,cs),
(344,-10,o),
(415,22,o),
(469,78,c),
(534,9,l),
(629,9,l),
(512,133,l),
(546,189,o),
(567,259,o),
(572,326,cs),
(573,341,o),
(574,356,o),
(574,372,c),
(500,372,l),
(500,358,o),
(500,358,o),
(499,346,cs)
);
},
{
closed = 1;
nodes = (
(113,222,o),
(138,268,o),
(233,327,c),
(422,127,l),
(381,82,o),
(327,60,o),
(264,60,cs),
(171,60,o),
(113,103,o),
(113,174,cs)
);
},
{
closed = 1;
nodes = (
(184,594,o),
(214,623,o),
(268,623,cs),
(322,623,o),
(356,593,o),
(356,539,cs),
(356,500,o),
(336,474,o),
(246,415,c),
(194,473,o),
(184,513,o),
(184,542,cs)
);
}
);
width = 613;
}
);
metricLeft = O;
unicode = 38;
userData = {
KernOnSpecialSpacing = {
L = symbols;
R = symbols;
};
};
},
{
glyphname = paragraph;
lastChange = "2022-01-20 20:13:14 +0000";
layers = (
{
layerId = m01;
shapes = (
{
closed = 1;
nodes = (
(402,-140,l),
(476,-140,l),
(476,680,l),
(402,680,l)
);
},
{
closed = 1;
nodes = (
(261,-140,l),
(335,-140,l),
(335,680,l),
(261,680,l)
);
},
{
closed = 1;
nodes = (
(275,286,l),
(275,680,l),
(252,680,ls),
(143,680,o),
(55,591,o),
(55,483,cs),
(55,374,o),
(143,286,o),
(252,286,cs)
);
}
);
width = 531;
}
);
metricLeft = N;
metricRight = N;
unicode = 182;
userData = {
KernOnSpecialSpacing = {
L = NoKerning;
R = NoKerning;
};
};
},
{
glyphname = section;
lastChange = "2022-01-20 23:37:25 +0000";
layers = (
{
layerId = m01;
shapes = (
{
closed = 1;
nodes = (
(30,102,o),
(326,171,o),
(326,34,cs),
(326,-27,o),
(278,-55,o),
(221,-55,cs),
(155,-55,o),
(110,-15,o),
(110,38,c),
(37,38,l),
(37,-54,o),
(104,-114,o),
(220,-114,cs),
(323,-114,o),
(398,-67,o),
(398,36,cs),
(398,110,o),
(357,146,o),
(306,170,c),
(362,180,o),
(398,212,o),
(398,283,cs),
(398,479,o),
(102,410,o),
(102,547,cs),
(102,608,o),
(150,636,o),
(207,636,cs),
(273,636,o),
(318,596,o),
(318,543,c),
(391,543,l),
(391,635,o),
(324,695,o),
(208,695,cs),
(105,695,o),
(30,648,o),
(30,545,cs),
(30,471,o),
(71,435,o),
(122,411,c),
(66,401,o),
(30,369,o),
(30,298,cs)
);
},
{
closed = 1;
nodes = (
(101,364,o),
(154,393,o),
(207,381,cs),
(272,366,o),
(327,340,o),
(327,280,cs),
(327,217,o),
(274,188,o),
(221,200,cs),
(156,215,o),
(101,241,o),
(101,301,cs)
);
}
);
width = 428;
}
);
metricLeft = S;
metricRight = S;
unicode = 167;
userData = {
KernOnSpecialSpacing = {
R = symbols;
};
};
},
{
glyphname = copyright;
lastChange = "2022-01-20 23:59:08 +0000";
layers = (
{
layerId = m01;
shapes = (
{
closed = 1;
nodes = (
(580,-28,o),
(740,132,o),
(740,327,cs),
(740,522,o),
(580,682,o),
(385,682,cs),
(190,682,o),
(30,522,o),
(30,327,cs),
(30,132,o),
(190,-28,o),
(385,-28,cs)
);
},
{
closed = 1;
nodes = (
(219,30,o),
(88,161,o),
(88,327,cs),
(88,493,o),
(219,624,o),
(385,624,cs),
(551,624,o),
(682,493,o),
(682,327,c),
(682,161,o),
(551,30,o),
(385,30,cs)
);
},
{
closed = 1;
nodes = (
(488,246,l),
(476,202,o),
(437,170,o),
(385,170,cs),
(308,170,o),
(271,231,o),
(271,327,cs),
(271,422,o),
(308,483,o),
(385,483,cs),
(438,483,o),
(476,451,o),
(488,407,c),
(560,407,l),
(544,496,o),
(478,541,o),
(386,541,cs),
(265,541,o),
(201,463,o),
(201,327,cs),
(201,190,o),
(265,112,o),
(386,112,cs),
(478,112,o),
(543,157,o),
(560,246,c)
);
}
);
width = 770;
}
);
unicode = 169;
userData = {
KernOnSpecialSpacing = {
R = symbols;
};
};
},
{
glyphname = registered;
lastChange = "2022-01-20 23:25:49 +0000";
layers = (
{
layerId = m01;
shapes = (
{
closed = 1;
nodes = (
(342,280,o),
(436,374,o),
(436,488,cs),
(436,602,o),
(342,696,o),
(228,696,cs),
(114,696,o),
(20,602,o),
(20,488,cs),
(20,374,o),
(114,280,o),
(228,280,cs)
);
},
{
closed = 1;
nodes = (
(134,320,o),
(60,394,o),
(60,488,cs),
(60,582,o),
(134,656,o),
(228,656,cs),
(322,656,o),
(396,582,o),
(396,488,cs),
(396,394,o),
(322,320,o),
(228,320,cs)
);
},
{
closed = 1;
nodes = (
(284,381,l),
(322,381,l),
(267,476,l),
(230,476,l)
);
},
{
closed = 1;
nodes = (
(244,570,ls),
(267,570,o),
(281,551,o),
(281,531,cs),
(281,511,o),
(267,493,o),
(244,493,cs),
(186,493,l),
(186,570,l)
);
},
{
closed = 1;
nodes = (
(244,463,ls),
(290,463,o),
(318,492,o),
(318,531,cs),
(318,568,o),
(290,599,o),
(244,599,cs),
(150,599,l),
(150,381,l),
(186,381,l),
(186,463,l)
);
}
);
width = 456;
}
);
unicode = 174;
userData = {
KernOnSpecialSpacing = {
L = superiors;
};
};
},
{
glyphname = trademark;
lastChange = "2022-01-20 18:35:07 +0000";
layers = (
{
layerId = m01;
shapes = (
{
closed = 1;
nodes = (
(245,631,l),
(245,670,l),
(30,670,l),
(30,631,l)
);
},
{
closed = 1;
nodes = (
(116,403,l),
(159,403,l),
(159,670,l),
(116,670,l)
);
},
{
closed = 1;
nodes = (
(436,403,l),
(521,640,l),
(514,641,l),
(514,403,l),
(557,403,l),
(557,670,l),
(491,670,l),
(409,438,l),
(421,438,l),
(339,670,l),
(273,670,l),
(273,403,l),
(316,403,l),
(316,641,l),
(309,640,l),
(394,403,l)
);
}
);
width = 587;
}
);
unicode = 8482;
userData = {
KernOnSpecialSpacing = {
L = superiors;
};
};
},
{
glyphname = degree;
lastChange = "2022-01-20 23:26:27 +0000";
layers = (
{
layerId = m01;
shapes = (
{
closed = 1;
nodes = (
(162,500,o),
(206,544,o),
(206,598,cs),
(206,652,o),
(162,696,o),
(108,696,cs),
(54,696,o),
(10,652,o),
(10,598,cs),
(10,544,o),
(54,500,o),
(108,500,cs)
);
},
{
closed = 1;
nodes = (
(77,542,o),
(52,567,o),
(52,598,cs),
(52,629,o),
(77,654,o),
(108,654,cs),
(139,654,o),
(164,629,o),
(164,598,cs),
(164,567,o),
(139,542,o),
(108,542,cs)
);
}
);
width = 216;
}
);
unicode = 176;
userData = {
KernOnSpecialSpacing = {
L = superiors;
};
};
},
{
glyphname = bar;
lastChange = "2022-01-20 20:13:10 +0000";
layers = (
{
layerId = m01;
shapes = (
{
closed = 1;
nodes = (
(50,-200,l),
(124,-200,l),
(124,680,l),
(50,680,l)
);
}
);
width = 174;
}
);
metricLeft = n;
metricRight = n;
unicode = 124;
userData = {
KernOnSpecialSpacing = {
L = NoKerning;
R = NoKerning;
};
};
},
{
glyphname = brokenbar;
lastChange = "2021-12-20 08:51:20 +0000";
layers = (
{
layerId = m01;
shapes = (
{
closed = 1;
nodes = (
(50,338,l),
(124,338,l),
(124,680,l),
(50,680,l)
);
},
{
closed = 1;
nodes = (
(50,142,l),
(50,-200,l),
(124,-200,l),
(124,142,l)
);
}
);
width = 174;
}
);
unicode = 166;
},
{
glyphname = dagger;
lastChange = "2022-01-20 23:40:00 +0000";
layers = (
{
layerId = m01;
shapes = (
{
closed = 1;
nodes = (
(358,563,l),
(358,631,l),
(30,631,l),
(30,563,l)
);
},
{
closed = 1;
nodes = (
(157,246,l),
(231,246,l),
(231,763,l),
(157,763,l)
);
}
);
width = 388;
}
);
unicode = 8224;
},
{
glyphname = daggerdbl;
lastChange = "2022-01-20 23:40:26 +0000";
layers = (
{
layerId = m01;
shapes = (
{
closed = 1;
nodes = (
(358,583,l),
(358,651,l),
(30,651,l),
(30,583,l)
);
},
{
closed = 1;
nodes = (
(157,246,l),
(231,246,l),
(231,763,l),
(157,763,l)
);
},
{
closed = 1;
nodes = (
(358,358,l),
(358,426,l),
(30,426,l),
(30,358,l)
);
}
);
width = 388;
}
);
unicode = 8225;
},
{
glyphname = cent;
lastChange = "2022-01-20 23:52:45 +0000";
layers = (
{
layerId = m01;
shapes = (
{
pos = (0,86);
ref = c;
},
{
closed = 1;
nodes = (
(294,549,l),
(294,680,l),
(220,680,l),
(220,549,l)
);
},
{
closed = 1;
nodes = (
(286,113,l),
(286,549,l),
(228,549,l),
(228,113,l)
);
},
{
closed = 1;
nodes = (
(220,113,l),
(220,0,l),
(294,0,l),
(294,113,l)
);
}
);
width = 493;
}
);
metricLeft = c;
metricRight = c;
unicode = 162;
userData = {
KernOnSpecialSpacing = {
L = symbols;
R = symbols;
};
};
},
{
glyphname = currency;
lastChange = "2022-01-20 23:43:41 +0000";
layers = (
{
layerId = m01;
shapes = (
{
closed = 1;
nodes = (
(310,180,o),
(382,252,o),
(382,339,cs),
(382,426,o),
(310,498,o),
(223,498,cs),
(136,498,o),
(64,426,o),
(64,339,cs),
(64,252,o),
(136,180,o),
(223,180,cs)
);
},
{
closed = 1;
nodes = (
(165,237,o),
(121,281,o),
(121,339,cs),
(121,397,o),
(165,441,o),
(223,441,cs),
(281,441,o),
(325,397,o),
(325,339,cs),
(325,281,o),
(281,237,o),
(223,237,cs)
);
},
{
closed = 1;
nodes = (
(336,417,l),
(421,502,l),
(386,537,l),
(302,453,l)
);
},
{
closed = 1;
nodes = (
(149,449,l),
(60,538,l),
(25,503,l),
(113,414,l)
);
},
{
closed = 1;
nodes = (
(296,231,l),
(385,141,l),
(421,176,l),
(328,269,l)
);
},
{
closed = 1;
nodes = (
(114,265,l),
(24,176,l),
(59,141,l),
(148,230,l)
);
}
);
width = 445;
}
);
metricLeft = x;
metricRight = x;
unicode = 164;
},
{
glyphname = dollar;
lastChange = "2022-01-20 18:35:07 +0000";
layers = (
{
layerId = m01;
shapes = (
{
closed = 1;
nodes = (
(334,603,l),
(334,709,l),
(262,709,l),
(262,603,l)
);
},
{
closed = 1;
nodes = (
(332,31,l),
(332,603,l),
(264,603,l),
(264,31,l)
);
},
{
closed = 1;
nodes = (
(262,31,l),
(262,-93,l),
(334,-93,l),
(334,31,l)
);
},
{
closed = 1;
nodes = (
(67,79,o),
(150,-10,o),
(305,-10,cs),
(422,-10,o),
(528,41,o),
(528,162,cs),
(528,389,o),
(163,305,o),
(163,467,cs),
(163,538,o),
(230,571,o),
(296,571,cs),
(372,571,o),
(435,524,o),
(435,463,c),
(519,463,l),
(519,569,o),
(430,638,o),
(297,638,cs),
(178,638,o),
(81,584,o),
(81,465,cs),
(81,235,o),
(446,324,o),
(446,160,cs),
(446,84,o),
(368,59,o),
(301,59,cs),
(198,59,o),
(153,116,o),
(153,174,c),
(67,174,l)
);
}
);
width = 600;
}
);
unicode = 36;
userData = {
KernOnSpecialSpacing = {
L = symbols;
R = symbols;
};
};
},
{
glyphname = euro;
lastChange = "2022-01-20 20:13:14 +0000";
layers = (
{
layerId = m01;
shapes = (
{
alignment = -1;
pos = (86,0);
ref = C;
},
{
closed = 1;
nodes = (
(443,219,l),
(443,281,l),
(50,281,l),
(50,219,l)
);
},
{
closed = 1;
nodes = (
(443,397,l),
(443,459,l),
(50,459,l),
(50,397,l)
);
}
);
width = 746;
}
);
metricLeft = hyphen;
metricRight = C;
unicode = 8364;
userData = {
KernOnSpecialSpacing = {
L = symbols;
R = symbols;
};
};
},
{
glyphname = sterling;
lastChange = "2022-01-20 23:18:47 +0000";
layers = (
{
layerId = m01;
shapes = (
{
closed = 1;
nodes = (
(208,72,l),
(254,107,o),
(274,163,o),
(274,223,cs),
(274,339,o),
(197,399,o),
(197,483,cs),
(197,613,o),
(382,659,o),
(518,564,c),
(518,655,l),
(345,739,o),
(107,660,o),
(107,475,cs),
(107,369,o),
(184,333,o),
(184,223,cs),
(184,141,o),
(141,104,o),
(94,78,c),
(94,0,l),
(552,0,l),
(552,72,l)
);
},
{
closed = 1;
nodes = (
(476,277,l),
(476,345,l),
(50,345,l),
(50,277,l)
);
}
);
width = 582;
}
);
unicode = 163;
userData = {
KernOnSpecialSpacing = {
L = symbols;
R = symbols;
};
};
},
{
glyphname = yen;
lastChange = "2022-01-20 18:35:07 +0000";
layers = (
{
layerId = m01;
shapes = (
{
ref = Y;
},
{
closed = 1;
nodes = (
(495,117,l),
(495,179,l),
(112,179,l),
(112,117,l)
);
},
{
closed = 1;
nodes = (
(495,265,l),
(495,327,l),
(112,327,l),
(112,265,l)
);
}
);
width = 624;
}
);
metricLeft = Y;
metricRight = Y;
unicode = 165;
userData = {
KernOnSpecialSpacing = {
L = symbols;
R = symbols;
};
};
},
{
glyphname = plus;
lastChange = "2022-01-20 20:13:10 +0000";
layers = (
{
layerId = m01;
shapes = (
{
closed = 1;
nodes = (
(500,230,l),
(500,308,l),
(50,308,l),
(50,230,l)
);
},
{
closed = 1;
nodes = (
(313,494,l),
(237,494,l),
(237,44,l),
(313,44,l)
);
}
);
width = 550;
}
);
metricLeft = n;
metricRight = n;
unicode = 43;
userData = {
KernOnSpecialSpacing = {
L = math;
R = math;
};
};
},
{
glyphname = minus;
lastChange = "2022-01-20 18:35:07 +0000";
layers = (
{
layerId = m01;
shapes = (
{
closed = 1;
nodes = (
(469,228,l),
(469,306,l),
(81,306,l),
(81,228,l)
);
}
);
width = 550;
}
);
unicode = 8722;
userData = {
KernOnSpecialSpacing = {
L = math;
R = math;
};
};
},
{
glyphname = multiply;
lastChange = "2022-01-20 18:35:07 +0000";
layers = (
{
layerId = m01;
shapes = (
{
closed = 1;
nodes = (
(423,67,l),
(473,117,l),
(126,463,l),
(77,414,l)
);
},
{
closed = 1;
nodes = (
(473,414,l),
(423,463,l),
(77,117,l),
(126,67,l)
);
}
);
width = 550;
}
);
unicode = 215;
userData = {
KernOnSpecialSpacing = {
L = math;
R = math;
};
};
},
{
glyphname = divide;
lastChange = "2022-01-20 18:35:07 +0000";
layers = (
{
layerId = m01;
shapes = (
{
closed = 1;
nodes = (
(493,232,l),
(493,302,l),
(57,302,l),
(57,232,l)
);
},
{
closed = 1;
nodes = (
(308,49,o),
(323,64,o),
(323,97,cs),
(323,130,o),
(309,145,o),
(275,145,cs),
(242,145,o),
(227,131,o),
(227,97,cs),
(227,64,o),
(241,49,o),
(275,49,cs)
);
},
{
closed = 1;
nodes = (
(308,389,o),
(323,404,o),
(323,437,cs),
(323,470,o),
(309,485,o),
(275,485,cs),
(242,485,o),
(227,471,o),
(227,437,cs),
(227,404,o),
(241,389,o),
(275,389,cs)
);
}
);
width = 550;
}
);
unicode = 247;
userData = {
KernOnSpecialSpacing = {
L = math;
R = math;
};
};
},
{
glyphname = equal;
lastChange = "2022-01-20 18:35:07 +0000";
layers = (
{
layerId = m01;
shapes = (
{
closed = 1;
nodes = (
(494,126,l),
(494,204,l),
(56,204,l),
(56,126,l)
);
},
{
closed = 1;
nodes = (
(494,326,l),
(494,404,l),
(56,404,l),
(56,326,l)
);
}
);
width = 550;
}
);
unicode = 61;
userData = {
KernOnSpecialSpacing = {
L = math;
R = math;
};
};
},
{
glyphname = notequal;
lastChange = "2022-01-17 22:46:12 +0000";
layers = (
{
layerId = m01;
shapes = (
{
ref = equal;
},
{
closed = 1;
nodes = (
(102,23,l),
(178,23,l),
(448,507,l),
(372,507,l)
);
}
);
width = 550;
}
);
unicode = 8800;
},
{
glyphname = greater;
lastChange = "2022-01-20 18:35:07 +0000";
layers = (
{
layerId = m01;
shapes = (
{
closed = 1;
nodes = (
(61,50,l),
(489,232,l),
(489,308,l),
(61,490,l),
(61,411,l),
(405,270,l),
(61,129,l)
);
}
);
width = 550;
}
);
unicode = 62;
userData = {
KernOnSpecialSpacing = {
L = math;
R = math;
};
};
},
{
glyphname = less;
lastChange = "2022-01-20 18:35:07 +0000";
layers = (
{
layerId = m01;
shapes = (
{
closed = 1;
nodes = (
(145,270,l),
(489,411,l),
(489,490,l),
(61,308,l),
(61,232,l),
(489,50,l),
(489,129,l)
);
}
);
width = 550;
}
);
unicode = 60;
userData = {
KernOnSpecialSpacing = {
L = math;
R = math;
};
};
},
{
glyphname = greaterequal;
lastChange = "2022-01-18 05:24:13 +0000";
layers = (
{
layerId = m01;
shapes = (
{
closed = 1;
nodes = (
(489,-66,l),
(489,-1,l),
(61,-1,l),
(61,-66,l)
);
},
{
closed = 1;
nodes = (
(61,50,l),
(489,232,l),
(489,308,l),
(61,490,l),
(61,411,l),
(405,270,l),
(61,129,l)
);
}
);
width = 550;
}
);
unicode = 8805;
},
{
glyphname = lessequal;
lastChange = "2022-01-18 05:24:05 +0000";
layers = (
{
layerId = m01;
shapes = (
{
closed = 1;
nodes = (
(145,270,l),
(489,411,l),
(489,490,l),
(61,308,l),
(61,232,l),
(489,50,l),
(489,129,l)
);
},
{
closed = 1;
nodes = (
(489,-66,l),
(489,-1,l),
(61,-1,l),
(61,-66,l)
);
}
);
width = 550;
}
);
unicode = 8804;
},
{
glyphname = plusminus;
lastChange = "2022-01-20 18:35:07 +0000";
layers = (
{
layerId = m01;
shapes = (
{
closed = 1;
nodes = (
(500,240,l),
(500,318,l),
(50,318,l),
(50,240,l)
);
},
{
closed = 1;
nodes = (
(313,494,l),
(237,494,l),
(237,64,l),
(313,64,l)
);
},
{
closed = 1;
nodes = (
(500,-64,l),
(500,4,l),
(50,4,l),
(50,-64,l)
);
}
);
width = 550;
}
);
unicode = 177;
userData = {
KernOnSpecialSpacing = {
L = math;
R = math;
};
};
},
{
glyphname = approxequal;
lastChange = "2022-01-20 18:35:07 +0000";
layers = (
{
layerId = m01;
shapes = (
{
closed = 1;
nodes = (
(436,403,o),
(418,351,o),
(366,351,cs),
(299,351,o),
(292,453,o),
(184,453,cs),
(83,453,o),
(44,373,o),
(44,309,c),
(113,309,l),
(113,334,o),
(130,386,o),
(181,386,cs),
(245,386,o),
(250,284,o),
(362,284,cs),
(467,284,o),
(505,364,o),
(505,428,c),
(436,428,l)
);
},
{
closed = 1;
nodes = (
(436,203,o),
(418,151,o),
(366,151,cs),
(299,151,o),
(292,253,o),
(184,253,cs),
(83,253,o),
(44,173,o),
(44,109,c),
(113,109,l),
(113,134,o),
(130,186,o),
(181,186,cs),
(245,186,o),
(250,84,o),
(362,84,cs),
(467,84,o),
(505,164,o),
(505,228,c),
(436,228,l)
);
}
);
width = 550;
}
);
unicode = 8776;
userData = {
KernOnSpecialSpacing = {
L = math;
R = math;
};
};
},
{
glyphname = asciitilde;
lastChange = "2022-01-20 18:35:07 +0000";
layers = (
{
layerId = m01;
shapes = (
{
closed = 1;
nodes = (
(436,309,o),
(418,247,o),
(366,247,cs),
(299,247,o),
(292,349,o),
(184,349,cs),
(83,349,o),
(44,259,o),
(44,195,c),
(113,195,l),
(113,220,o),
(130,282,o),
(181,282,cs),
(245,282,o),
(250,180,o),
(362,180,cs),
(467,180,o),
(505,270,o),
(505,334,c),
(436,334,l)
);
}
);
width = 550;
}
);
unicode = 126;
userData = {
KernOnSpecialSpacing = {
L = math;
R = math;
};
};
},
{
glyphname = logicalnot;
lastChange = "2022-01-18 05:38:14 +0000";
layers = (
{
layerId = m01;
shapes = (
{
closed = 1;
nodes = (
(519,279,l),
(519,351,l),
(81,351,l),
(81,279,l)
);
},
{
closed = 1;
nodes = (
(437,131,l),
(519,131,l),
(519,282,l),
(437,282,l)
);
}
);
width = 600;
}
);
unicode = 172;
},
{
glyphname = asciicircum;
lastChange = "2022-01-20 18:35:07 +0000";
layers = (
{
layerId = m01;
shapes = (
{
closed = 1;
nodes = (
(198,694,l),
(162,694,l),
(259,473,l),
(336,473,l),
(234,701,l),
(126,701,l),
(24,473,l),
(101,473,l)
);
}
);
width = 360;
}
);
metricLeft = x;
metricRight = x;
unicode = 94;
userData = {
KernOnSpecialSpacing = {
L = math;
R = math;
};
};
},
{
glyphname = infinity;
lastChange = "2022-01-20 23:51:29 +0000";
layers = (
{
layerId = m01;
shapes = (
{
closed = 1;
nodes = (
(235,365,o),
(265,332,o),
(307,278,c),
(265,224,o),
(235,191,o),
(187,191,cs),
(142,191,o),
(99,229,o),
(99,279,cs),
(99,328,o),
(141,365,o),
(187,365,cs)
);
},
{
closed = 1;
nodes = (
(31,196,o),
(107,126,o),
(190,126,cs),
(257,126,o),
(305,172,o),
(354,233,c),
(400,179,o),
(452,126,o),
(522,126,cs),
(604,126,o),
(678,196,o),
(678,279,cs),
(678,361,o),
(605,430,o),
(517,430,cs),
(452,430,o),
(410,391,o),
(354,323,c),
(309,377,o),
(257,430,o),
(188,430,cs),
(109,430,o),
(31,361,o),
(31,278,cs)
);
},
{
closed = 1;
nodes = (
(443,332,o),
(473,365,o),
(523,365,cs),
(569,365,o),
(610,328,o),
(610,278,cs),
(610,229,o),
(570,191,o),
(524,191,cs),
(475,191,o),
(443,224,o),
(401,278,c)
);
}
);
width = 709;
}
);
metricLeft = o;
metricRight = o;
unicode = 8734;
},
{
glyphname = integral;
lastChange = "2022-01-20 03:04:16 +0000";
layers = (
{
layerId = m01;
shapes = (
{
closed = 1;
nodes = (
(315,709,o),
(293,712,o),
(271,712,cs),
(171,712,o),
(131,652,o),
(131,571,cs),
(131,0,l),
(213,0,l),
(213,561,ls),
(213,609,o),
(232,642,o),
(285,642,cs),
(301,642,o),
(316,639,o),
(331,634,c),
(331,701,l)
);
},
{
closed = 1;
nodes = (
(29,-209,o),
(51,-212,o),
(73,-212,cs),
(173,-212,o),
(213,-152,o),
(213,-71,cs),
(213,500,l),
(131,500,l),
(131,-61,ls),
(131,-109,o),
(112,-142,o),
(59,-142,cs),
(43,-142,o),
(28,-139,o),
(13,-134,c),
(13,-201,l)
);
}
);
width = 344;
}
);
metricLeft = "=|f";
metricRight = f;
unicode = 8747;
},
{
glyphname = product;
lastChange = "2022-01-20 20:13:14 +0000";
layers = (
{
layerId = m01;
shapes = (
{
closed = 1;
nodes = (
(55,-200,l),
(140,-200,l),
(140,680,l),
(55,680,l)
);
},
{
closed = 1;
nodes = (
(531,-200,l),
(616,-200,l),
(616,680,l),
(531,680,l)
);
},
{
closed = 1;
nodes = (
(583,608,l),
(583,680,l),
(96,680,l),
(96,608,l)
);
}
);
width = 671;
}
);
metricLeft = H;
metricRight = H;
unicode = 8719;
},
{
glyphname = summation;
lastChange = "2022-01-18 06:02:45 +0000";
layers = (
{
layerId = m01;
shapes = (
{
closed = 1;
nodes = (
(447,268,l),
(198,608,l),
(583,608,l),
(583,680,l),
(96,680,l),
(96,608,l),
(366,240,l),
(96,-128,l),
(96,-200,l),
(583,-200,l),
(583,-128,l),
(198,-128,l),
(447,212,l)
);
}
);
width = 600;
}
);
unicode = 8721;
},
{
glyphname = radical;
lastChange = "2022-01-20 02:52:03 +0000";
layers = (
{
layerId = m01;
shapes = (
{
closed = 1;
nodes = (
(257,-198,l),
(443,615,l),
(624,615,l),
(624,684,l),
(384,684,l),
(201,-117,l),
(105,123,l),
(24,123,l),
(160,-198,l)
);
}
);
width = 648;
}
);
metricLeft = x;
metricRight = x;
unicode = 8730;
},
{
glyphname = partialdiff;
lastChange = "2022-01-19 00:44:05 +0000";
layers = (
{
layerId = m01;
shapes = (
{
closed = 1;
nodes = (
(353,398,o),
(404,328,o),
(404,230,cs),
(404,131,o),
(353,62,o),
(260,62,cs),
(172,62,o),
(118,125,o),
(118,227,cs),
(118,328,o),
(172,398,o),
(263,398,cs)
);
},
{
closed = 1;
nodes = (
(31,87,o),
(116,-11,o),
(258,-11,cs),
(432,-11,o),
(496,136,o),
(496,302,cs),
(496,564,o),
(337,669,o),
(238,700,c),
(116,700,l),
(244,645,o),
(389,554,o),
(412,383,c),
(387,438,o),
(345,471,o),
(263,471,cs),
(110,471,o),
(31,355,o),
(31,223,cs)
);
}
);
width = 532;
}
);
metricLeft = eth;
metricRight = eth;
unicode = 8706;
},
{
glyphname = percent;
lastChange = "2022-01-20 18:35:07 +0000";
layers = (
{
layerId = m01;
shapes = (
{
closed = 1;
nodes = (
(587,680,l),
(101,0,l),
(178,0,l),
(664,680,l)
);
},
{
closed = 1;
nodes = (
(124,425,o),
(95,463,o),
(95,529,cs),
(95,593,o),
(123,634,o),
(174,634,cs),
(223,634,o),
(253,597,o),
(253,530,cs),
(253,466,o),
(225,425,o),
(173,425,cs)
);
},
{
closed = 1;
nodes = (
(264,369,o),
(318,424,o),
(318,529,cs),
(318,630,o),
(268,690,o),
(174,690,cs),
(85,690,o),
(31,634,o),
(31,529,cs),
(31,429,o),
(81,369,o),
(174,369,cs)
);
},
{
closed = 1;
nodes = (
(541,46,o),
(511,84,o),
(511,149,cs),
(511,213,o),
(540,253,o),
(589,253,cs),
(639,253,o),
(669,215,o),
(669,149,cs),
(669,86,o),
(640,46,o),
(589,46,cs)
);
},
{
closed = 1;
nodes = (
(680,-11,o),
(734,44,o),
(734,149,cs),
(734,250,o),
(684,310,o),
(590,310,cs),
(501,310,o),
(447,254,o),
(447,149,cs),
(447,49,o),
(497,-11,o),
(590,-11,cs)
);
}
);
width = 765;
}
);
metricLeft = o;
metricRight = o;
unicode = 37;
userData = {
KernOnSpecialSpacing = {
L = "spaced-off";
};
};
},
{
glyphname = perthousand;
lastChange = "2021-12-23 06:54:04 +0000";
layers = (
{
layerId = m01;
shapes = (
{
closed = 1;
nodes = (
(583,680,l),
(97,0,l),
(174,0,l),
(660,680,l)
);
},
{
closed = 1;
nodes = (
(130,425,o),
(101,463,o),
(101,529,cs),
(101,593,o),
(129,634,o),
(179,634,cs),
(230,634,o),
(259,596,o),
(259,529,cs),
(259,466,o),
(231,425,o),
(179,425,cs)
);
},
{
closed = 1;
nodes = (
(270,369,o),
(324,424,o),
(324,529,cs),
(324,630,o),
(274,690,o),
(180,690,cs),
(91,690,o),
(37,634,o),
(37,529,cs),
(37,429,o),
(87,369,o),
(180,369,cs)
);
},
{
closed = 1;
nodes = (
(527,46,o),
(497,84,o),
(497,149,cs),
(497,213,o),
(526,253,o),
(575,253,cs),
(625,253,o),
(655,215,o),
(655,149,cs),
(655,86,o),
(626,46,o),
(575,46,cs)
);
},
{
closed = 1;
nodes = (
(666,-11,o),
(720,44,o),
(720,149,cs),
(720,250,o),
(670,310,o),
(576,310,cs),
(487,310,o),
(433,254,o),
(433,149,cs),
(433,49,o),
(483,-11,o),
(576,-11,cs)
);
},
{
closed = 1;
nodes = (
(860,46,o),
(830,84,o),
(830,149,cs),
(830,213,o),
(859,253,o),
(908,253,cs),
(958,253,o),
(988,215,o),
(988,149,cs),
(988,86,o),
(959,46,o),
(908,46,cs)
);
},
{
closed = 1;
nodes = (
(999,-11,o),
(1053,44,o),
(1053,149,cs),
(1053,250,o),
(1003,310,o),
(909,310,cs),
(820,310,o),
(766,254,o),
(766,149,cs),
(766,49,o),
(816,-11,o),
(909,-11,cs)
);
}
);
width = 1090;
}
);
unicode = 8240;
},
{
glyphname = upArrow;
lastChange = "2022-01-20 23:56:18 +0000";
layers = (
{
layerId = m01;
shapes = (
{
closed = 1;
nodes = (
(77,393,l),
(130,341,l),
(327,538,l),
(327,0,l),
(401,0,l),
(401,540,l),
(600,341,l),
(652,393,l),
(365,680,l)
);
}
);
width = 740;
}
);
unicode = 8593;
userData = {
KernOnSpecialSpacing = {
L = NoKerning;
R = NoKerning;
};
};
},
{
glyphname = northEastArrow;
lastChange = "2022-01-20 23:56:40 +0000";
layers = (
{
layerId = m01;
shapes = (
{
closed = 1;
nodes = (
(199,581,l),
(199,507,l),
(478,507,l),
(98,126,l),
(150,74,l),
(532,456,l),
(532,174,l),
(605,174,l),
(605,580,l)
);
}
);
width = 740;
}
);
unicode = 8599;
userData = {
KernOnSpecialSpacing = {
L = NoKerning;
R = NoKerning;
};
};
},
{
glyphname = rightArrow;
lastChange = "2022-01-20 23:56:43 +0000";
layers = (
{
layerId = m01;
shapes = (
{
closed = 1;
nodes = (
(423,615,l),
(371,562,l),
(568,365,l),
(30,364,l),
(30,291,l),
(570,291,l),
(371,91,l),
(422,40,l),
(709,327,l)
);
}
);
width = 740;
}
);
unicode = 8594;
userData = {
KernOnSpecialSpacing = {
L = NoKerning;
R = NoKerning;
};
};
},
{
glyphname = southEastArrow;
lastChange = "2022-01-20 23:56:45 +0000";
layers = (
{
layerId = m01;
shapes = (
{
closed = 1;
nodes = (
(611,493,l),
(536,492,l),
(536,214,l),
(155,593,l),
(104,542,l),
(485,160,l),
(203,159,l),
(203,87,l),
(609,87,l)
);
}
);
width = 740;
}
);
unicode = 8600;
userData = {
KernOnSpecialSpacing = {
L = NoKerning;
R = NoKerning;
};
};
},
{
glyphname = downArrow;
lastChange = "2022-01-20 23:56:47 +0000";
layers = (
{
layerId = m01;
shapes = (
{
closed = 1;
nodes = (
(645,269,l),
(591,321,l),
(395,125,l),
(393,662,l),
(321,662,l),
(320,123,l),
(120,321,l),
(69,270,l),
(356,-17,l)
);
}
);
width = 740;
}
);
unicode = 8595;
userData = {
KernOnSpecialSpacing = {
L = NoKerning;
R = NoKerning;
};
};
},
{
glyphname = southWestArrow;
lastChange = "2022-01-20 23:56:49 +0000";
layers = (
{
layerId = m01;
shapes = (
{
closed = 1;
nodes = (
(523,81,l),
(521,156,l),
(244,156,l),
(623,537,l),
(572,588,l),
(190,208,l),
(188,489,l),
(116,489,l),
(116,83,l)
);
}
);
width = 740;
}
);
unicode = 8601;
userData = {
KernOnSpecialSpacing = {
L = NoKerning;
R = NoKerning;
};
};
},
{
glyphname = leftArrow;
lastChange = "2022-01-20 23:56:52 +0000";
layers = (
{
layerId = m01;
shapes = (
{
closed = 1;
nodes = (
(299,47,l),
(350,101,l),
(155,297,l),
(692,298,l),
(692,371,l),
(153,372,l),
(350,572,l),
(299,623,l),
(12,336,l)
);
}
);
width = 740;
}
);
unicode = 8592;
userData = {
KernOnSpecialSpacing = {
L = NoKerning;
R = NoKerning;
};
};
},
{
glyphname = northWestArrow;
lastChange = "2022-01-20 23:56:54 +0000";
layers = (
{
layerId = m01;
shapes = (
{
closed = 1;
nodes = (
(111,169,l),
(185,171,l),
(186,447,l),
(566,68,l),
(618,120,l),
(237,502,l),
(518,504,l),
(518,576,l),
(112,576,l)
);
}
);
width = 740;
}
);
unicode = 8598;
userData = {
KernOnSpecialSpacing = {
L = NoKerning;
R = NoKerning;
};
};
},
{
glyphname = leftRightArrow;
lastChange = "2022-01-20 23:57:57 +0000";
layers = (
{
layerId = m01;
shapes = (
{
closed = 1;
nodes = (
(248,130,l),
(299,184,l),
(174,310,l),
(568,311,l),
(441,181,l),
(492,130,l),
(709,347,l),
(492,566,l),
(441,512,l),
(566,386,l),
(172,385,l),
(299,515,l),
(248,566,l),
(31,349,l)
);
}
);
width = 740;
}
);
unicode = 8596;
},
{
glyphname = upDownArrow;
lastChange = "2022-01-20 23:58:01 +0000";
layers = (
{
layerId = m01;
shapes = (
{
closed = 1;
nodes = (
(152,470,l),
(206,419,l),
(332,544,l),
(333,150,l),
(203,277,l),
(152,226,l),
(369,9,l),
(588,226,l),
(534,277,l),
(408,152,l),
(407,546,l),
(537,419,l),
(588,470,l),
(371,687,l)
);
}
);
width = 740;
}
);
unicode = 8597;
},
{
glyphname = dottedCircle;
lastChange = "2022-01-21 02:54:26 +0000";
layers = (
{
layerId = m01;
shapes = (
{
closed = 1;
nodes = (
(89,351,l),
(92,388,o),
(101,423,o),
(116,454,c),
(66,483,l),
(46,443,o),
(34,398,o),
(31,351,c)
);
},
{
closed = 1;
nodes = (
(116,91,o),
(149,58,o),
(187,33,c),
(216,82,l),
(186,102,o),
(160,128,o),
(140,158,c),
(91,129,l)
);
},
{
closed = 1;
nodes = (
(140,496,l),
(160,526,o),
(186,552,o),
(216,572,c),
(187,621,l),
(149,596,o),
(116,563,o),
(91,525,c)
);
},
{
closed = 1;
nodes = (
(269,-12,o),
(314,-26,o),
(361,-27,c),
(361,31,l),
(324,34,o),
(289,43,o),
(258,58,c),
(229,8,l)
);
},
{
closed = 1;
nodes = (
(258,596,l),
(289,611,o),
(324,620,o),
(361,623,c),
(361,681,l),
(314,678,o),
(269,666,o),
(229,646,c)
);
},
{
closed = 1;
nodes = (
(456,-24,o),
(501,-12,o),
(541,8,c),
(512,58,l),
(481,43,o),
(446,34,o),
(409,31,c),
(409,-27,l)
);
},
{
closed = 1;
nodes = (
(446,620,o),
(481,611,o),
(513,596,c),
(541,646,l),
(501,665,o),
(456,678,o),
(409,681,c),
(409,623,l)
);
},
{
closed = 1;
nodes = (
(583,33,l),
(621,58,o),
(654,91,o),
(679,129,c),
(630,158,l),
(610,128,o),
(584,102,o),
(554,82,c)
);
},
{
closed = 1;
nodes = (
(584,552,o),
(610,526,o),
(630,496,c),
(679,525,l),
(654,563,o),
(621,596,o),
(583,621,c),
(554,572,l)
);
},
{
closed = 1;
nodes = (
(704,171,l),
(724,211,o),
(736,256,o),
(739.188,303,c),
(681,303,l),
(678,266,o),
(669,231,o),
(654,200,c)
);
},
{
closed = 1;
nodes = (
(669,423,o),
(678,388,o),
(681,351,c),
(739,351,l),
(736,398,o),
(724,443,o),
(704,483,c),
(654,454,l)
);
},
{
closed = 1;
nodes = (
(101,231,o),
(92,266,o),
(89,303,c),
(31,303,l),
(34,256,o),
(46,211,o),
(66,171,c),
(116,200,l)
);
}
);
width = 770;
}
);
unicode = 9676;
},
{
glyphname = lozenge;
lastChange = "2022-01-21 00:06:52 +0000";
layers = (
{
layerId = m01;
shapes = (
{
closed = 1;
nodes = (
(348,307,l),
(217,69,l),
(92,306,l),
(220,558,l)
);
},
{
closed = 1;
nodes = (
(182,612,l),
(24,306,l),
(187,0,l),
(245,0,l),
(416,305,l),
(258,612,l)
);
}
);
width = 440;
}
);
metricLeft = x;
metricRight = x;
unicode = 9674;
},
{
glyphname = dieresiscomb;
lastChange = "2022-01-20 18:35:07 +0000";
layers = (
{
anchors = (
{
name = _top;
pos = (250,500);
},
{
name = top;
pos = (250,668);
}
);
layerId = m01;
shapes = (
{
closed = 1;
nodes = (
(191,562,o),
(208,578,o),
(208,615,cs),
(208,651,o),
(192,668,o),
(155,668,cs),
(119,668,o),
(102,652,o),
(102,615,cs),
(102,579,o),
(118,562,o),
(155,562,cs)
);
},
{
closed = 1;
nodes = (
(381,562,o),
(398,578,o),
(398,615,cs),
(398,651,o),
(382,668,o),
(345,668,cs),
(309,668,o),
(292,652,o),
(292,615,cs),
(292,579,o),
(308,562,o),
(345,562,cs)
);
}
);
width = 500;
}
);
unicode = 776;
userData = {
KernOnSpecialSpacing = {
L = NoKerning;
R = NoKerning;
};
};
},
{
glyphname = dotaccentcomb;
lastChange = "2022-01-20 18:35:07 +0000";
layers = (
{
anchors = (
{
name = _top;
pos = (250,500);
},
{
name = top;
pos = (250,668);
}
);
layerId = m01;
shapes = (
{
closed = 1;
nodes = (
(286,562,o),
(303,578,o),
(303,615,cs),
(303,651,o),
(287,668,o),
(250,668,cs),
(214,668,o),
(197,652,o),
(197,615,cs),
(197,579,o),
(213,562,o),
(250,562,cs)
);
}
);
width = 500;
}
);
unicode = 775;
userData = {
KernOnSpecialSpacing = {
L = NoKerning;
R = NoKerning;
};
};
},
{
glyphname = gravecomb;
lastChange = "2022-01-20 18:35:07 +0000";
layers = (
{
anchors = (
{
name = _top;
pos = (250,500);
},
{
name = top;
pos = (250,692);
}
);
layerId = m01;
shapes = (
{
closed = 1;
nodes = (
(220,560,l),
(285,560,l),
(224,692,l),
(129,692,l)
);
}
);
width = 500;
}
);
unicode = 768;
userData = {
KernOnSpecialSpacing = {
L = NoKerning;
R = NoKerning;
};
};
},
{
glyphname = acutecomb;
lastChange = "2022-01-20 18:35:07 +0000";
layers = (
{
anchors = (
{
name = _top;
pos = (250,500);
},
{
name = top;
pos = (250,691);
}
);
layerId = m01;
shapes = (
{
closed = 1;
nodes = (
(278,692,l),
(217,560,l),
(282,560,l),
(373,692,l)
);
}
);
width = 500;
}
);
unicode = 769;
userData = {
KernOnSpecialSpacing = {
L = NoKerning;
R = NoKerning;
};
};
},
{
glyphname = hungarumlautcomb;
lastChange = "2022-01-20 18:35:07 +0000";
layers = (
{
anchors = (
{
name = _top;
pos = (222,500);
},
{
name = top;
pos = (261,691);
}
);
layerId = m01;
shapes = (
{
closed = 1;
nodes = (
(161,692,l),
(107,560,l),
(169,560,l),
(253,692,l)
);
},
{
closed = 1;
nodes = (
(314,692,l),
(260,560,l),
(322,560,l),
(406,692,l)
);
}
);
width = 500;
}
);
unicode = 779;
userData = {
KernOnSpecialSpacing = {
L = NoKerning;
R = NoKerning;
};
};
},
{
glyphname = circumflexcomb;
lastChange = "2022-01-20 18:35:07 +0000";
layers = (
{
anchors = (
{
name = _top;
pos = (250,500);
},
{
name = top;
pos = (250,693);
}
);
layerId = m01;
shapes = (
{
closed = 1;
nodes = (
(206,693,l),
(102,561,l),
(184,561,l),
(250,652,l),
(316,561,l),
(398,561,l),
(294,693,l)
);
}
);
width = 500;
}
);
unicode = 770;
userData = {
KernOnSpecialSpacing = {
L = NoKerning;
R = NoKerning;
};
};
},
{
glyphname = caroncomb;
lastChange = "2022-01-20 18:35:07 +0000";
layers = (
{
anchors = (
{
name = _top;
pos = (250,500);
},
{
name = top;
pos = (250,693);
}
);
layerId = m01;
shapes = (
{
closed = 1;
nodes = (
(398,693,l),
(316,693,l),
(250,602,l),
(184,693,l),
(102,693,l),
(206,561,l),
(294,561,l)
);
}
);
width = 500;
}
);
unicode = 780;
userData = {
KernOnSpecialSpacing = {
L = NoKerning;
R = NoKerning;
};
};
},
{
glyphname = brevecomb;
lastChange = "2022-01-20 18:35:07 +0000";
layers = (
{
anchors = (
{
name = _top;
pos = (250,500);
},
{
name = top;
pos = (250,691);
}
);
layerId = m01;
shapes = (
{
closed = 1;
nodes = (
(333,556,o),
(395,614,o),
(395,691,c),
(326,691,l),
(326,646,o),
(293,612,o),
(250,612,cs),
(207,612,o),
(174,646,o),
(174,691,c),
(105,691,l),
(105,614,o),
(167,556,o),
(250,556,cs)
);
}
);
width = 500;
}
);
unicode = 774;
userData = {
KernOnSpecialSpacing = {
L = NoKerning;
R = NoKerning;
};
};
},
{
glyphname = ringcomb;
lastChange = "2022-01-20 18:35:07 +0000";
layers = (
{
anchors = (
{
name = _top;
pos = (250,500);
},
{
name = top;
pos = (250,736);
}
);
layerId = m01;
shapes = (
{
closed = 1;
nodes = (
(300,555,o),
(338,593,o),
(338,644,cs),
(338,694,o),
(300,732,o),
(250,732,cs),
(199,732,o),
(161,694,o),
(161,644,cs),
(161,593,o),
(199,555,o),
(250,555,cs)
);
},
{
closed = 1;
nodes = (
(221,594,o),
(200,615,o),
(200,644,cs),
(200,673,o),
(221,694,o),
(250,694,cs),
(279,694,o),
(300,673,o),
(300,644,cs),
(300,615,o),
(279,594,o),
(250,594,cs)
);
}
);
width = 500;
}
);
unicode = 778;
userData = {
KernOnSpecialSpacing = {
L = NoKerning;
R = NoKerning;
};
};
},
{
glyphname = tildecomb;
lastChange = "2022-01-20 18:35:07 +0000";
layers = (
{
anchors = (
{
name = _top;
pos = (250,500);
},
{
name = top;
pos = (250,668);
}
);
layerId = m01;
shapes = (
{
closed = 1;
nodes = (
(364,652,o),
(356,611,o),
(318,611,cs),
(268,611,o),
(263,681,o),
(184,681,cs),
(110,681,o),
(81,615,o),
(81,568,c),
(137,568,l),
(137,586,o),
(145,627,o),
(182,627,cs),
(229,627,o),
(233,557,o),
(315,557,cs),
(392,557,o),
(420,623,o),
(420,670,c),
(364,670,l)
);
}
);
width = 500;
}
);
unicode = 771;
userData = {
KernOnSpecialSpacing = {
L = NoKerning;
R = NoKerning;
};
};
},
{
glyphname = macroncomb;
lastChange = "2022-01-20 18:35:07 +0000";
layers = (
{
anchors = (
{
name = _top;
pos = (250,500);
},
{
name = top;
pos = (250,615);
}
);
layerId = m01;
shapes = (
{
closed = 1;
nodes = (
(105,560,l),
(395,560,l),
(395,615,l),
(105,615,l)
);
}
);
width = 500;
}
);
unicode = 772;
userData = {
KernOnSpecialSpacing = {
L = NoKerning;
R = NoKerning;
};
};
},
{
glyphname = cedillacomb;
lastChange = "2022-01-20 18:35:07 +0000";
layers = (
{
anchors = (
{
name = _bottom;
pos = (243,0);
},
{
name = bottom;
pos = (249,-208);
}
);
layerId = m01;
shapes = (
{
closed = 1;
nodes = (
(194,-98,l),
(267,-95,o),
(293,-105,o),
(293,-128,cs),
(293,-173,o),
(188,-159,o),
(157,-147,c),
(157,-192,l),
(223,-225,o),
(353,-211,o),
(353,-128,cs),
(353,-72,o),
(298,-49,o),
(244,-57,c),
(267,-5,l),
(228,11,l),
(194,-68,l)
);
}
);
width = 500;
}
);
unicode = 807;
userData = {
KernOnSpecialSpacing = {
L = NoKerning;
R = NoKerning;
};
};
},
{
glyphname = ogonekcomb;
lastChange = "2022-01-20 18:35:07 +0000";
layers = (
{
anchors = (
{
name = _ogonek;
pos = (274,69);
}
);
layerId = m01;
shapes = (
{
closed = 1;
nodes = (
(309,-86,o),
(282,-90,o),
(270,-90,cs),
(248,-90,o),
(237,-79,o),
(237,-59,cs),
(237,-32,o),
(257,13,o),
(294,37,c),
(274,69,l),
(211,27,o),
(182,-21,o),
(182,-66,cs),
(182,-116,o),
(219,-140,o),
(262,-140,cs),
(284,-140,o),
(310,-134,o),
(328,-117,c),
(328,-79,l)
);
}
);
width = 500;
}
);
unicode = 808;
userData = {
KernOnSpecialSpacing = {
L = NoKerning;
R = NoKerning;
};
};
},
{
glyphname = grave;
lastChange = "2022-01-19 03:17:35 +0000";
layers = (
{
layerId = m01;
shapes = (
{
closed = 1;
nodes = (
(254,580,l),
(319,580,l),
(258,712,l),
(163,712,l)
);
}
);
width = 500;
}
);
unicode = 96;
},
{
glyphname = dieresiscomb.case;
lastChange = "2022-01-19 05:23:22 +0000";
layers = (
{
anchors = (
{
name = _top;
pos = (250,680);
},
{
name = top;
pos = (250,868);
}
);
layerId = m01;
shapes = (
{
closed = 1;
nodes = (
(185,755,o),
(202,771,o),
(202,808,cs),
(202,844,o),
(186,861,o),
(149,861,cs),
(113,861,o),
(96,845,o),
(96,808,cs),
(96,772,o),
(112,755,o),
(149,755,cs)
);
},
{
closed = 1;
nodes = (
(387,755,o),
(404,771,o),
(404,808,cs),
(404,844,o),
(388,861,o),
(351,861,cs),
(315,861,o),
(298,845,o),
(298,808,cs),
(298,772,o),
(314,755,o),
(351,755,cs)
);
}
);
width = 500;
}
);
},
{
glyphname = dotaccentcomb.case;
lastChange = "2022-01-19 05:23:27 +0000";
layers = (
{
anchors = (
{
name = _top;
pos = (250,680);
},
{
name = top;
pos = (250,861);
}
);
layerId = m01;
shapes = (
{
closed = 1;
nodes = (
(286,755,o),
(303,771,o),
(303,808,cs),
(303,844,o),
(287,861,o),
(250,861,cs),
(214,861,o),
(197,845,o),
(197,808,cs),
(197,772,o),
(213,755,o),
(250,755,cs)
);
}
);
width = 500;
}
);
},
{
glyphname = gravecomb.case;
lastChange = "2022-01-19 05:23:49 +0000";
layers = (
{
anchors = (
{
name = _top;
pos = (250,680);
},
{
name = top;
pos = (250,887);
}
);
layerId = m01;
shapes = (
{
closed = 1;
nodes = (
(219,755,l),
(287,755,l),
(216,887,l),
(119,887,l)
);
}
);
width = 500;
}
);
},
{
glyphname = acutecomb.case;
lastChange = "2022-01-19 05:23:52 +0000";
layers = (
{
anchors = (
{
name = _top;
pos = (250,680);
},
{
name = top;
pos = (250,887);
}
);
layerId = m01;
shapes = (
{
closed = 1;
nodes = (
(290,887,l),
(219,755,l),
(287,755,l),
(387,887,l)
);
}
);
width = 500;
}
);
},
{
glyphname = hungarumlautcomb.case;
lastChange = "2022-01-19 05:23:55 +0000";
layers = (
{
anchors = (
{
name = _top;
pos = (250,680);
},
{
name = top;
pos = (250,887);
}
);
layerId = m01;
shapes = (
{
closed = 1;
nodes = (
(201,887,l),
(135,755,l),
(203,755,l),
(298,887,l)
);
},
{
closed = 1;
nodes = (
(353,887,l),
(287,755,l),
(355,755,l),
(450,887,l)
);
}
);
width = 500;
}
);
},
{
glyphname = circumflexcomb.case;
lastChange = "2022-01-19 05:25:47 +0000";
layers = (
{
anchors = (
{
name = _top;
pos = (250,680);
},
{
name = top;
pos = (250,877);
}
);
layerId = m01;
shapes = (
{
closed = 1;
nodes = (
(206,877,l),
(97,755,l),
(179,755,l),
(250,836,l),
(321,755,l),
(403,755,l),
(294,877,l)
);
}
);
width = 500;
}
);
},
{
glyphname = caroncomb.case;
lastChange = "2022-01-19 05:26:15 +0000";
layers = (
{
anchors = (
{
name = _top;
pos = (250,680);
},
{
name = top;
pos = (250,877);
}
);
layerId = m01;
shapes = (
{
closed = 1;
nodes = (
(403,877,l),
(321,877,l),
(250,796,l),
(179,877,l),
(97,877,l),
(206,755,l),
(294,755,l)
);
}
);
width = 500;
}
);
},
{
glyphname = brevecomb.case;
lastChange = "2022-01-19 05:28:50 +0000";
layers = (
{
anchors = (
{
name = _top;
pos = (250,680);
}
);
layerId = m01;
shapes = (
{
closed = 1;
nodes = (
(333,746,o),
(400,804,o),
(400,881,c),
(329,881,l),
(329,836,o),
(293,803,o),
(250,803,cs),
(207,803,o),
(171,836,o),
(171,881,c),
(100,881,l),
(100,804,o),
(167,746,o),
(250,746,cs)
);
}
);
width = 500;
}
);
},
{
glyphname = ringcomb.case;
lastChange = "2022-01-19 05:30:49 +0000";
layers = (
{
anchors = (
{
name = _top;
pos = (250,680);
},
{
name = top;
pos = (250,924);
}
);
layerId = m01;
shapes = (
{
closed = 1;
nodes = (
(300,747,o),
(338,785,o),
(338,836,cs),
(338,886,o),
(300,924,o),
(250,924,cs),
(199,924,o),
(161,886,o),
(161,836,cs),
(161,785,o),
(199,747,o),
(250,747,cs)
);
},
{
closed = 1;
nodes = (
(225,792,o),
(206,811,o),
(206,836,cs),
(206,861,o),
(225,880,o),
(250,880,cs),
(275,880,o),
(294,861,o),
(294,836,cs),
(294,811,o),
(275,792,o),
(250,792,cs)
);
}
);
width = 500;
}
);
},
{
glyphname = tildecomb.case;
lastChange = "2022-01-19 05:31:51 +0000";
layers = (
{
anchors = (
{
name = _top;
pos = (250,680);
},
{
name = top;
pos = (250,868);
}
);
layerId = m01;
shapes = (
{
closed = 1;
nodes = (
(362,841,o),
(356,801,o),
(318,801,cs),
(268,801,o),
(263,870,o),
(184,870,cs),
(110,870,o),
(81,804,o),
(81,757,c),
(139,757,l),
(139,775,o),
(145,815,o),
(182,815,cs),
(229,815,o),
(233,746,o),
(315,746,cs),
(392,746,o),
(420,812,o),
(420,859,c),
(362,859,l)
);
}
);
width = 500;
}
);
},
